<svg xmlns="http://www.w3.org/2000/svg" xmlns:xlink="http://www.w3.org/1999/xlink" width="128" height="128" viewBox="0 0 128 128">
  <defs>
    <clipPath id="clip-path">
      <rect id="Rectángulo_455533" data-name="Rectángulo 455533" width="128" height="122.776" fill="#19538d"/>
    </clipPath>
    <clipPath id="clip-path-2">
      <rect id="Rectángulo_466254" data-name="Rectángulo 466254" width="62" height="61.82" fill="#19538d"/>
    </clipPath>
  </defs>
  <g id="Grupo_1183633" data-name="Grupo 1183633" transform="translate(-383.746 -8399)">
    <circle id="Elipse_13674" data-name="Elipse 13674" cx="54.5" cy="54.5" r="54.5" transform="translate(392.746 8409)" fill="#fff"/>
    <g id="Grupo_1179062" data-name="Grupo 1179062" transform="translate(272)">
      <rect id="Rectángulo_455531" data-name="Rectángulo 455531" width="128" height="128" transform="translate(111.746 8399)" fill="none"/>
      <g id="Grupo_1179061" data-name="Grupo 1179061" transform="translate(111.746 8402)">
        <path id="Trazado_998445" data-name="Trazado 998445" d="M120.883,97.46H96.727L100,91.354h24.156Z" fill="#62249e"/>
        <path id="Trazado_998446" data-name="Trazado 998446" d="M1.985,86.893,0,90.934H26.632l1.986-4.041Z" fill="#19538d"/>
        <path id="Trazado_998447" data-name="Trazado 998447" d="M124.314,32.5H98.809l2-4.529h25.505Z" fill="#19538d"/>
        <path id="Trazado_998448" data-name="Trazado 998448" d="M36.988,12.75H3.483l2-4.529h33.5Z" fill="#19538d"/>
        <g id="Grupo_1179060" data-name="Grupo 1179060">
          <g id="Grupo_1179059" data-name="Grupo 1179059" clip-path="url(#clip-path)">
            <path id="Trazado_998449" data-name="Trazado 998449" d="M64,115.717a54.31,54.31,0,0,1-52.948-66.48H3.82A61.384,61.384,0,0,0,111.812,99.874h-9.469A54.154,54.154,0,0,1,64,115.717" fill="#19538d"/>
            <path id="Trazado_998450" data-name="Trazado 998450" d="M110.835,88.914h8.033c.645-1.284,1.231-2.6,1.787-3.934h-7.723c-.649,1.342-1.344,2.656-2.1,3.934" fill="#19538d"/>
            <path id="Trazado_998451" data-name="Trazado 998451" d="M125.388,61.388A61.4,61.4,0,0,0,5.373,43.131h7.452A54.33,54.33,0,1,1,114.406,81.649h7.526a61.118,61.118,0,0,0,3.456-20.261" fill="#19538d"/>
            <path id="Trazado_998452" data-name="Trazado 998452" d="M108.562,81.649V84.98h4.37q.792-1.637,1.475-3.331Z" fill="#19538d"/>
            <path id="Trazado_998453" data-name="Trazado 998453" d="M128,81.649h-6.068q-.592,1.689-1.277,3.331H128Z" fill="#19538d"/>
          </g>
        </g>
        <path id="Trazado_998444" data-name="Trazado 998444" d="M3,37.025,0,43.131H18.134l3-6.106Z" fill="#62249e"/>
      </g>
    </g>
    <g id="Grupo_1184630" data-name="Grupo 1184630" transform="translate(417 8432.59)">
      <g id="Grupo_1184629" data-name="Grupo 1184629" clip-path="url(#clip-path-2)">
        <path id="Trazado_1002589" data-name="Trazado 1002589" d="M61.995,55.8a3.888,3.888,0,0,0-1.325-2.832L49.114,42.96a16.944,16.944,0,0,0-5.614-23.1L43.441,6.9A3.752,3.752,0,0,0,41.806,4.29l-.143-.128-.028-.022C36.61.6,27.3.029,22.194,0A54.118,54.118,0,0,0,7.886,1.559C5.514,2.182,0,3.972,0,7.142L.012,45.354c0,1.091.736,2.145,2.186,3.133a19.046,19.046,0,0,0,6.593,2.592c7.607,1.768,15.749,1.843,25.623.239.492-.08.982-.151,1.47-.223,2.583-.377,5.028-.734,7.265-2.217l10.068,11.63a3.832,3.832,0,0,0,2.893,1.311h.113A5.814,5.814,0,0,0,61.995,55.8M50.818,47.181l8.4,7.294a2.034,2.034,0,0,1,.666,1.491,3.791,3.791,0,0,1-1.043,2.641,3.913,3.913,0,0,1-2.659,1.113,1.926,1.926,0,0,1-1.454-.657l-7.357-8.414Zm-1.4-12.925A14.835,14.835,0,1,1,34.588,19.42,14.852,14.852,0,0,1,49.423,34.256m-31.432,3.4C14.079,37.508,3.848,36.18,2.227,32.9l-.1-9.62c4.645,2.9,11.166,3.631,17.051,3.928a17.208,17.208,0,0,0-1.187,10.443m10.392,12.36c-7.356.779-17.475.345-23.605-2.464-.611-.28-2.223-1.019-2.538-2.005L2.126,35.88a18.442,18.442,0,0,0,4.76,2.1,49.517,49.517,0,0,0,11.7,1.8,17.215,17.215,0,0,0,9.8,10.227M41,8.2A7.58,7.58,0,0,1,38.163,10c-8.5,3.476-23.273,3.1-31.208.593-2.381-.753-4.9-2.032-4.824-3.363C2.223,5.586,6.458,4.048,8.495,3.56A56.379,56.379,0,0,1,21.646,2.023,61.794,61.794,0,0,1,33.5,3.192c1.894.37,7.281,1.955,7.88,3.787A1.193,1.193,0,0,1,41,8.2m-5.975,5.045.02,0A21.925,21.925,0,0,0,41.4,10.654v8.064a17.048,17.048,0,0,0-21.073,6.429C14.883,25.058,7.736,24.14,3.8,21.821c-.517-.3-1.592-.938-1.6-1.566l-.068-9.588A19.714,19.714,0,0,0,8.55,13.229a61.99,61.99,0,0,0,26.474.017M47.906,44.735l.007.006a12,12,0,0,1,1.258,1.074l-3.144,3.167a8.525,8.525,0,0,1-1.114-1.3,21.178,21.178,0,0,0,2.993-2.947" transform="translate(0 0)" fill="#19538d"/>
        <path id="Trazado_1002590" data-name="Trazado 1002590" d="M123.965,109.976A12.321,12.321,0,1,0,136.285,122.3a12.335,12.335,0,0,0-12.321-12.321m10.228,12.319a10.226,10.226,0,1,1-10.226-10.226,10.237,10.237,0,0,1,10.226,10.226" transform="translate(-89.377 -88.042)" fill="#19538d"/>
        <path id="Trazado_1002591" data-name="Trazado 1002591" d="M150.165,149.679a1.065,1.065,0,0,0-1.4.137l-6.985,6.96-3.8-3.741a.834.834,0,0,0-.66-.227,1.164,1.164,0,0,0-.816.439,1.03,1.03,0,0,0,.119,1.33l4.433,4.433a.98.98,0,0,0,.7.293,1.08,1.08,0,0,0,.113-.006,1.19,1.19,0,0,0,.7-.339l7.752-7.767a.9.9,0,0,0,.254-.714,1.133,1.133,0,0,0-.409-.8" transform="translate(-109.123 -119.664)" fill="#19538d"/>
      </g>
    </g>
  </g>
</svg>
