<svg xmlns="http://www.w3.org/2000/svg" xmlns:xlink="http://www.w3.org/1999/xlink" width="128" height="128" viewBox="0 0 128 128">
  <defs>
    <clipPath id="clip-path">
      <rect id="Rectángulo_455533" data-name="Rectángulo 455533" width="128" height="122.776" fill="#19538d"/>
    </clipPath>
    <clipPath id="clip-path-2">
      <rect id="Rectángulo_466258" data-name="Rectángulo 466258" width="59.084" height="61.817" fill="#19538d"/>
    </clipPath>
  </defs>
  <g id="Grupo_1183638" data-name="Grupo 1183638" transform="translate(-383.746 -8399)">
    <circle id="Elipse_13674" data-name="Elipse 13674" cx="54.5" cy="54.5" r="54.5" transform="translate(392.746 8409)" fill="#fff"/>
    <g id="Grupo_1179062" data-name="Grupo 1179062" transform="translate(272)">
      <rect id="Rectángulo_455531" data-name="Rectángulo 455531" width="128" height="128" transform="translate(111.746 8399)" fill="none"/>
      <g id="Grupo_1179061" data-name="Grupo 1179061" transform="translate(111.746 8402)">
        <path id="Trazado_998445" data-name="Trazado 998445" d="M120.883,97.46H96.727L100,91.354h24.156Z" fill="#62249e"/>
        <path id="Trazado_998446" data-name="Trazado 998446" d="M1.985,86.893,0,90.934H26.632l1.986-4.041Z" fill="#19538d"/>
        <path id="Trazado_998447" data-name="Trazado 998447" d="M124.314,32.5H98.809l2-4.529h25.505Z" fill="#19538d"/>
        <path id="Trazado_998448" data-name="Trazado 998448" d="M36.988,12.75H3.483l2-4.529h33.5Z" fill="#19538d"/>
        <g id="Grupo_1179060" data-name="Grupo 1179060">
          <g id="Grupo_1179059" data-name="Grupo 1179059" clip-path="url(#clip-path)">
            <path id="Trazado_998449" data-name="Trazado 998449" d="M64,115.717a54.31,54.31,0,0,1-52.948-66.48H3.82A61.384,61.384,0,0,0,111.812,99.874h-9.469A54.154,54.154,0,0,1,64,115.717" fill="#19538d"/>
            <path id="Trazado_998450" data-name="Trazado 998450" d="M110.835,88.914h8.033c.645-1.284,1.231-2.6,1.787-3.934h-7.723c-.649,1.342-1.344,2.656-2.1,3.934" fill="#19538d"/>
            <path id="Trazado_998451" data-name="Trazado 998451" d="M125.388,61.388A61.4,61.4,0,0,0,5.373,43.131h7.452A54.33,54.33,0,1,1,114.406,81.649h7.526a61.118,61.118,0,0,0,3.456-20.261" fill="#19538d"/>
            <path id="Trazado_998452" data-name="Trazado 998452" d="M108.562,81.649V84.98h4.37q.792-1.637,1.475-3.331Z" fill="#19538d"/>
            <path id="Trazado_998453" data-name="Trazado 998453" d="M128,81.649h-6.068q-.592,1.689-1.277,3.331H128Z" fill="#19538d"/>
          </g>
        </g>
        <path id="Trazado_998444" data-name="Trazado 998444" d="M3,37.025,0,43.131H18.134l3-6.106Z" fill="#62249e"/>
      </g>
    </g>
    <g id="Grupo_1184638" data-name="Grupo 1184638" transform="translate(418.204 8432.592)">
      <g id="Grupo_1184637" data-name="Grupo 1184637" clip-path="url(#clip-path-2)">
        <path id="Trazado_1002614" data-name="Trazado 1002614" d="M52.994,61.332,45.579,54.19a2.364,2.364,0,0,1-.5-2.447l-2.7-2.677a14.146,14.146,0,0,1-17.241-.276L.989,48.771c-.6,0-.9-.467-.985-1.034L0,6.319C0,4.188,3.155,5.4,5.051,5.027l.036-3.912A1.054,1.054,0,0,1,6.18,0L33.433.013l5.823,5.813.025,18.928A14.1,14.1,0,0,1,45.952,45.1a24.988,24.988,0,0,0,2.9,2.785,2.856,2.856,0,0,1,2.481.58l7.1,6.929a2.149,2.149,0,0,1,.043,3.036c-.934.977-1.776,1.885-2.768,2.821a2.027,2.027,0,0,1-2.716.086M37.29,24,37.284,7.289l-4.333-.067a1.018,1.018,0,0,1-.9-1.116L32.017,2,7.113,2A19.51,19.51,0,0,0,7.134,5.06l21.242.016,5.813,5.781.069,12.858ZM35.684,5.133A7.6,7.6,0,0,0,34.146,3.6c-.092.444-.293,1.257.057,1.541a1.758,1.758,0,0,0,1.481-.005M32.232,23.712,32.2,12.294l-4.231-.037a.941.941,0,0,1-.935-1l-.067-4.191L2.012,7.057,1.995,46.8l21.046-.044a15.053,15.053,0,0,1-3.022-6.591A12.731,12.731,0,1,1,29.427,24.43ZM30.67,10.175A15.5,15.5,0,0,0,29.118,8.62a3.867,3.867,0,0,0-.071,1.6,3.983,3.983,0,0,0,1.623-.047M27.563,25.182a10.744,10.744,0,1,0-7.727,12.952,14.21,14.21,0,0,1,7.727-12.952M46,37.778A12.085,12.085,0,1,0,33.917,49.863,12.085,12.085,0,0,0,46,37.778m-1.229,9.011-.915.938,2.561,2.5.915-.938Zm4.934,2.893-2.871,2.963,7.476,7.245,2.871-2.963Z" transform="translate(0 0)" fill="#19538d"/>
        <path id="Trazado_1002615" data-name="Trazado 1002615" d="M46.348,116.454a2.816,2.816,0,0,1-.376-3.852,2.687,2.687,0,0,1,3.9-.361l2.1,2,5.088-5.084a2.7,2.7,0,0,1,3.8.122,2.746,2.746,0,0,1-.045,3.824l-6.905,6.977a2.68,2.68,0,0,1-3.827.067Zm1.316-1.522,3.725,3.72a.757.757,0,0,0,1.1.026l6.982-7.074a.736.736,0,0,0-1.1-.968l-5.518,5.6a1.127,1.127,0,0,1-1.716.071l-2.57-2.545a.75.75,0,0,0-1.089.175.762.762,0,0,0,.185.992" transform="translate(-36.368 -86.909)" fill="#19538d"/>
        <path id="Trazado_1002616" data-name="Trazado 1002616" d="M137.426,145.852a11.01,11.01,0,1,1-11.01-11.01,11.01,11.01,0,0,1,11.01,11.01m-1.994,0a9.015,9.015,0,1,0-9.015,9.015,9.015,9.015,0,0,0,9.015-9.015" transform="translate(-92.498 -108.076)" fill="#19538d"/>
      </g>
    </g>
  </g>
</svg>
