<svg xmlns="http://www.w3.org/2000/svg" xmlns:xlink="http://www.w3.org/1999/xlink" width="128" height="128" viewBox="0 0 128 128">
  <defs>
    <clipPath id="clip-path">
      <rect id="Rectángulo_455533" data-name="Rectángulo 455533" width="128" height="122.776" fill="#19538d"/>
    </clipPath>
    <clipPath id="clip-path-2">
      <rect id="Rectángulo_466257" data-name="Rectángulo 466257" width="59.616" height="56.336" fill="#19538d"/>
    </clipPath>
  </defs>
  <g id="Grupo_1183639" data-name="Grupo 1183639" transform="translate(-383.746 -8399)">
    <circle id="Elipse_13674" data-name="Elipse 13674" cx="54.5" cy="54.5" r="54.5" transform="translate(392.746 8409)" fill="#fff"/>
    <g id="Grupo_1179062" data-name="Grupo 1179062" transform="translate(272)">
      <rect id="Rectángulo_455531" data-name="Rectángulo 455531" width="128" height="128" transform="translate(111.746 8399)" fill="none"/>
      <g id="Grupo_1179061" data-name="Grupo 1179061" transform="translate(111.746 8402)">
        <path id="Trazado_998445" data-name="Trazado 998445" d="M120.883,97.46H96.727L100,91.354h24.156Z" fill="#62249e"/>
        <path id="Trazado_998446" data-name="Trazado 998446" d="M1.985,86.893,0,90.934H26.632l1.986-4.041Z" fill="#19538d"/>
        <path id="Trazado_998447" data-name="Trazado 998447" d="M124.314,32.5H98.809l2-4.529h25.505Z" fill="#19538d"/>
        <path id="Trazado_998448" data-name="Trazado 998448" d="M36.988,12.75H3.483l2-4.529h33.5Z" fill="#19538d"/>
        <g id="Grupo_1179060" data-name="Grupo 1179060">
          <g id="Grupo_1179059" data-name="Grupo 1179059" clip-path="url(#clip-path)">
            <path id="Trazado_998449" data-name="Trazado 998449" d="M64,115.717a54.31,54.31,0,0,1-52.948-66.48H3.82A61.384,61.384,0,0,0,111.812,99.874h-9.469A54.154,54.154,0,0,1,64,115.717" fill="#19538d"/>
            <path id="Trazado_998450" data-name="Trazado 998450" d="M110.835,88.914h8.033c.645-1.284,1.231-2.6,1.787-3.934h-7.723c-.649,1.342-1.344,2.656-2.1,3.934" fill="#19538d"/>
            <path id="Trazado_998451" data-name="Trazado 998451" d="M125.388,61.388A61.4,61.4,0,0,0,5.373,43.131h7.452A54.33,54.33,0,1,1,114.406,81.649h7.526a61.118,61.118,0,0,0,3.456-20.261" fill="#19538d"/>
            <path id="Trazado_998452" data-name="Trazado 998452" d="M108.562,81.649V84.98h4.37q.792-1.637,1.475-3.331Z" fill="#19538d"/>
            <path id="Trazado_998453" data-name="Trazado 998453" d="M128,81.649h-6.068q-.592,1.689-1.277,3.331H128Z" fill="#19538d"/>
          </g>
        </g>
        <path id="Trazado_998444" data-name="Trazado 998444" d="M3,37.025,0,43.131H18.134l3-6.106Z" fill="#62249e"/>
      </g>
    </g>
    <g id="Grupo_1184636" data-name="Grupo 1184636" transform="translate(417.938 8435.332)">
      <g id="Grupo_1184635" data-name="Grupo 1184635" clip-path="url(#clip-path-2)">
        <path id="Trazado_1002603" data-name="Trazado 1002603" d="M5.93,55.524a2.414,2.414,0,0,1-3.544.075L.661,53.861a2.286,2.286,0,0,1-.044-3.168l8.348-8.357a2.879,2.879,0,0,1,2.113-.551l1.831-1.878a12.605,12.605,0,0,1-.03-13.832L12.924,3.18A3.388,3.388,0,0,1,16.294,0L56.052,0A3.481,3.481,0,0,1,59.608,3.58l.008,35.535a3.488,3.488,0,0,1-3.48,3.476l-24.728.033a12.576,12.576,0,0,1-14.922.859,17.588,17.588,0,0,0-1.926,1.811,2.76,2.76,0,0,1-.905,2.5Zm51.952-47.1.033-4.875a1.824,1.824,0,0,0-1.981-1.858l-39.723.021a1.755,1.755,0,0,0-1.642,1.82c0,1.657-.055,3.184.037,4.9ZM56.217,40.9A1.792,1.792,0,0,0,57.9,39.1l0-28.994-43.34,0,.063,13.868a12.566,12.566,0,0,1,18.527,16.9Zm-22-7.911A10.847,10.847,0,1,0,23.367,43.838,10.847,10.847,0,0,0,34.214,32.991M13.949,41.285l-1.507,1.51,1.125,1.123,1.507-1.51Zm-3.479,1.909L1.426,52.237l2.7,2.7,9.043-9.043Z" transform="translate(0)" fill="#19538d"/>
        <path id="Trazado_1002604" data-name="Trazado 1002604" d="M129.853,67.317l-34.41.009a.853.853,0,0,1-.908-.839.893.893,0,0,1,.9-.872h34.349a.863.863,0,0,1,.843.681.811.811,0,0,1-.774,1.021" transform="translate(-76.358 -52.998)" fill="#19538d"/>
        <path id="Trazado_1002605" data-name="Trazado 1002605" d="M129.8,86.135l-34.343-.008a.941.941,0,0,1-.932-.854.835.835,0,0,1,.9-.857l34.341,0a.813.813,0,0,1,.861.694c.074.458-.146.838-.83,1.024" transform="translate(-76.346 -68.183)" fill="#19538d"/>
        <path id="Trazado_1002606" data-name="Trazado 1002606" d="M237.056,147.34a6.036,6.036,0,1,1-6.036-6.036,6.036,6.036,0,0,1,6.036,6.036m-1.688,0a4.346,4.346,0,1,0-4.346,4.346,4.346,4.346,0,0,0,4.346-4.346" transform="translate(-181.722 -114.133)" fill="#19538d"/>
        <path id="Trazado_1002607" data-name="Trazado 1002607" d="M239.664,128.29l-8.335.028a.9.9,0,0,1-.872-.707.79.79,0,0,1,.7-.975l8.436-.017a.825.825,0,0,1,.821.672.834.834,0,0,1-.746,1" transform="translate(-186.132 -102.273)" fill="#19538d"/>
        <path id="Trazado_1002608" data-name="Trazado 1002608" d="M239.6,108.052l-8.435,0a.867.867,0,0,1-.766-.821.836.836,0,0,1,.888-.865l8.265,0a.848.848,0,0,1,.827.707.831.831,0,0,1-.779.971" transform="translate(-186.099 -85.916)" fill="#19538d"/>
        <path id="Trazado_1002609" data-name="Trazado 1002609" d="M238.233,21.009a1.254,1.254,0,1,1-1.254-1.254,1.254,1.254,0,0,1,1.254,1.254" transform="translate(-190.398 -15.956)" fill="#19538d"/>
        <path id="Trazado_1002610" data-name="Trazado 1002610" d="M276.88,21.012a1.255,1.255,0,1,1-1.255-1.255,1.255,1.255,0,0,1,1.255,1.255" transform="translate(-221.612 -15.958)" fill="#19538d"/>
        <path id="Trazado_1002611" data-name="Trazado 1002611" d="M257.543,21.035a1.252,1.252,0,1,1-1.252-1.252,1.252,1.252,0,0,1,1.252,1.252" transform="translate(-205.998 -15.979)" fill="#19538d"/>
        <path id="Trazado_1002612" data-name="Trazado 1002612" d="M96.95,143.281,85.9,143.3a.947.947,0,0,1-.988-1.039l.032-11.1,3.691-3.7,8.223-.028a.9.9,0,0,1,.948.836l.006,14.154a.879.879,0,0,1-.865.854M86.644,141.6l9.452-.036-.007-12.4-5.462-.011-.048,2.355a.759.759,0,0,1-.825.8l-3.114.067Z" transform="translate(-68.587 -102.932)" fill="#19538d"/>
        <path id="Trazado_1002613" data-name="Trazado 1002613" d="M243.428,166.056c-.759.624-1.946-.9-2.579-1.673a.846.846,0,0,1,.145-1.2c.885-.674,1.55.857,2.046.931,1.032-.406,2.592-2.841,3.534-1.655a.876.876,0,0,1-.192,1.172Z" transform="translate(-194.386 -130.958)" fill="#19538d"/>
      </g>
    </g>
  </g>
</svg>
