<svg xmlns="http://www.w3.org/2000/svg" xmlns:xlink="http://www.w3.org/1999/xlink" width="80" height="80" viewBox="0 0 80 80">
  <defs>
    <clipPath id="clip-path">
      <rect id="Rectángulo_466248" data-name="Rectángulo 466248" width="47.949" height="47.957" fill="#19538d"/>
    </clipPath>
  </defs>
  <g id="Grupo_1183547" data-name="Grupo 1183547" transform="translate(-705.629 -1685)">
    <g id="Grupo_1178970" data-name="Grupo 1178970" transform="translate(705.629 1685)">
      <path id="Sustracción_110" data-name="Sustracción 110" d="M80,80h0L32.943,80l-1.885-4.512H5.651L3.767,80H0V0H48.35l1.883,4.51H75.644L77.528,0H80V80Z" transform="translate(0)" fill="#ffd470"/>
    </g>
    <path id="Trazado_998456" data-name="Trazado 998456" d="M-3,0H18.647l2.824,6.588H-.176Z" transform="translate(763.217 1685)" fill="#19538d"/>
    <g id="Grupo_1184613" data-name="Grupo 1184613" transform="translate(721.654 1701.022)">
      <g id="Grupo_1184612" data-name="Grupo 1184612" clip-path="url(#clip-path)">
        <path id="Trazado_1002529" data-name="Trazado 1002529" d="M17.764,47.956a1.452,1.452,0,0,1-1.529-1.768c.321-1.278.658-2.517,1.052-3.769.268-.852,1.187-1.028,2.08-.9l.558-3.985-8.957-.022-3.8,6.533A3.852,3.852,0,0,1,.486,40.215L2.169,37.27A3.652,3.652,0,0,1,0,33.842L.02,7.505A3.473,3.473,0,0,1,3.594,4.041h6.16c.1-.779.011-1.484.045-2.237A1.826,1.826,0,0,1,11.709,0l24.7.012a1.8,1.8,0,0,1,1.76,1.778,20.714,20.714,0,0,0,.055,2.251l6.305.014A3.426,3.426,0,0,1,47.947,7.5l0,26.5A3.449,3.449,0,0,1,44.5,37.485l-16.444.029c.1,1.293.31,2.518.481,3.8.062.464,1.757-.375,2.228,1.325l.946,3.415a1.473,1.473,0,0,1-.261,1.341,1.5,1.5,0,0,1-1.187.55Zm19-46.564H11.2V5.616H36.766ZM2.857,32.408,2.83,7.954A1.044,1.044,0,0,1,3.9,6.853l5.827-.017a3.065,3.065,0,0,0,0-1.414H3.607A2.155,2.155,0,0,0,1.4,7.656l.006,26.328c0,.908.707,1.91,1.495,1.915a17.054,17.054,0,0,0,1.5-2.555c-.581-.056-1.54-.112-1.541-.936M11.264,10.34a10.742,10.742,0,1,1,2.6,19.457,19.615,19.615,0,0,0-1.139,2.082L29.97,31.9a.674.674,0,0,1,.76.692.719.719,0,0,1-.762.711h-16.8a14.4,14.4,0,0,1-1.359,2.788l32.681,0a2.059,2.059,0,0,0,2.052-1.976l.024-26.461A2.114,2.114,0,0,0,44.5,5.438l-6.265-.02a3.142,3.142,0,0,0,0,1.431l5.825,0a1.039,1.039,0,0,1,1.071,1.1l0,24.241a1.053,1.053,0,0,1-1.074,1.1l-10.638.012a.745.745,0,0,1-.787-.719.69.69,0,0,1,.789-.685c1.147-.055,2.234.086,3.345-.08l0-24.783L11.213,7.05a26.787,26.787,0,0,0,.05,3.29M7.792,17.462a9.313,9.313,0,1,0,1.144-2.838.736.736,0,0,1-1.046.063.635.635,0,0,1-.063-.91l1.845-2.415c.6-.78-.031-2.115.118-3.1l-5.585,0,.008,23.576c2.164.631.972-2.484,4.018-2.4l1.232-2.186A10.813,10.813,0,0,1,6.465,17a.7.7,0,0,1,1.327.467M43.76,8.238H38.169V31.9H43.76ZM10.575,28.208l-1.068,1.85,1.941,1.121,1.068-1.85Zm1.015,5.381a.651.651,0,0,0-.243-.849l-3.138-1.8a.674.674,0,0,0-.94.322l-5.529,9.59A2.451,2.451,0,0,0,2.674,44.2a2.423,2.423,0,0,0,3.315-.913Zm15.543,7.85-.555-3.92h-5.2L20.833,41.5Zm3.22,5.1-.992-3.65-10.762,0-.977,3.688Z" transform="translate(0 0.001)" fill="#19538d"/>
        <path id="Trazado_1002530" data-name="Trazado 1002530" d="M181.941,182.727l-7.928,0a.712.712,0,1,1,.018-1.423h7.888a.745.745,0,0,1,.752.634.72.72,0,0,1-.73.792" transform="translate(-147.325 -154.134)" fill="#19538d"/>
        <path id="Trazado_1002531" data-name="Trazado 1002531" d="M182.011,70.342,174,70.357a.686.686,0,0,1-.715-.709A.664.664,0,0,1,174,68.97h7.947a.685.685,0,0,1,.72.568.675.675,0,0,1-.655.805" transform="translate(-147.321 -58.635)" fill="#19538d"/>
        <path id="Trazado_1002532" data-name="Trazado 1002532" d="M196.076,154.646l-5.423.018a.718.718,0,0,1-.78-.634.7.7,0,0,1,.777-.785l5.386.006a.71.71,0,0,1,.732.644.694.694,0,0,1-.692.752" transform="translate(-161.42 -130.283)" fill="#19538d"/>
        <path id="Trazado_1002533" data-name="Trazado 1002533" d="M196.633,98.445l-5.481.006a.659.659,0,0,1-.683-.685.688.688,0,0,1,.689-.682l5.391,0a.69.69,0,0,1,.713.547.649.649,0,0,1-.629.817" transform="translate(-161.929 -82.534)" fill="#19538d"/>
        <path id="Trazado_1002534" data-name="Trazado 1002534" d="M200.281,126.485l-4.652.005a.691.691,0,0,1-.773-.736.716.716,0,0,1,.784-.663l4.634.009a.707.707,0,0,1,.733.665.68.68,0,0,1-.726.721" transform="translate(-165.658 -106.347)" fill="#19538d"/>
        <path id="Trazado_1002535" data-name="Trazado 1002535" d="M80.488,90.964a6.9,6.9,0,1,1-6.9-6.9,6.905,6.905,0,0,1,6.9,6.9m-1.411,0a5.5,5.5,0,1,0-5.5,5.5,5.5,5.5,0,0,0,5.5-5.5" transform="translate(-56.687 -71.464)" fill="#19538d"/>
        <path id="Trazado_1002536" data-name="Trazado 1002536" d="M104.322,19.475a.693.693,0,1,1-.693-.693.693.693,0,0,1,.693.693" transform="translate(-87.513 -15.968)" fill="#19538d"/>
        <path id="Trazado_1002537" data-name="Trazado 1002537" d="M85.548,19.5a.689.689,0,1,1-.69-.69.69.69,0,0,1,.69.69" transform="translate(-71.557 -15.994)" fill="#19538d"/>
        <path id="Trazado_1002538" data-name="Trazado 1002538" d="M123.12,19.5a.692.692,0,1,1-.692-.692.692.692,0,0,1,.692.692" transform="translate(-103.495 -15.994)" fill="#19538d"/>
      </g>
    </g>
  </g>
</svg>
