<svg xmlns="http://www.w3.org/2000/svg" xmlns:xlink="http://www.w3.org/1999/xlink" width="128" height="128" viewBox="0 0 128 128">
  <defs>
    <clipPath id="clip-path">
      <rect id="Rectángulo_455533" data-name="Rectángulo 455533" width="128" height="122.776" fill="#19538d"/>
    </clipPath>
    <clipPath id="clip-path-2">
      <rect id="Rectángulo_466263" data-name="Rectángulo 466263" width="63.183" height="56.335" fill="#19538d"/>
    </clipPath>
  </defs>
  <g id="Grupo_1183667" data-name="Grupo 1183667" transform="translate(-383.746 -8399)">
    <circle id="Elipse_13674" data-name="Elipse 13674" cx="54.5" cy="54.5" r="54.5" transform="translate(392.746 8409)" fill="#fff"/>
    <g id="Grupo_1179062" data-name="Grupo 1179062" transform="translate(272)">
      <rect id="Rectángulo_455531" data-name="Rectángulo 455531" width="128" height="128" transform="translate(111.746 8399)" fill="none"/>
      <g id="Grupo_1179061" data-name="Grupo 1179061" transform="translate(111.746 8402)">
        <path id="Trazado_998445" data-name="Trazado 998445" d="M120.883,97.46H96.727L100,91.354h24.156Z" fill="#62249e"/>
        <path id="Trazado_998446" data-name="Trazado 998446" d="M1.985,86.893,0,90.934H26.632l1.986-4.041Z" fill="#19538d"/>
        <path id="Trazado_998447" data-name="Trazado 998447" d="M124.314,32.5H98.809l2-4.529h25.505Z" fill="#19538d"/>
        <path id="Trazado_998448" data-name="Trazado 998448" d="M36.988,12.75H3.483l2-4.529h33.5Z" fill="#19538d"/>
        <g id="Grupo_1179060" data-name="Grupo 1179060">
          <g id="Grupo_1179059" data-name="Grupo 1179059" clip-path="url(#clip-path)">
            <path id="Trazado_998449" data-name="Trazado 998449" d="M64,115.717a54.31,54.31,0,0,1-52.948-66.48H3.82A61.384,61.384,0,0,0,111.812,99.874h-9.469A54.154,54.154,0,0,1,64,115.717" fill="#19538d"/>
            <path id="Trazado_998450" data-name="Trazado 998450" d="M110.835,88.914h8.033c.645-1.284,1.231-2.6,1.787-3.934h-7.723c-.649,1.342-1.344,2.656-2.1,3.934" fill="#19538d"/>
            <path id="Trazado_998451" data-name="Trazado 998451" d="M125.388,61.388A61.4,61.4,0,0,0,5.373,43.131h7.452A54.33,54.33,0,1,1,114.406,81.649h7.526a61.118,61.118,0,0,0,3.456-20.261" fill="#19538d"/>
            <path id="Trazado_998452" data-name="Trazado 998452" d="M108.562,81.649V84.98h4.37q.792-1.637,1.475-3.331Z" fill="#19538d"/>
            <path id="Trazado_998453" data-name="Trazado 998453" d="M128,81.649h-6.068q-.592,1.689-1.277,3.331H128Z" fill="#19538d"/>
          </g>
        </g>
        <path id="Trazado_998444" data-name="Trazado 998444" d="M3,37.025,0,43.131H18.134l3-6.106Z" fill="#62249e"/>
      </g>
    </g>
    <g id="Grupo_1184646" data-name="Grupo 1184646" transform="translate(416.155 8431.332)">
      <g id="Grupo_1184645" data-name="Grupo 1184645" transform="translate(0 4)" clip-path="url(#clip-path-2)">
        <path id="Trazado_1002638" data-name="Trazado 1002638" d="M1.848,51.665a2.762,2.762,0,0,0,2.9,2.779l38.226,0a.933.933,0,0,1,.951.87.993.993,0,0,1-.958,1.018L4.412,56.287A4.539,4.539,0,0,1,.018,51.815L0,4.664A4.581,4.581,0,0,1,4.583,0h54a4.638,4.638,0,0,1,4.6,4.853L63.1,28.191c0,.457-.718.684-1,.637a.957.957,0,0,1-.809-.962L61.268,11.31l-59.41,0ZM61.238,9.458,61.3,4.612a2.717,2.717,0,0,0-2.488-2.727L4.76,1.86A2.721,2.721,0,0,0,1.894,4.648c-.01,1.584-.065,3.145.045,4.814Z" transform="translate(0 0.001)" fill="#19538d"/>
        <path id="Trazado_1002639" data-name="Trazado 1002639" d="M81.782,74.355a2.006,2.006,0,0,1,2.007,2l.026,7.513a2.1,2.1,0,0,1-1.9,2.2L78,86.152c.607,1.048,1.906,1.421,1.794,2.735-.057.667-1.99,2.916-3.084,1.893l-1.957-1.83c-.689.409-1.1,1.129-1.752,1.581a1.391,1.391,0,0,1-2.116-.608L69.37,86.1l-32.854,0a2.144,2.144,0,0,1-2.351-2.072l-.007-7.662a2.032,2.032,0,0,1,1.925-2l7.33-.02a.841.841,0,0,1,.76.907.934.934,0,0,1-.8.892l-7.323.033.013,8.09,32.6,0-1.534-4.186a1.37,1.37,0,0,1,.283-1.341,1.4,1.4,0,0,1,1.481-.4l9.538,3.631c1.21.461,1.242,1.133,1.009,2.263a14.422,14.422,0,0,0,2.48-.023l-.007-8.053-33.937,0a.909.909,0,0,1-1.008-.722c-.071-.336.052-1.078.641-1.078Zm-4.06,14.6c-.173-1.257-3.261-2.388-1.969-3.744.515-.541,1.054-.988,1.582-1.635l-8.027-3.086,3.024,8.037,1.751-1.612c1.206-1.2,2.487,1.9,3.64,2.04" transform="translate(-27.415 -59.672)" fill="#19538d"/>
        <path id="Trazado_1002640" data-name="Trazado 1002640" d="M238.479,185.215a1,1,0,0,1-1.015-.88.928.928,0,0,1,.921-1l10.636-.01a2.764,2.764,0,0,0,2.84-2.827l.019-19.056a.9.9,0,0,1,.971-.857.923.923,0,0,1,.864.992l0,18.929a4.705,4.705,0,0,1-4.354,4.7Z" transform="translate(-190.583 -128.887)" fill="#19538d"/>
        <path id="Trazado_1002641" data-name="Trazado 1002641" d="M138.944,201.31l-7.816,0a2.223,2.223,0,0,1-2.181-2.349l.011-4.372a2.135,2.135,0,0,1,2.154-2.159l7.722-.022a2.2,2.2,0,0,1,2.33,2.192l0,4.55a2.154,2.154,0,0,1-2.217,2.155m.335-1.9-.064-5.142-8.375.046.021,5.129Z" transform="translate(-103.492 -154.429)" fill="#19538d"/>
        <path id="Trazado_1002642" data-name="Trazado 1002642" d="M43.28,201.31l-6.835.019a2.2,2.2,0,0,1-2.334-2.171l0-4.545a2.2,2.2,0,0,1,2.33-2.193l6.735,0a2.14,2.14,0,0,1,2.254,2.072c.038,1.6.049,3.17,0,4.777a2.092,2.092,0,0,1-2.141,2.037M43.6,199.4l-.02-5.084-7.564-.009,0,5.14Z" transform="translate(-27.373 -154.434)" fill="#19538d"/>
        <path id="Trazado_1002643" data-name="Trazado 1002643" d="M237.494,201.309l-6.837.007a2.143,2.143,0,0,1-2.253-2.052c-.05-1.6-.04-3.176,0-4.775a2.145,2.145,0,0,1,2.257-2.073l6.73-.005a2.209,2.209,0,0,1,2.334,2.194l-.005,4.548a2.155,2.155,0,0,1-2.221,2.156m.34-1.891-.023-5.118-7.564.013,0,5.122Z" transform="translate(-183.287 -154.427)" fill="#19538d"/>
        <path id="Trazado_1002644" data-name="Trazado 1002644" d="M112.042,169.486l-28.872.011a.913.913,0,1,1,0-1.821h28.765a.879.879,0,0,1,.929.715.865.865,0,0,1-.824,1.094" transform="translate(-65.971 -134.575)" fill="#19538d"/>
        <rect id="Rectángulo_466262" data-name="Rectángulo 466262" width="1.849" height="15.02" transform="translate(24.054 30.92) rotate(-89.9)" fill="#19538d"/>
        <path id="Trazado_1002645" data-name="Trazado 1002645" d="M99.447,201.2c.313,1.547-2.325,1.2-4.169,1.126a.9.9,0,0,1-.9-.938.913.913,0,0,1,.922-.882l3.146-.022a.942.942,0,0,1,1,.716" transform="translate(-75.75 -160.903)" fill="#19538d"/>
        <path id="Trazado_1002646" data-name="Trazado 1002646" d="M201.844,201.292c.285,1.5-2.335,1.04-4.046,1.075a.933.933,0,1,1,.007-1.856l3.148.015a.9.9,0,0,1,.891.766" transform="translate(-157.928 -160.928)" fill="#19538d"/>
        <path id="Trazado_1002647" data-name="Trazado 1002647" d="M97.041,222.859c-.984.118-2.623.23-2.659-.859a.876.876,0,0,1,.9-.926c1.163-.086,2.4-.195,2.557.759a.888.888,0,0,1-.8,1.026" transform="translate(-75.75 -177.388)" fill="#19538d"/>
        <path id="Trazado_1002648" data-name="Trazado 1002648" d="M251.225,23.737a1.506,1.506,0,1,1-1.507-1.506,1.507,1.507,0,0,1,1.507,1.506" transform="translate(-199.212 -17.842)" fill="#19538d"/>
        <path id="Trazado_1002649" data-name="Trazado 1002649" d="M225.211,23.731a1.507,1.507,0,1,1-1.507-1.507,1.507,1.507,0,0,1,1.507,1.507" transform="translate(-178.333 -17.837)" fill="#19538d"/>
        <path id="Trazado_1002650" data-name="Trazado 1002650" d="M277.207,23.732a1.507,1.507,0,1,1-1.507-1.507,1.507,1.507,0,0,1,1.507,1.507" transform="translate(-220.065 -17.838)" fill="#19538d"/>
      </g>
    </g>
  </g>
</svg>
