<svg xmlns="http://www.w3.org/2000/svg" xmlns:xlink="http://www.w3.org/1999/xlink" width="128" height="128" viewBox="0 0 128 128">
  <defs>
    <clipPath id="clip-path">
      <rect id="Rectángulo_455533" data-name="Rectángulo 455533" width="128" height="122.776" fill="#19538d"/>
    </clipPath>
    <clipPath id="clip-path-2">
      <rect id="Rectángulo_466280" data-name="Rectángulo 466280" width="57.209" height="57.204" fill="#19538d"/>
    </clipPath>
  </defs>
  <g id="Grupo_1183671" data-name="Grupo 1183671" transform="translate(-383.746 -8399)">
    <circle id="Elipse_13674" data-name="Elipse 13674" cx="54.5" cy="54.5" r="54.5" transform="translate(392.746 8409)" fill="#fff"/>
    <g id="Grupo_1179062" data-name="Grupo 1179062" transform="translate(272)">
      <rect id="Rectángulo_455531" data-name="Rectángulo 455531" width="128" height="128" transform="translate(111.746 8399)" fill="none"/>
      <g id="Grupo_1179061" data-name="Grupo 1179061" transform="translate(111.746 8402)">
        <path id="Trazado_998445" data-name="Trazado 998445" d="M120.883,97.46H96.727L100,91.354h24.156Z" fill="#62249e"/>
        <path id="Trazado_998446" data-name="Trazado 998446" d="M1.985,86.893,0,90.934H26.632l1.986-4.041Z" fill="#19538d"/>
        <path id="Trazado_998447" data-name="Trazado 998447" d="M124.314,32.5H98.809l2-4.529h25.505Z" fill="#19538d"/>
        <path id="Trazado_998448" data-name="Trazado 998448" d="M36.988,12.75H3.483l2-4.529h33.5Z" fill="#19538d"/>
        <g id="Grupo_1179060" data-name="Grupo 1179060">
          <g id="Grupo_1179059" data-name="Grupo 1179059" clip-path="url(#clip-path)">
            <path id="Trazado_998449" data-name="Trazado 998449" d="M64,115.717a54.31,54.31,0,0,1-52.948-66.48H3.82A61.384,61.384,0,0,0,111.812,99.874h-9.469A54.154,54.154,0,0,1,64,115.717" fill="#19538d"/>
            <path id="Trazado_998450" data-name="Trazado 998450" d="M110.835,88.914h8.033c.645-1.284,1.231-2.6,1.787-3.934h-7.723c-.649,1.342-1.344,2.656-2.1,3.934" fill="#19538d"/>
            <path id="Trazado_998451" data-name="Trazado 998451" d="M125.388,61.388A61.4,61.4,0,0,0,5.373,43.131h7.452A54.33,54.33,0,1,1,114.406,81.649h7.526a61.118,61.118,0,0,0,3.456-20.261" fill="#19538d"/>
            <path id="Trazado_998452" data-name="Trazado 998452" d="M108.562,81.649V84.98h4.37q.792-1.637,1.475-3.331Z" fill="#19538d"/>
            <path id="Trazado_998453" data-name="Trazado 998453" d="M128,81.649h-6.068q-.592,1.689-1.277,3.331H128Z" fill="#19538d"/>
          </g>
        </g>
        <path id="Trazado_998444" data-name="Trazado 998444" d="M3,37.025,0,43.131H18.134l3-6.106Z" fill="#62249e"/>
      </g>
    </g>
    <g id="Grupo_1184653" data-name="Grupo 1184653" transform="translate(419.141 8434.398)">
      <g id="Grupo_1184652" data-name="Grupo 1184652" clip-path="url(#clip-path-2)">
        <path id="Trazado_1002663" data-name="Trazado 1002663" d="M47.221,53.779c-.629.948.051,2.313-.186,3.424L30.5,57.159c-.263-1.124.217-2.329-.14-3.4-.881-2.641-2.9-4.638-2.681-7.627l-24.71.015A2.766,2.766,0,0,1,0,43.33V2.786A2.684,2.684,0,0,1,2.8,0H54.412a2.685,2.685,0,0,1,2.794,2.785l0,40.548a2.8,2.8,0,0,1-2.943,2.815L49.8,46.13c.072,1.637.307,3.293-.57,4.616ZM55.365,1.834H1.843v9.241H55.365ZM53.522,14.766V27.68H38.777a9.386,9.386,0,0,0,.02,1.851l14.725-.008v12.9l-3.682.016a13.538,13.538,0,0,0,.019,1.85l4.519-.006a.994.994,0,0,0,.987-1.019l0-30.347H1.847l0,30.347a1,1,0,0,0,1,1.026l24.773,0a5.318,5.318,0,0,0,0-1.839l-7.32-.02,0-12.913,12.882.008a9.8,9.8,0,0,0,.02-1.851H20.3l0-12.92ZM38.78,25.847l12.891-.009,0-9.229H22.143l0,9.237,11.123-.039a3.023,3.023,0,0,1,1.2-3.237,2.876,2.876,0,0,1,3.252.151c.95.724,1.078,1.839,1.058,3.127M47.973,48l.006-10.1a.917.917,0,0,0-1.015-.962.9.9,0,0,0-.823.957l-.014,1.763a12.564,12.564,0,0,1-1.819-.006l-.046-3.75a.858.858,0,0,0-.989-.809.9.9,0,0,0-.82.956l-.01,3.606a11.978,11.978,0,0,1-1.83,0l-.02-3.6a.916.916,0,1,0-1.83,0l-.01,3.607a10.388,10.388,0,0,1-1.841-.012L36.9,24.983a.92.92,0,1,0-1.837.006L35.055,45.12a11.3,11.3,0,0,1-1.806.035l-.037-3.421c-.046-4.249-4.961-5.532-5.419-4.56-.3.647,1.169,2.372,1.548,4.072.475,2.135-.173,5.621.527,7.071l2.346,4.861.175,2.131,12.786.062c.2-.739-.176-1.522.133-2.194.678-1.472,2.662-2.741,2.664-5.175M33.191,37.023l.029-5.653H22.141l.005,9.231,4.9-.071c-.766-1.782-1.9-3.085-.683-4.634,1.468-1.863,5.217-.474,6.825,1.127m16.608.517.046,3.037a9.943,9.943,0,0,0,1.827,0l0-9.2h-12.9a8.342,8.342,0,0,0,.055,2.021c1.035-.658,1.926.338,2.666.267.928-.088,1.774-.774,2.911-.29a5.012,5.012,0,0,1,1.738,1.75c1.655-.3,3.625.439,3.655,2.422" transform="translate(0 0)" fill="#19538d"/>
        <path id="Trazado_1002664" data-name="Trazado 1002664" d="M25.524,25.488H19.987v-5.55h5.537Zm-1.846-3.7H21.833v1.859h1.846Z" transform="translate(-16.298 -16.258)" fill="#19538d"/>
        <path id="Trazado_1002665" data-name="Trazado 1002665" d="M65.524,25.488H59.987v-5.55h5.537Zm-1.846-3.7H61.833v1.859h1.846Z" transform="translate(-48.916 -16.258)" fill="#19538d"/>
        <path id="Trazado_1002666" data-name="Trazado 1002666" d="M105.524,25.488H99.987v-5.55h5.537Zm-1.846-3.7h-1.846v1.859h1.846Z" transform="translate(-81.534 -16.258)" fill="#19538d"/>
        <rect id="Rectángulo_466276" data-name="Rectángulo 466276" width="22.147" height="1.859" transform="translate(27.681 18.444)" fill="#19538d"/>
        <rect id="Rectángulo_466277" data-name="Rectángulo 466277" width="9.228" height="1.859" transform="translate(40.6 22.135)" fill="#19538d"/>
        <rect id="Rectángulo_466278" data-name="Rectángulo 466278" width="7.382" height="1.859" transform="translate(23.99 22.135)" fill="#19538d"/>
        <rect id="Rectángulo_466279" data-name="Rectángulo 466279" width="1.846" height="1.859" transform="translate(23.99 18.444)" fill="#19538d"/>
        <path id="Trazado_1002667" data-name="Trazado 1002667" d="M42.906,92.87H29.987V79.938H42.906ZM31.833,91.025H41.06V81.784H31.833Z" transform="translate(-24.453 -65.185)" fill="#19538d"/>
        <path id="Trazado_1002668" data-name="Trazado 1002668" d="M46.2,100.2a9.351,9.351,0,0,0,1.344-1.4,4.8,4.8,0,0,0,1.249,1.217l3.934-3.96A6.933,6.933,0,0,0,54.077,97.4l-5.322,5.262Z" transform="translate(-37.672 -78.326)" fill="#19538d"/>
        <path id="Trazado_1002669" data-name="Trazado 1002669" d="M42.906,172.87H29.987V159.938H42.906Zm-11.073-1.846H41.06v-9.241H31.833Z" transform="translate(-24.453 -130.42)" fill="#19538d"/>
        <path id="Trazado_1002670" data-name="Trazado 1002670" d="M46.2,180.2a9.342,9.342,0,0,0,1.344-1.4,4.8,4.8,0,0,0,1.249,1.217l3.933-3.96a6.931,6.931,0,0,0,1.351,1.347l-5.322,5.262Z" transform="translate(-37.672 -143.561)" fill="#19538d"/>
      </g>
    </g>
  </g>
</svg>
