<svg xmlns="http://www.w3.org/2000/svg" xmlns:xlink="http://www.w3.org/1999/xlink" width="80" height="80" viewBox="0 0 80 80">
  <defs>
    <clipPath id="clip-path">
      <rect id="Rectángulo_466260" data-name="Rectángulo 466260" width="57.009" height="57.032" fill="#19538d"/>
    </clipPath>
  </defs>
  <g id="Grupo_1181217" data-name="Grupo 1181217" transform="translate(-705.629 -1685)">
    <g id="Grupo_1178970" data-name="Grupo 1178970" transform="translate(705.629 1685)">
      <path id="Sustracción_110" data-name="Sustracción 110" d="M80,80h0L32.943,80l-1.885-4.512H5.651L3.767,80H0V0H48.35l1.883,4.51H75.644L77.528,0H80V80Z" transform="translate(0)" fill="#ffd470"/>
    </g>
    <path id="Trazado_998456" data-name="Trazado 998456" d="M-3,0H18.647l2.824,6.588H-.176Z" transform="translate(763.217 1685)" fill="#19538d"/>
    <g id="Grupo_1184642" data-name="Grupo 1184642" transform="translate(717.125 1696.484)">
      <g id="Grupo_1184641" data-name="Grupo 1184641" clip-path="url(#clip-path)">
        <path id="Trazado_1002621" data-name="Trazado 1002621" d="M200.62,56.791c1.018.154,1.45.869,2.279,1.474.375-1.565-.66-5.284.923-5.24a.844.844,0,0,1,.807.922v4.626a1.612,1.612,0,0,1-.945,1.485c-1.432.628-2.136-1.053-3.22-1.585l-15.8-.033a2.158,2.158,0,0,1-2.22-2.181l-.008-8.915a2.189,2.189,0,0,1,2.245-2.258l17.608-.009a2.215,2.215,0,0,1,2.336,2.266l0,2.5a.843.843,0,0,1-.816.892.832.832,0,0,1-.85-.89l0-2.48c0-.391-.232-.561-.656-.624l-18.142.041.018,9.968Z" transform="translate(-149.922 -37.044)" fill="#19538d"/>
        <path id="Trazado_1002622" data-name="Trazado 1002622" d="M233.563,67.575a.864.864,0,0,1-1.019.614.8.8,0,0,1-.578-1.058l2.31-6.375a.848.848,0,0,1,1.052-.481.836.836,0,0,1,.476,1.113Z" transform="translate(-190.579 -49.503)" fill="#19538d"/>
        <path id="Trazado_1002623" data-name="Trazado 1002623" d="M210.142,68.432c.542.829,2.232,1.663,1.434,2.58-.834.958-2.1-.9-3.22-1.963a.9.9,0,0,1,.042-1.328c1.14-1.083,2.233-2.733,3.131-1.957a.75.75,0,0,1,.127,1Z" transform="translate(-170.997 -53.877)" fill="#19538d"/>
        <path id="Trazado_1002624" data-name="Trazado 1002624" d="M259.744,70.942a.849.849,0,0,1-1.3,0c-.722-.941.936-1.747,1.468-2.572l-1.419-1.491a.829.829,0,0,1-.082-1.026c.8-1.124,2.219.859,3.292,1.906a.9.9,0,0,1-.032,1.276Z" transform="translate(-212.23 -53.837)" fill="#19538d"/>
        <path id="Trazado_1002625" data-name="Trazado 1002625" d="M48.284,51l-3.188.061c-.262.212-.152.832-.082,1.24A2.4,2.4,0,0,1,47.6,54.434a2.3,2.3,0,0,1-2.185,2.548l-8.7.05a3.516,3.516,0,0,1-2.17-.936,5.99,5.99,0,0,1-3.028.927L4.451,57A4.413,4.413,0,0,1,.058,51.856l2.9-18.094c.694-4.338,5.441-4.083,6.878-4.9l3.492-1.984a.622.622,0,0,0,.313-.44c.043-.247-.109-.392-.352-.541a9.355,9.355,0,0,1-4.568-8.061,4.008,4.008,0,0,1-2-1.211c-1.1-1.251-.678-2.673.086-3.856-.725-3.384-.42-6.925,2.255-9.442a.825.825,0,0,1,1.1-.071c1.457,1.124-2.3,1.976-1.986,6.7.043.652-.061,1.454.357,1.915.389.014.938-.209,1.337-.035,3.746,1.628,8.4.811,11.713-1.325a1.689,1.689,0,0,1,2.337.289c1.1,1.323,2.176.81,3.723,1.086.589-2.734.412-6.4-2.9-7.273a2.169,2.169,0,0,1-1.147-.625C21.22,1.128,16.645,1.261,13.394,2.5a.917.917,0,0,1-1.141-.268.813.813,0,0,1,.377-1.208A13.336,13.336,0,0,1,20.648.286c1.876.335,2.928,1.757,4.393,2.479,2.252,1.11,3.948,2.344,4.428,5.08.273,1.555-.2,3.3-.068,4.87.084,1.033,1.277,1.879.486,3.177a3.341,3.341,0,0,1-2.419,1.863,9.315,9.315,0,0,1-4.757,8.163c-1.217.678,1.491,1.723,1.961,2.068a3.185,3.185,0,0,0,.071-1.084,2.25,2.25,0,0,1,2.528-2.215l27.59.016A2.161,2.161,0,0,1,57.006,26.9l0,21.888a2.2,2.2,0,0,1-2.3,2.232l-2.523-.007a.778.778,0,0,1-.806-.834.8.8,0,0,1,.818-.788l2.494-.013c.438,0,.659-.32.659-.768l-.007-21.648a.624.624,0,0,0-.684-.61l-27.576,0a.65.65,0,0,0-.7.738l.022,21.492a1.046,1.046,0,0,0,.174.631c.137.159.406.164.665.165l9.737.008-.066-10.934c0-.3-.655-.532-.423-.967a.907.907,0,0,1,.923-.625h6.955a.962.962,0,0,1,.947.551c.242.377-.313.635-.315,1.01L44.95,49.34c1.327.305,4.108-.549,4.158.809a.787.787,0,0,1-.823.852M22.318,24.2c4.062-2.63,3.488-6.689,3.406-10.74A4.674,4.674,0,0,1,22.6,11.877a15.332,15.332,0,0,1-12.211,1.98c-.106,1.418-.021,2.706,0,4.069a7.7,7.7,0,0,0,3.911,6.609,7.622,7.622,0,0,0,8.025-.33M8.627,13.691a1.188,1.188,0,0,0-.893,1.266,1.111,1.111,0,0,0,.909.992,8.981,8.981,0,0,0-.016-2.257m18.844,2.283a1.168,1.168,0,0,0,.93-1.125,1.14,1.14,0,0,0-.931-1.14,15.568,15.568,0,0,0,0,2.265M20.5,29.291a4.108,4.108,0,0,0,.182-2.5,8.817,8.817,0,0,1-5.266.02,3.244,3.244,0,0,0,.288,2.52,4.058,4.058,0,0,0,4.8-.041m-5.437,3.247-1.436-3.9a16.25,16.25,0,0,0-1.947,1.183,42.49,42.49,0,0,0,3.382,2.716m9.415-2.615A14.267,14.267,0,0,0,22.492,28.7l-1.424,3.878ZM14.413,44.682l7.311,0c1.631,0,.214,2.941,3,4.375l.025-17.091a4.656,4.656,0,0,0-1.416,1.045L23.31,38.29a.824.824,0,0,1-.812.809.782.782,0,0,1-.828-.8l-.082-3.866c-1.606.874-2.243,2.37-3.519,2.4-1.209.026-2.159-1.7-3.561-2.457l-.062,3.919a.774.774,0,0,1-.8.811.8.8,0,0,1-.814-.812l-.021-5.325L9.962,30.639c-2.212.7-4.929.7-5.363,3.4L1.713,51.979a2.8,2.8,0,0,0,2.774,3.362l7.8.016c.114-1.161.016-2.214.056-3.36a.824.824,0,0,0-.848-.967L6.03,51.006a.8.8,0,0,1-.835-.849c.024-1.037,1.3-.632,1.661-.874L8.521,38.316a.834.834,0,0,1,.964-.677.811.811,0,0,1,.669.859L8.587,49.317a4.706,4.706,0,0,0,3.1-.423c2.359-1.422,1.1-4.213,2.73-4.212m5.062-13.015a14.717,14.717,0,0,1-2.84-.014A19.67,19.67,0,0,0,18.094,35.2a23.208,23.208,0,0,0,1.381-3.535m23.78,6.83H38.69V52.328h4.565ZM22.886,49.907a6.793,6.793,0,0,1-1.819-3.53l-6.023-.013a6.872,6.872,0,0,1-1.831,3.546c.744,1.551,2.706.248,4.85,3.329,2.073-3.09,4.184-1.8,4.823-3.331m8.885,5.429a2.627,2.627,0,0,0,2.6-2.242,4.977,4.977,0,0,0-.207-2.073l-9.533,0a.829.829,0,0,0-.866.877c.026,1.18-.073,2.284.06,3.458Zm5.2-4.348-1,.048.063,1.318,1-.048ZM17.115,55.3a3.83,3.83,0,0,0-3.032-2.875,21.335,21.335,0,0,0-.009,2.908,16.711,16.711,0,0,0,3.041-.033m4.967.014-.031-2.894a3.64,3.64,0,0,0-3.013,2.886,15.625,15.625,0,0,0,3.044.008m23.21.056c.479-.176.645-.445.615-.776a.661.661,0,0,0-.673-.615h-8.7a.681.681,0,0,0-.7.783.733.733,0,0,0,.725.59Z" transform="translate(0 0)" fill="#19538d"/>
        <path id="Trazado_1002626" data-name="Trazado 1002626" d="M219.682,166.315a2.636,2.636,0,1,1-2.636-2.636,2.636,2.636,0,0,1,2.636,2.636m-1.683,0a.954.954,0,1,0-.954.954.953.953,0,0,0,.954-.954" transform="translate(-176.195 -134.506)" fill="#19538d"/>
        <path id="Trazado_1002627" data-name="Trazado 1002627" d="M162.791,257.256c.175,1.309-1.865.93-3.233.95a.831.831,0,0,1-.917-.634c-.061-.393.043-.9.559-.955.908-.095,1.776-.022,2.682-.041a.822.822,0,0,1,.909.68" transform="translate(-130.352 -210.838)" fill="#19538d"/>
        <path id="Trazado_1002628" data-name="Trazado 1002628" d="M190.371,257.386a.809.809,0,1,1-.808-.808.809.809,0,0,1,.808.808" transform="translate(-155.111 -210.847)" fill="#19538d"/>
      </g>
    </g>
  </g>
</svg>
