<svg xmlns="http://www.w3.org/2000/svg" xmlns:xlink="http://www.w3.org/1999/xlink" width="128" height="128" viewBox="0 0 128 128">
  <defs>
    <clipPath id="clip-path">
      <rect id="Rectángulo_455533" data-name="Rectángulo 455533" width="128" height="122.776" fill="#19538d"/>
    </clipPath>
    <clipPath id="clip-path-2">
      <rect id="Rectángulo_466261" data-name="Rectángulo 466261" width="64.574" height="64.551" fill="#19538d"/>
    </clipPath>
  </defs>
  <g id="Grupo_1183665" data-name="Grupo 1183665" transform="translate(-383.746 -8399)">
    <circle id="Elipse_13674" data-name="Elipse 13674" cx="54.5" cy="54.5" r="54.5" transform="translate(392.746 8409)" fill="#fff"/>
    <g id="Grupo_1179062" data-name="Grupo 1179062" transform="translate(272)">
      <rect id="Rectángulo_455531" data-name="Rectángulo 455531" width="128" height="128" transform="translate(111.746 8399)" fill="none"/>
      <g id="Grupo_1179061" data-name="Grupo 1179061" transform="translate(111.746 8402)">
        <path id="Trazado_998445" data-name="Trazado 998445" d="M120.883,97.46H96.727L100,91.354h24.156Z" fill="#62249e"/>
        <path id="Trazado_998446" data-name="Trazado 998446" d="M1.985,86.893,0,90.934H26.632l1.986-4.041Z" fill="#19538d"/>
        <path id="Trazado_998447" data-name="Trazado 998447" d="M124.314,32.5H98.809l2-4.529h25.505Z" fill="#19538d"/>
        <path id="Trazado_998448" data-name="Trazado 998448" d="M36.988,12.75H3.483l2-4.529h33.5Z" fill="#19538d"/>
        <g id="Grupo_1179060" data-name="Grupo 1179060">
          <g id="Grupo_1179059" data-name="Grupo 1179059" clip-path="url(#clip-path)">
            <path id="Trazado_998449" data-name="Trazado 998449" d="M64,115.717a54.31,54.31,0,0,1-52.948-66.48H3.82A61.384,61.384,0,0,0,111.812,99.874h-9.469A54.154,54.154,0,0,1,64,115.717" fill="#19538d"/>
            <path id="Trazado_998450" data-name="Trazado 998450" d="M110.835,88.914h8.033c.645-1.284,1.231-2.6,1.787-3.934h-7.723c-.649,1.342-1.344,2.656-2.1,3.934" fill="#19538d"/>
            <path id="Trazado_998451" data-name="Trazado 998451" d="M125.388,61.388A61.4,61.4,0,0,0,5.373,43.131h7.452A54.33,54.33,0,1,1,114.406,81.649h7.526a61.118,61.118,0,0,0,3.456-20.261" fill="#19538d"/>
            <path id="Trazado_998452" data-name="Trazado 998452" d="M108.562,81.649V84.98h4.37q.792-1.637,1.475-3.331Z" fill="#19538d"/>
            <path id="Trazado_998453" data-name="Trazado 998453" d="M128,81.649h-6.068q-.592,1.689-1.277,3.331H128Z" fill="#19538d"/>
          </g>
        </g>
        <path id="Trazado_998444" data-name="Trazado 998444" d="M3,37.025,0,43.131H18.134l3-6.106Z" fill="#62249e"/>
      </g>
    </g>
    <g id="Grupo_1184644" data-name="Grupo 1184644" transform="translate(420.246 8430.725)">
      <g id="Grupo_1184643" data-name="Grupo 1184643" clip-path="url(#clip-path-2)">
        <path id="Trazado_1002629" data-name="Trazado 1002629" d="M46.666,57.728l-.05,5.614a1.217,1.217,0,0,1-1.268,1.209l-44.081,0A1.286,1.286,0,0,1,0,63.1L0,8.1A1.148,1.148,0,0,1,1.017,6.867l7.027-.044.027-5.438A1.265,1.265,0,0,1,9.321,0l44.1,0a1.19,1.19,0,0,1,1.266,1.208l.048,15.279a4.8,4.8,0,0,0,.855-1.3,4.812,4.812,0,0,1,6.434-1.85A4.72,4.72,0,0,1,63.97,19.8L54.707,35.911l-.013,20.551a1.214,1.214,0,0,1-1.232,1.254ZM8.073,56.346l0-23.261a1.264,1.264,0,0,1,1.285-1.32,1.239,1.239,0,0,1,1.228,1.187l.024,22.308,25.59-.021,1.15-8.426L52.231,20.992,52.2,2.565,10.606,2.558,10.6,21.521a1.3,1.3,0,0,1-1.222,1.393,1.28,1.28,0,0,1-1.3-1.337L8.057,9.315l-5.53.044.005,52.655,41.6,0-.012-4.292L9.3,57.713a1.233,1.233,0,0,1-1.225-1.367m53.05-36.684a5.18,5.18,0,0,0,.762-1.347,2.245,2.245,0,0,0-1.341-2.887c-2.123-.846-3.419,1.872-3.174,2.036,1.224.822,2.451,1.45,3.753,2.2M55.95,19.6,40.288,46.73l3.942,2.276L59.893,21.875ZM41.127,55.2l11.094.059L52.2,40.287l-6.53,11.221Zm1.233-4.322a23.614,23.614,0,0,0-2.771-1.606,24.329,24.329,0,0,0-.46,4.1Z" transform="translate(0 0.001)" fill="#19538d"/>
        <path id="Trazado_1002630" data-name="Trazado 1002630" d="M117.943,49.072l-5.548,0c-.773,1.048-.955,4.012-2.737,3.312-1.605-.631-.229-2.443-.1-3.395a1.414,1.414,0,0,1-.6-1.677,1.441,1.441,0,0,1,1.625-.769l3.4-8.385a1.256,1.256,0,0,1,2.345,0l3.386,8.364a1.468,1.468,0,0,1,1.629.784,1.408,1.408,0,0,1-.608,1.683c.171,1,1.515,2.756-.094,3.389a1.218,1.218,0,0,1-1.577-.648ZM116.935,46.5l-1.8-4.345a44.116,44.116,0,0,0-1.729,4.347,31.344,31.344,0,0,0,3.526,0" transform="translate(-86.905 -29.816)" fill="#19538d"/>
        <path id="Trazado_1002631" data-name="Trazado 1002631" d="M116.608,131.758l-22.819.007a1.324,1.324,0,0,1-1.355-1.295,1.3,1.3,0,0,1,1.349-1.265l22.926.011a1.265,1.265,0,0,1,1.22,1.252,1.3,1.3,0,0,1-1.32,1.29" transform="translate(-73.786 -103.14)" fill="#19538d"/>
        <path id="Trazado_1002632" data-name="Trazado 1002632" d="M108.746,186.753l-14.972.011a1.324,1.324,0,0,1-1.347-1.292,1.3,1.3,0,0,1,1.341-1.262l14.9,0a1.3,1.3,0,0,1,1.35,1.112,1.281,1.281,0,0,1-1.27,1.433" transform="translate(-73.781 -147.047)" fill="#19538d"/>
        <path id="Trazado_1002633" data-name="Trazado 1002633" d="M169.151,39.019c-.392.137.264,1.733-.67,2.367a1.3,1.3,0,0,1-1.473-.021c-.789-.535-.338-1.894-.57-2.3-.187-.324-1.764.271-2.355-.64a1.368,1.368,0,0,1,.024-1.46c.474-.769,1.881-.346,2.272-.559.368-.2-.217-1.821.642-2.353a1.358,1.358,0,0,1,1.455-.023c.821.542.424,1.828.573,2.3.134.427,1.755-.27,2.365.626a1.3,1.3,0,0,1,.025,1.467c-.553.818-1.729.4-2.287.592" transform="translate(-130.822 -27.007)" fill="#19538d"/>
        <path id="Trazado_1002634" data-name="Trazado 1002634" d="M101.638,159.257l-7.879.012a1.238,1.238,0,0,1-1.311-1.159,1.168,1.168,0,0,1,1.114-1.291l7.871-.025a1.246,1.246,0,0,1,1.4,1.144,1.217,1.217,0,0,1-1.193,1.32" transform="translate(-73.795 -125.162)" fill="#19538d"/>
        <path id="Trazado_1002635" data-name="Trazado 1002635" d="M101.632,214.436l-7.875.014a1.247,1.247,0,1,1,0-2.491l7.871.015a1.231,1.231,0,0,1,0,2.462" transform="translate(-73.792 -169.199)" fill="#19538d"/>
        <path id="Trazado_1002636" data-name="Trazado 1002636" d="M171.835,159.231l-3.138.006a1.251,1.251,0,0,1-1.315-.975,1.165,1.165,0,0,1,.9-1.442c1.153-.133,2.284,0,3.445-.066a1.231,1.231,0,0,1,1.41,1.142,1.216,1.216,0,0,1-1.3,1.335" transform="translate(-133.595 -125.128)" fill="#19538d"/>
        <path id="Trazado_1002637" data-name="Trazado 1002637" d="M42.554,130.56a1.25,1.25,0,1,1-1.25-1.25,1.25,1.25,0,0,1,1.25,1.25" transform="translate(-31.974 -103.224)" fill="#19538d"/>
      </g>
    </g>
  </g>
</svg>
