<svg xmlns="http://www.w3.org/2000/svg" xmlns:xlink="http://www.w3.org/1999/xlink" width="80" height="80" viewBox="0 0 80 80">
  <defs>
    <clipPath id="clip-path">
      <rect id="Rectángulo_466259" data-name="Rectángulo 466259" width="44.639" height="53.311" fill="#19538d"/>
    </clipPath>
  </defs>
  <g id="Grupo_1183651" data-name="Grupo 1183651" transform="translate(-705.629 -1685)">
    <g id="Grupo_1178970" data-name="Grupo 1178970" transform="translate(705.629 1685)">
      <path id="Sustracción_110" data-name="Sustracción 110" d="M80,80h0L32.943,80l-1.885-4.512H5.651L3.767,80H0V0H48.35l1.883,4.51H75.644L77.528,0H80V80Z" transform="translate(0)" fill="#ffd470"/>
    </g>
    <path id="Trazado_998456" data-name="Trazado 998456" d="M-3,0H18.647l2.824,6.588H-.176Z" transform="translate(763.217 1685)" fill="#19538d"/>
    <g id="Grupo_1184640" data-name="Grupo 1184640" transform="translate(723.31 1698.344)">
      <g id="Grupo_1184639" data-name="Grupo 1184639" clip-path="url(#clip-path)">
        <path id="Trazado_1002617" data-name="Trazado 1002617" d="M111.866,215.355a3.515,3.515,0,1,1-3.515-3.515,3.515,3.515,0,0,1,3.515,3.515m-1.572,0a1.942,1.942,0,1,0-1.942,1.942,1.942,1.942,0,0,0,1.942-1.942" transform="translate(-86.034 -173.848)" fill="#19538d"/>
        <path id="Trazado_1002618" data-name="Trazado 1002618" d="M39.946,40.254l-.032,10.618a2.326,2.326,0,0,1-2.231,2.422l-30.576.018a2.3,2.3,0,0,1-2.365-2.265l-.049-10.79a4.61,4.61,0,0,0-2.164,3.357l-.98,8.855a.8.8,0,0,1-.826.817.811.811,0,0,1-.715-1l.826-8.029A6.935,6.935,0,0,1,4.708,38.4l.006-6.213a2.349,2.349,0,0,1,2.361-2.473l7.554-.025a16.385,16.385,0,0,1-3.2-5.472,4.148,4.148,0,0,1-3.347-1.186,4.294,4.294,0,0,1-1.13-3.528,2.925,2.925,0,0,1,3.039-2.625C8.737,12.636,8.113,7.074,12.222,4.536,13.734.914,17.37-.131,20.992.014a61.806,61.806,0,0,1,7.234.834c5.15.81,5.965-1.152,6.818-.793,1.311.55-.394,3.517-.829,4.5.964.2,1.482-.8,2.26-.39,1.053.561-.577,3.453-1.228,4.228.683,2.875.24,5.451-.6,8.486a2.929,2.929,0,0,1,3.062,2.786,4.319,4.319,0,0,1-1.149,3.369,4.211,4.211,0,0,1-3.35,1.185,16.172,16.172,0,0,1-3.185,5.444l7.536.049a2.35,2.35,0,0,1,2.362,2.477l.011,6.206a6.789,6.789,0,0,1,3.828,5.57l.871,8.321a.816.816,0,0,1-.718.993c-.425.03-.767-.276-.826-.815l-.982-8.853a4.606,4.606,0,0,0-2.16-3.362M20.77,9.282a13.393,13.393,0,0,0,4.609,2.032c-.069-.705-.641-1.676-.114-2.094.681-.54,2.541.56,5.194.123a5.5,5.5,0,0,0,4.29-3.113c-.887-.046-2.676-.014-2.842-.882-.16-.833,1.385-1.621,1.623-3.133a11.164,11.164,0,0,1-4.656.3l-6.007-.8c-3.584-.478-8.12-.081-9.385,3.917C9.617,7.49,10.445,13.1,11.555,16.479A4.97,4.97,0,0,0,13.71,13.36l.463-3.3a.769.769,0,0,1,1.1-.572,12.216,12.216,0,0,0,4.514,1.9c.013-.656-.636-1.581-.016-2.092a.849.849,0,0,1,1-.022m12.344,7.176a15.471,15.471,0,0,0,.756-6.75,9.164,9.164,0,0,1-3.27,1.211c.236,2.5.367,4.027,2.515,5.539M12.092,19.769a14.173,14.173,0,0,0,4.846,9.936H27.693A14.481,14.481,0,0,0,32.6,19.477a1.879,1.879,0,0,0-.7-1.891,6.546,6.546,0,0,1-2.486-3.775l-.437-2.753a12.536,12.536,0,0,0-1.885-.142c.243.752,1.24,1.243.669,2.078s-5.189-.834-6.1-1.317c1.409,3.193-5.026.418-6.019-.118-.5,2.657-.582,4.014-2.823,5.953a1.953,1.953,0,0,0-.727,2.257m-1.7-1.142a1.351,1.351,0,0,0-1.551.269,2.375,2.375,0,0,0,.02,2.582A2.185,2.185,0,0,0,10.9,22.615c-.215-1.286-.381-2.7-.5-3.989m25.488.379c-.221-.485-1.52-.752-1.612-.287-.257,1.294-.218,2.529-.569,3.864a2.038,2.038,0,0,0,2-1,2.51,2.51,0,0,0,.182-2.578M38.341,31.3H6.294V51.728H38.341Z" transform="translate(0 -0.001)" fill="#19538d"/>
        <path id="Trazado_1002619" data-name="Trazado 1002619" d="M90.309,97.834c-2.267.01-2.25-1.957-2.494-3.385a5.445,5.445,0,0,0-1.609,0c-.232,1.453-.269,3.377-2.414,3.378H81.261c-2.235,0-2.225-2.346-2.41-3.832a2.16,2.16,0,0,1,2.232-2.424h2.89a2.223,2.223,0,0,1,2.012,1.152,4.9,4.9,0,0,0,2.06,0,2.2,2.2,0,0,1,2.01-1.15c1.035,0,2.032-.037,3.061.015a2.17,2.17,0,0,1,2.053,2.549l-.242,1.727a2.175,2.175,0,0,1-2.171,1.957Zm-6-1.66c.161-.745.537-2.613.182-2.84a13.606,13.606,0,0,0-4.01-.054,7.535,7.535,0,0,0,.34,2.892,19.191,19.191,0,0,0,3.487,0m8.953-.023a8.962,8.962,0,0,0,.283-2.877,24.559,24.559,0,0,0-3.665-.074c-.964.008-.255,2.421-.1,2.977a16.725,16.725,0,0,0,3.483-.026" transform="translate(-64.695 -75.143)" fill="#19538d"/>
        <path id="Trazado_1002620" data-name="Trazado 1002620" d="M105.039,141.767c3.878,1.666,5.538-1.12,6.2.482a.8.8,0,0,1-.489.969c-3.111,1.378-7.293.315-6.777-.97a.78.78,0,0,1,1.065-.481" transform="translate(-85.292 -116.284)" fill="#19538d"/>
      </g>
    </g>
  </g>
</svg>
