<svg xmlns="http://www.w3.org/2000/svg" xmlns:xlink="http://www.w3.org/1999/xlink" width="128" height="128" viewBox="0 0 128 128">
  <defs>
    <clipPath id="clip-path">
      <rect id="Rectángulo_455533" data-name="Rectángulo 455533" width="128" height="122.776" fill="#19538d"/>
    </clipPath>
    <clipPath id="clip-path-2">
      <rect id="Rectángulo_466264" data-name="Rectángulo 466264" width="56.029" height="55.953" fill="#19538d"/>
    </clipPath>
  </defs>
  <g id="Grupo_1183666" data-name="Grupo 1183666" transform="translate(-383.746 -8399)">
    <circle id="Elipse_13674" data-name="Elipse 13674" cx="54.5" cy="54.5" r="54.5" transform="translate(392.746 8409)" fill="#fff"/>
    <g id="Grupo_1179062" data-name="Grupo 1179062" transform="translate(272)">
      <rect id="Rectángulo_455531" data-name="Rectángulo 455531" width="128" height="128" transform="translate(111.746 8399)" fill="none"/>
      <g id="Grupo_1179061" data-name="Grupo 1179061" transform="translate(111.746 8402)">
        <path id="Trazado_998445" data-name="Trazado 998445" d="M120.883,97.46H96.727L100,91.354h24.156Z" fill="#62249e"/>
        <path id="Trazado_998446" data-name="Trazado 998446" d="M1.985,86.893,0,90.934H26.632l1.986-4.041Z" fill="#19538d"/>
        <path id="Trazado_998447" data-name="Trazado 998447" d="M124.314,32.5H98.809l2-4.529h25.505Z" fill="#19538d"/>
        <path id="Trazado_998448" data-name="Trazado 998448" d="M36.988,12.75H3.483l2-4.529h33.5Z" fill="#19538d"/>
        <g id="Grupo_1179060" data-name="Grupo 1179060">
          <g id="Grupo_1179059" data-name="Grupo 1179059" clip-path="url(#clip-path)">
            <path id="Trazado_998449" data-name="Trazado 998449" d="M64,115.717a54.31,54.31,0,0,1-52.948-66.48H3.82A61.384,61.384,0,0,0,111.812,99.874h-9.469A54.154,54.154,0,0,1,64,115.717" fill="#19538d"/>
            <path id="Trazado_998450" data-name="Trazado 998450" d="M110.835,88.914h8.033c.645-1.284,1.231-2.6,1.787-3.934h-7.723c-.649,1.342-1.344,2.656-2.1,3.934" fill="#19538d"/>
            <path id="Trazado_998451" data-name="Trazado 998451" d="M125.388,61.388A61.4,61.4,0,0,0,5.373,43.131h7.452A54.33,54.33,0,1,1,114.406,81.649h7.526a61.118,61.118,0,0,0,3.456-20.261" fill="#19538d"/>
            <path id="Trazado_998452" data-name="Trazado 998452" d="M108.562,81.649V84.98h4.37q.792-1.637,1.475-3.331Z" fill="#19538d"/>
            <path id="Trazado_998453" data-name="Trazado 998453" d="M128,81.649h-6.068q-.592,1.689-1.277,3.331H128Z" fill="#19538d"/>
          </g>
        </g>
        <path id="Trazado_998444" data-name="Trazado 998444" d="M3,37.025,0,43.131H18.134l3-6.106Z" fill="#62249e"/>
      </g>
    </g>
    <g id="Grupo_1184648" data-name="Grupo 1184648" transform="translate(419.732 8435.023)">
      <g id="Grupo_1184647" data-name="Grupo 1184647" clip-path="url(#clip-path-2)">
        <path id="Trazado_1002651" data-name="Trazado 1002651" d="M32.671,33.4c-.084,1.451-1.858,1.462-3.039,1.292a1.38,1.38,0,0,1-1.166-1.29,1.3,1.3,0,0,1,1.026-1.363,8.745,8.745,0,0,1,2.015-.019,1.313,1.313,0,0,1,1.163,1.38" transform="translate(-23.48 -26.37)" fill="#19538d"/>
        <path id="Trazado_1002652" data-name="Trazado 1002652" d="M96.53,33.256C96.456,34.77,94.444,34.7,93.4,34.49a1.355,1.355,0,0,1-1.06-1.39c.076-1.513,2.054-1.423,3.2-1.224a1.274,1.274,0,0,1,.991,1.38" transform="translate(-76.169 -26.204)" fill="#19538d"/>
        <path id="Trazado_1002653" data-name="Trazado 1002653" d="M53.284,13.3H2.752L2.737,40.392a3.254,3.254,0,0,0,3.05,3.31l6.119.007a1.362,1.362,0,1,1,0,2.723l-5.962-.007A5.944,5.944,0,0,1,0,40.4L.015,5.932A5.973,5.973,0,0,1,6.14,0L50.064.02a5.917,5.917,0,0,1,5.951,5.908L56.029,40.4a5.946,5.946,0,0,1-5.944,6.031H45.168a1.357,1.357,0,1,1,.008-2.714l4.907-.01a3.248,3.248,0,0,0,3.209-3.312Zm-.032-2.7.038-4.534a3.2,3.2,0,0,0-3.057-3.3H5.8a3.192,3.192,0,0,0-3.064,3.3c.021,1.582-.053,3.009.046,4.535Z" transform="translate(0 0)" fill="#19538d"/>
        <path id="Trazado_1002654" data-name="Trazado 1002654" d="M63.609,34.651c-1.083.228-3.1.3-3.184-1.236A1.308,1.308,0,0,1,61.6,32.03a10.554,10.554,0,0,1,1.873,0,1.281,1.281,0,0,1,1.144,1.235,1.3,1.3,0,0,1-1,1.388" transform="translate(-49.843 -26.386)" fill="#19538d"/>
        <path id="Trazado_1002655" data-name="Trazado 1002655" d="M87.848,145.256a6,6,0,0,1-11.376.014l-9.717-.065c-.733,0-1.09-.789-1.118-1.312a1.651,1.651,0,0,1,1.093-1.526,9.36,9.36,0,0,0,5.441-7.866l.047-7.182a9.708,9.708,0,0,1,5.339-8.506,4.713,4.713,0,0,1,4.387-5.59,4.623,4.623,0,0,1,4.833,5.017c.061.282-.059.731.233.908a9.75,9.75,0,0,1,4.781,8.349l.03,6.665c.016,3.714,2.431,6.672,5.745,8.191a1.721,1.721,0,0,1,1.1,1.367c.038.611-.32,1.479-1.107,1.483ZM84.085,117.88a1.914,1.914,0,0,0-2.009-1.932A1.879,1.879,0,0,0,80.25,117.9a16.48,16.48,0,0,1,3.834-.023m8.771,24.651a11.915,11.915,0,0,1-3.79-8.549l-.021-6.844a7.049,7.049,0,0,0-6.977-6.662c-3.606-.036-7.042,2.728-7.073,6.495l-.061,7.369a11.934,11.934,0,0,1-3.628,8.2Zm-8.131,2.78a42.487,42.487,0,0,0-5.141,0,3.171,3.171,0,0,0,5.141,0" transform="translate(-54.141 -93.391)" fill="#19538d"/>
        <path id="Trazado_1002656" data-name="Trazado 1002656" d="M222.714,108.583a1.343,1.343,0,0,1-1.886-.021c-1.253-1.252.708-2.645,1.946-3.867a1.357,1.357,0,1,1,1.921,1.917Z" transform="translate(-181.826 -86.028)" fill="#19538d"/>
        <path id="Trazado_1002657" data-name="Trazado 1002657" d="M77.139,106.664a1.357,1.357,0,0,1-1.949,1.888l-1.853-1.843a1.37,1.37,0,0,1-.09-2.011,1.352,1.352,0,0,1,1.927-.006Z" transform="translate(-60.092 -86.028)" fill="#19538d"/>
        <path id="Trazado_1002658" data-name="Trazado 1002658" d="M53.428,173.3l-2.567,0a1.381,1.381,0,0,1-1.5-1.226A1.345,1.345,0,0,1,50.68,170.6h2.83a1.351,1.351,0,1,1-.082,2.7" transform="translate(-40.715 -140.729)" fill="#19538d"/>
        <path id="Trazado_1002659" data-name="Trazado 1002659" d="M243.369,173.289l-2.572.006a1.4,1.4,0,0,1-1.506-1.2,1.344,1.344,0,0,1,1.336-1.509l2.819,0a1.351,1.351,0,1,1-.077,2.7" transform="translate(-197.381 -140.714)" fill="#19538d"/>
      </g>
    </g>
  </g>
</svg>
