<svg xmlns="http://www.w3.org/2000/svg" xmlns:xlink="http://www.w3.org/1999/xlink" width="128" height="128" viewBox="0 0 128 128">
  <defs>
    <clipPath id="clip-path">
      <rect id="Rectángulo_455533" data-name="Rectángulo 455533" width="128" height="122.776" fill="#19538d"/>
    </clipPath>
    <clipPath id="clip-path-2">
      <rect id="Rectángulo_466275" data-name="Rectángulo 466275" width="67.504" height="67.506" fill="#19538d"/>
    </clipPath>
  </defs>
  <g id="Grupo_1183669" data-name="Grupo 1183669" transform="translate(-383.746 -8399)">
    <circle id="Elipse_13674" data-name="Elipse 13674" cx="54.5" cy="54.5" r="54.5" transform="translate(392.746 8409)" fill="#fff"/>
    <g id="Grupo_1179062" data-name="Grupo 1179062" transform="translate(272)">
      <rect id="Rectángulo_455531" data-name="Rectángulo 455531" width="128" height="128" transform="translate(111.746 8399)" fill="none"/>
      <g id="Grupo_1179061" data-name="Grupo 1179061" transform="translate(111.746 8402)">
        <path id="Trazado_998445" data-name="Trazado 998445" d="M120.883,97.46H96.727L100,91.354h24.156Z" fill="#62249e"/>
        <path id="Trazado_998446" data-name="Trazado 998446" d="M1.985,86.893,0,90.934H26.632l1.986-4.041Z" fill="#19538d"/>
        <path id="Trazado_998447" data-name="Trazado 998447" d="M124.314,32.5H98.809l2-4.529h25.505Z" fill="#19538d"/>
        <path id="Trazado_998448" data-name="Trazado 998448" d="M36.988,12.75H3.483l2-4.529h33.5Z" fill="#19538d"/>
        <g id="Grupo_1179060" data-name="Grupo 1179060">
          <g id="Grupo_1179059" data-name="Grupo 1179059" clip-path="url(#clip-path)">
            <path id="Trazado_998449" data-name="Trazado 998449" d="M64,115.717a54.31,54.31,0,0,1-52.948-66.48H3.82A61.384,61.384,0,0,0,111.812,99.874h-9.469A54.154,54.154,0,0,1,64,115.717" fill="#19538d"/>
            <path id="Trazado_998450" data-name="Trazado 998450" d="M110.835,88.914h8.033c.645-1.284,1.231-2.6,1.787-3.934h-7.723c-.649,1.342-1.344,2.656-2.1,3.934" fill="#19538d"/>
            <path id="Trazado_998451" data-name="Trazado 998451" d="M125.388,61.388A61.4,61.4,0,0,0,5.373,43.131h7.452A54.33,54.33,0,1,1,114.406,81.649h7.526a61.118,61.118,0,0,0,3.456-20.261" fill="#19538d"/>
            <path id="Trazado_998452" data-name="Trazado 998452" d="M108.562,81.649V84.98h4.37q.792-1.637,1.475-3.331Z" fill="#19538d"/>
            <path id="Trazado_998453" data-name="Trazado 998453" d="M128,81.649h-6.068q-.592,1.689-1.277,3.331H128Z" fill="#19538d"/>
          </g>
        </g>
        <path id="Trazado_998444" data-name="Trazado 998444" d="M3,37.025,0,43.131H18.134l3-6.106Z" fill="#62249e"/>
      </g>
    </g>
    <g id="Grupo_1184651" data-name="Grupo 1184651" transform="translate(416.872 8428.247)">
      <rect id="Rectángulo_466265" data-name="Rectángulo 466265" width="2.177" height="2.193" transform="translate(45.718 28.299)" fill="#19538d"/>
      <rect id="Rectángulo_466266" data-name="Rectángulo 466266" width="2.177" height="2.193" transform="translate(50.073 28.299)" fill="#19538d"/>
      <rect id="Rectángulo_466267" data-name="Rectángulo 466267" width="2.177" height="2.193" transform="translate(45.718 41.364)" fill="#19538d"/>
      <rect id="Rectángulo_466268" data-name="Rectángulo 466268" width="2.177" height="2.193" transform="translate(50.073 41.364)" fill="#19538d"/>
      <rect id="Rectángulo_466269" data-name="Rectángulo 466269" width="2.177" height="2.193" transform="translate(45.718 54.428)" fill="#19538d"/>
      <rect id="Rectángulo_466270" data-name="Rectángulo 466270" width="2.177" height="2.193" transform="translate(50.073 54.428)" fill="#19538d"/>
      <g id="Grupo_1184650" data-name="Grupo 1184650">
        <g id="Grupo_1184649" data-name="Grupo 1184649" clip-path="url(#clip-path-2)">
          <path id="Trazado_1002660" data-name="Trazado 1002660" d="M64.2,47.9a3.236,3.236,0,0,1-3.251-3.255V40.264a3.245,3.245,0,0,1,3.231-3.254,13.726,13.726,0,0,0,0-2.18,3.24,3.24,0,0,1-3.232-3.252v-4.6a3.185,3.185,0,0,1,3.035-2.993l8.934-.033L72.9,11.978a1.121,1.121,0,0,0-1.3-1.091L51.029,10.9a5.425,5.425,0,0,1-5.33,4.336l-6.534.009.006,4.411a7.691,7.691,0,0,1,5.821,4.326,5.445,5.445,0,1,1,.7,10.846H30.452a5.447,5.447,0,1,1,.693-10.851,7.667,7.667,0,0,1,5.79-4.3l.051-4.437-6.544-.007A5.448,5.448,0,1,1,31.15,4.383a7.651,7.651,0,0,1,13.837,0A5.433,5.433,0,0,1,51.028,8.7L71.6,8.718a3.26,3.26,0,0,1,3.493,3.246l0,11.994,8.5-.02a3.323,3.323,0,0,1,3.477,3.267l-.008,4.369a3.233,3.233,0,0,1-3.233,3.253,13.48,13.48,0,0,0,0,2.183,3.249,3.249,0,0,1,3.224,3.254c.008,1.554.059,3.043-.02,4.587a3.217,3.217,0,0,1-3.2,3.041,12.793,12.793,0,0,0,0,2.182,3.241,3.241,0,0,1,3.23,3.253v4.384a3.23,3.23,0,0,1-3.265,3.249H64.212a3.235,3.235,0,0,1-3.273-3.249l-.02-3.941a3.4,3.4,0,0,1,3.265-3.7ZM45.8,13.045a3.2,3.2,0,0,0,2.99-2.246A3.239,3.239,0,0,0,47.7,7.224c-1.193-.93-2.587-.834-4.095-.1a5.566,5.566,0,0,0-11.063,0c-1.571-.783-3.046-.807-4.218.2a3.265,3.265,0,0,0-.853,3.79,3.382,3.382,0,0,0,3.215,1.964Zm0,19.6a3.2,3.2,0,0,0,2.99-2.246A3.239,3.239,0,0,0,47.7,26.821c-1.192-.931-2.586-.834-4.094-.1a5.566,5.566,0,0,0-11.063,0c-1.571-.783-3.046-.807-4.218.2a3.264,3.264,0,0,0-.853,3.79,3.384,3.384,0,0,0,3.215,1.964Zm38.065.023a1.108,1.108,0,0,0,1-1.1V27.209a1.062,1.062,0,0,0-1.086-1.076l-19.565,0a1.056,1.056,0,0,0-1.086,1.075l-.013,4.353a1.143,1.143,0,0,0,1.106,1.1Zm-2.245,2.166H66.38v2.193H81.621Zm2.245,10.9a1.108,1.108,0,0,0,1-1.1V40.273A1.061,1.061,0,0,0,83.783,39.2l-19.565,0a1.056,1.056,0,0,0-1.086,1.075l-.013,4.353a1.143,1.143,0,0,0,1.106,1.1ZM81.621,47.9H66.38v2.193H81.621Zm2.245,10.9a1.108,1.108,0,0,0,1-1.1V53.338a1.062,1.062,0,0,0-1.086-1.076l-19.565,0a1.056,1.056,0,0,0-1.086,1.075l-.013,4.353a1.143,1.143,0,0,0,1.106,1.1Z" transform="translate(-19.572 0)" fill="#19538d"/>
          <path id="Trazado_1002661" data-name="Trazado 1002661" d="M29.354,200.466l-19.511,0a13.1,13.1,0,0,1-.042-2.186l3.225-.006a15.441,15.441,0,0,0,.012-2.164L3.251,196.1A3.229,3.229,0,0,1,0,192.829L0,173.25a3.262,3.262,0,0,1,3.491-3.276H35.685a3.263,3.263,0,0,1,3.49,3.278l0,19.578a3.228,3.228,0,0,1-3.25,3.269l-9.788.016a15.376,15.376,0,0,0,.013,2.164l3.223.005a17.837,17.837,0,0,1-.022,2.184M37.013,187.4l-.005-14.148a1.106,1.106,0,0,0-1.117-1.093l-32.6,0a1.072,1.072,0,0,0-1.106,1.091L2.171,187.41Zm-1.047,6.536c1.639-.032.883-3.211,1.023-4.355H2.191l-.012,3.252a1.137,1.137,0,0,0,1.117,1.1ZM23.944,196.1h-8.71v2.193h8.71Z" transform="translate(0 -132.963)" fill="#19538d"/>
          <path id="Trazado_1002662" data-name="Trazado 1002662" d="M113.031,200.87H99.967v-10.9h13.064Zm-2.177-8.725h-8.71v6.548h8.71Z" transform="translate(-78.2 -148.603)" fill="#19538d"/>
          <rect id="Rectángulo_466271" data-name="Rectángulo 466271" width="15.242" height="2.193" transform="translate(4.348 45.718)" fill="#19538d"/>
          <rect id="Rectángulo_466272" data-name="Rectángulo 466272" width="15.242" height="2.193" transform="translate(4.348 50.073)" fill="#19538d"/>
          <rect id="Rectángulo_466273" data-name="Rectángulo 466273" width="10.887" height="2.193" transform="translate(8.702 41.364)" fill="#19538d"/>
          <rect id="Rectángulo_466274" data-name="Rectángulo 466274" width="2.177" height="2.193" transform="translate(4.348 41.364)" fill="#19538d"/>
        </g>
      </g>
    </g>
  </g>
</svg>
