<svg xmlns="http://www.w3.org/2000/svg" xmlns:xlink="http://www.w3.org/1999/xlink" width="69.323" height="69.323" viewBox="0 0 69.323 69.323">
  <defs>
    <clipPath id="clip-path">
      <rect id="Rectángulo_466217" data-name="Rectángulo 466217" width="52.116" height="52.109" transform="translate(0 0)" fill="#fff"/>
    </clipPath>
  </defs>
  <g id="Grupo_1184654" data-name="Grupo 1184654" transform="translate(-304.838 -1950.8)">
    <path id="Trazado_1001602" data-name="Trazado 1001602" d="M0,0H69.323V69.323H0Z" transform="translate(304.838 1950.8)" fill="#19538d"/>
    <g id="Grupo_1184581" data-name="Grupo 1184581" transform="translate(313.441 1959.408)">
      <g id="Grupo_1184580" data-name="Grupo 1184580" transform="translate(0 -0.001)" clip-path="url(#clip-path)">
        <path id="Trazado_1002438" data-name="Trazado 1002438" d="M50.989,0a.986.986,0,0,1,1.123,1.029l0,16.336a1,1,0,0,1-1.034.986l-5.568.033-.025,5.034a1.078,1.078,0,0,1-1.127,1.1l-17.281.006,0,4.088c3.379.132,8.295.851,10.739,3.311a3.131,3.131,0,0,1,.079,4.5A7.979,7.979,0,0,1,35.044,38.3a27.173,27.173,0,0,1-17.381.23,8.892,8.892,0,0,1-3.377-2.006,3.171,3.171,0,0,1,.085-4.685c2.5-2.39,7.259-3.084,10.657-3.238l0-4.078L7.754,24.516a1.13,1.13,0,0,1-1.145-1.25L6.6,18.389l-5.578-.036A.977.977,0,0,1,0,17.37L0,1.032A.97.97,0,0,1,1.038.008H14.275a.969.969,0,0,1,1.036,1.025l0,16.338a.94.94,0,0,1-.867.966l-5.731.054.015,4.055H25.036V18.379l-5.675-.031a.99.99,0,0,1-.981-.993l0-16.322c0-.442.343-1,.807-1L32.6,0a1.026,1.026,0,0,1,1.133,1.039l.011,16.156c0,.824-.556,1.178-1.3,1.178l-5.366,0v4.072l16.319,0,.006-4.054-5.577-.035a.975.975,0,0,1-1.02-.984l0-16.336A.968.968,0,0,1,37.839.008ZM10.131,6.094A.994.994,0,0,0,11.21,5.028a.982.982,0,0,0-1.02-.949l-5.071,0A.994.994,0,0,0,4.1,5.185,1.031,1.031,0,0,0,5.268,6.1Zm18.386,0a1.017,1.017,0,1,0,0-2.027H23.595A1.019,1.019,0,1,0,23.6,6.1Zm18.415,0a.993.993,0,0,0,1.079-1.065.982.982,0,0,0-1.02-.949l-5.071,0A.994.994,0,0,0,40.9,5.184a1.03,1.03,0,0,0,1.164.913Zm-36.8,4.089A.993.993,0,0,0,11.21,9.117a.982.982,0,0,0-1.02-.949l-5.071,0A.994.994,0,0,0,4.1,9.273a1.03,1.03,0,0,0,1.164.913Zm18.386,0a1.017,1.017,0,1,0,0-2.027H23.595a1.019,1.019,0,1,0,.007,2.03Zm18.415,0a.993.993,0,0,0,1.079-1.065.982.982,0,0,0-1.02-.949l-5.071,0A.994.994,0,0,0,40.9,9.273a1.03,1.03,0,0,0,1.164.913Zm-36.8,4.089a.994.994,0,0,0,1.079-1.065.982.982,0,0,0-1.02-.949l-5.071,0A.994.994,0,0,0,4.1,13.362a1.03,1.03,0,0,0,1.164.913Zm18.386,0a1.017,1.017,0,1,0,0-2.027H23.595a1.019,1.019,0,1,0,.007,2.03Zm18.415,0a.993.993,0,0,0,1.079-1.065.982.982,0,0,0-1.02-.949l-5.071,0A.994.994,0,0,0,40.9,13.363a1.031,1.031,0,0,0,1.164.913Z" transform="translate(0 0)" fill="#fff"/>
        <path id="Trazado_1002439" data-name="Trazado 1002439" d="M105.039,268.767c-4.949,3.635-16.96,3.58-21.943.242-2.764-2.039-1.787-3.435-1.949-6.714,6.74,4.116,18.771,4.113,25.479.013-.109,2.83.749,4.645-1.588,6.459" transform="translate(-67.841 -219.394)" fill="#fff"/>
        <path id="Trazado_1002440" data-name="Trazado 1002440" d="M106.785,237.471c-5.981,4.694-19.6,4.669-25.521.02a15.53,15.53,0,0,1,.03-2.277,14.128,14.128,0,0,0,5.178,2.469,29.865,29.865,0,0,0,15.425-.1,13.684,13.684,0,0,0,4.822-2.368Z" transform="translate(-67.951 -196.743)" fill="#fff"/>
      </g>
    </g>
  </g>
</svg>
