<svg xmlns="http://www.w3.org/2000/svg" xmlns:xlink="http://www.w3.org/1999/xlink" width="69.323" height="69.323" viewBox="0 0 69.323 69.323">
  <defs>
    <clipPath id="clip-path">
      <rect id="Rectángulo_466219" data-name="Rectángulo 466219" width="48.353" height="39.894" fill="#fff"/>
    </clipPath>
  </defs>
  <g id="Grupo_1184656" data-name="Grupo 1184656" transform="translate(-918.838 -1950.8)">
    <rect id="Rectángulo_465498" data-name="Rectángulo 465498" width="69.323" height="69.323" transform="translate(918.838 1950.8)" fill="#19538d"/>
    <g id="Grupo_1184585" data-name="Grupo 1184585" transform="translate(929.906 1965.514)">
      <g id="Grupo_1184584" data-name="Grupo 1184584" clip-path="url(#clip-path)">
        <path id="Trazado_1002449" data-name="Trazado 1002449" d="M35.411,111.25a1.475,1.475,0,0,1-1.593,1.52l-32.282-.007A1.469,1.469,0,0,1,0,111.252l0-24a1.411,1.411,0,0,1,1.5-1.405l10.18.007,2.052,4.1a3.042,3.042,0,0,0,2.608,1.647l19.06.025Zm-8.554-3.673c.038-1.071-.607-1.856-1.56-1.776s-1.374.894-1.317,1.84c.042.7.037,1.319.694,1.7a1.441,1.441,0,0,0,1.627-.109c.48-.377.53-.948.555-1.659m3.99-1.554a1.461,1.461,0,0,0-1.641.062,2.386,2.386,0,0,0,.048,3.205,1.413,1.413,0,0,0,1.529.067,2.3,2.3,0,0,0,.065-3.334" transform="translate(0 -72.877)" fill="#fff"/>
        <path id="Trazado_1002450" data-name="Trazado 1002450" d="M74.482,69.785l0-14.34a3.021,3.021,0,0,0-2.922-3.129l-19-.052-1.9-3.813a3.24,3.24,0,0,0-2.948-1.933l-4.995-.013a18.749,18.749,0,0,1-.038-2.084,1.52,1.52,0,0,1,1.707-1.537l9.984.026,2.07,4.141a2.982,2.982,0,0,0,2.454,1.592l19.218.02.01,19.618a1.476,1.476,0,0,1-1.392,1.528Z" transform="translate(-36.218 -36.404)" fill="#fff"/>
        <path id="Trazado_1002451" data-name="Trazado 1002451" d="M117.389,26.9l.013-14.184a3.128,3.128,0,0,0-3.2-3.289l-18.736,0L93.382,5.262a2.93,2.93,0,0,0-2.446-1.585l-5.283-.025a17.544,17.544,0,0,1-.048-2.132C85.581.512,86.37,0,87.324,0l9.949.028,2.059,4.1a2.96,2.96,0,0,0,2.491,1.647l17.669,0a1.459,1.459,0,0,1,1.522,1.486l0,18.263c0,1.765-2.231,1.406-3.621,1.362" transform="translate(-72.662 -0.001)" fill="#fff"/>
      </g>
    </g>
  </g>
</svg>
