<svg xmlns="http://www.w3.org/2000/svg" xmlns:xlink="http://www.w3.org/1999/xlink" width="69.323" height="69.323" viewBox="0 0 69.323 69.323">
  <defs>
    <clipPath id="clip-path">
      <rect id="Rectángulo_466220" data-name="Rectángulo 466220" width="45.62" height="42.378" fill="#fff"/>
    </clipPath>
  </defs>
  <g id="Grupo_1184657" data-name="Grupo 1184657" transform="translate(-1225.838 -1950.8)">
    <rect id="Rectángulo_465499" data-name="Rectángulo 465499" width="69.323" height="69.323" transform="translate(1225.838 1950.8)" fill="#62249e"/>
    <g id="Grupo_1184587" data-name="Grupo 1184587" transform="translate(1238.271 1964.272)">
      <g id="Grupo_1184586" data-name="Grupo 1184586" clip-path="url(#clip-path)">
        <path id="Trazado_1002452" data-name="Trazado 1002452" d="M45.607,9.7l.013,27.774a4.856,4.856,0,0,1-4.9,4.9H4.9a4.855,4.855,0,0,1-4.9-4.9L0,4.9A4.786,4.786,0,0,1,4.717.036L16.291,0A1.764,1.764,0,0,1,17.459.49l4.417,4.405,18.7,0A4.848,4.848,0,0,1,45.607,9.7M42.35,9.684a1.587,1.587,0,0,0-1.622-1.523H21.355a1.73,1.73,0,0,1-1.342-.506l-4.4-4.38L5.046,3.259A1.667,1.667,0,0,0,3.251,4.893l.013,6.519a1.655,1.655,0,0,0,1.807,1.64H40.551a1.662,1.662,0,0,0,1.808-1.639,15.8,15.8,0,0,0-.01-1.729M21.085,34.814l6.46-12.955a1.6,1.6,0,0,0-.858-2.17,1.636,1.636,0,0,0-2.116.851l-6.5,13.018a1.606,1.606,0,0,0,.859,2.167,1.651,1.651,0,0,0,2.151-.912m-8.267-.985a1.563,1.563,0,0,0,2.191-.143,1.587,1.587,0,0,0,.04-2.162L11.3,27.708l3.753-3.818a1.593,1.593,0,0,0-.123-2.235,1.631,1.631,0,0,0-2.247.027L7.821,26.541a1.64,1.64,0,0,0,0,2.333Zm20.075-.063,4.909-4.89a1.65,1.65,0,0,0,0-2.337l-4.951-4.925a1.615,1.615,0,0,0-2.279,2.277l3.751,3.819-3.683,3.725a1.629,1.629,0,0,0-.029,2.253,1.6,1.6,0,0,0,2.282.078" transform="translate(0 0.001)" fill="#fff"/>
      </g>
    </g>
  </g>
</svg>
