<svg xmlns="http://www.w3.org/2000/svg" xmlns:xlink="http://www.w3.org/1999/xlink" width="98" height="98" viewBox="0 0 98 98">
  <defs>
    <clipPath id="clip-path">
      <rect id="Rectángulo_466222" data-name="Rectángulo 466222" width="59.815" height="59.82" fill="#fff"/>
    </clipPath>
  </defs>
  <g id="Grupo_1183508" data-name="Grupo 1183508" transform="translate(-289.609 -11611.898)">
    <g id="Grupo_1177473" data-name="Grupo 1177473" transform="translate(289.609 11611.898)">
      <ellipse id="Elipse_13609" data-name="Elipse 13609" cx="49" cy="49" rx="49" ry="49" transform="translate(0)" fill="#19538d"/>
      <g id="Grupo_1184592" data-name="Grupo 1184592" transform="translate(19.092 19.09)">
        <g id="Grupo_1184591" data-name="Grupo 1184591" clip-path="url(#clip-path)">
          <path id="Trazado_1002456" data-name="Trazado 1002456" d="M16.354,50.69c-.692,0-1.073-.323-1.052-.875.02-.517.294-.839.984-.839l39.756-.015a2.139,2.139,0,0,0,2.037-2.225l-.026-3.56-56.252,0c-.143,1.151-.035,2.32-.064,3.545a2.155,2.155,0,0,0,2.172,2.246l8.047.013a.84.84,0,0,1,.88.84.851.851,0,0,1-.875.864l-8.428-.036A3.676,3.676,0,0,1,0,46.9L0,12.152a3.812,3.812,0,0,1,3.93-3.818L29.48,8.323a3.046,3.046,0,0,0-.887-1.035A1.58,1.58,0,0,1,28.533,4.9l1.929-1.908c1.32-1.305,2.525.641,3.32,1.233L36.14,3.169c.266-.283.1-1.067.1-1.5A1.509,1.509,0,0,1,37.761,0l2.789,0c2.037,0,1.258,2.494,1.6,3.247A19.569,19.569,0,0,1,44.5,4.2,13.065,13.065,0,0,0,45.783,2.99a1.519,1.519,0,0,1,2.143.1l1.951,1.972c1.258,1.271-.5,2.348-1.117,3.233l7.147.036a3.826,3.826,0,0,1,3.907,3.82V46.9a3.647,3.647,0,0,1-3.369,3.721L36.5,50.7a43.373,43.373,0,0,0,.672,7.3c1.146.366,3.992-.6,3.909.967a.889.889,0,0,1-.924.85H19.661a.883.883,0,0,1-.924-.858c-.074-1.524,2.734-.612,3.909-.96a43.9,43.9,0,0,0,.672-7.3ZM40.282,25.615l.01-1.64c.009-1.514,1.6-1.287,3.514-2.391,1.44-.833,2.191.892,3.046,1.345l1.506-1.507c-.535-.878-2.172-1.57-1.348-3.052A10.454,10.454,0,0,0,48,16c.4-1.485,1.879-1.047,3.051-1.154a6.707,6.707,0,0,0,0-2.233c-1.171-.1-2.638.338-3.051-1.161a10.423,10.423,0,0,0-.986-2.371c-.776-1.383.64-2.1,1.351-3a11.968,11.968,0,0,0-1.552-1.586L45.532,5.7c-1.086,1.032-1.944-.247-4.071-.814-1.719-.458-.946-2.17-1.278-3.14a15.4,15.4,0,0,0-2.127.022c-.231,1.054.385,2.66-1.2,3.1a10.351,10.351,0,0,0-2.4,1c-1.377.792-2.116-.75-2.994-1.385A14.729,14.729,0,0,0,29.916,6.08c.794.933,2.126,1.647,1.32,3.068a9.76,9.76,0,0,0-.941,2.274c-.432,1.579-2.019,1.047-3.081,1.215a9,9,0,0,0,0,2.186c.983.169,2.619-.317,3.025,1.068a12.659,12.659,0,0,0,1.048,2.531c.772,1.423-.848,2.165-1.372,3l1.542,1.515c.844-.53,1.609-2.168,3-1.357a11.684,11.684,0,0,0,2.537,1.052c1.394.426.854,2.1,1.058,3.033a5,5,0,0,0,2.23-.049M5.885,12.36l19.465-.018A1.656,1.656,0,0,1,27.1,10.823h1.121c.291,0,.47-.106.515-.283s.126-.356-.144-.461H3.93A2.105,2.105,0,0,0,1.744,12.2l0,29.148a3.7,3.7,0,0,0,1.9-.008l.013-26.751A2.149,2.149,0,0,1,5.885,12.36M56.174,41.349a2.936,2.936,0,0,0,1.908-.06l-.01-29.1a2.11,2.11,0,0,0-2.165-2.11l-6.391.041c-.046.424.124.721.31.7,3.014-.41,2.913,1.215,3.112,1.39.273.241,3.224-.252,3.225,2.375Zm-15.6-13.888c-.953.043-1.861.023-2.8.009a1.519,1.519,0,0,1-1.521-1.681,5.08,5.08,0,0,0-.067-1.575,12.142,12.142,0,0,1-2.4-.978c-.829.61-2.011,2.555-3.418,1.15l-1.859-1.857a1.558,1.558,0,0,1,0-2.272l1.084-1.091-.982-2.527-2.054-.052c-1-.287-1.313-1.156-1.088-2.423L5.417,14.146l.006,27.308,48.971,0V14.318a1.474,1.474,0,0,0-1.569.02c.173.983-.064,2.181-1.062,2.232l-2.131.109a15.84,15.84,0,0,1-.976,2.395c.519.821,2.54,1.933,1.227,3.314-.67.705-1.347,1.391-2.057,2.058-1.611,1.514-2.8-1.3-3.454-1.093-.827.263-1.524.689-2.328.889-.051,1.22.328,3.139-1.469,3.22m-5.206,30.6a55.237,55.237,0,0,1-.642-7.369H25.092a59,59,0,0,1-.631,7.371Z" transform="translate(0 0)" fill="#fff"/>
          <path id="Trazado_1002457" data-name="Trazado 1002457" d="M149.528,243.5l-3.849.014a.862.862,0,0,1-.961-.86c0-.525.373-.857.974-.858l3.753,0a.862.862,0,0,1,.957.689.833.833,0,0,1-.873,1.017" transform="translate(-117.659 -196.582)" fill="#fff"/>
          <path id="Trazado_1002458" data-name="Trazado 1002458" d="M50.089,117.036c-.73.025-1.393.014-2.033,0a1.479,1.479,0,0,1-1.425-1.781,1.316,1.316,0,0,0-.085-.713,5.818,5.818,0,0,0-1.471-.6c-.252-.009-.5.25-.705.5a1.451,1.451,0,0,1-2.229.119l-1.394-1.4a1.4,1.4,0,0,1,.19-2.142,1.467,1.467,0,0,0,.484-.564,4.56,4.56,0,0,0-.574-1.612c-.436-.316-2.338.361-2.477-1.348a21.689,21.689,0,0,1-.014-2.246c.041-1.809,2.065-1.163,2.483-1.484a6.069,6.069,0,0,0,.61-1.487c-.01-.239-.291-.48-.528-.682a1.412,1.412,0,0,1-.153-2.157l1.4-1.4a1.415,1.415,0,0,1,2.2.143,1.649,1.649,0,0,0,.617.515,7.728,7.728,0,0,0,1.5-.562c.367-.3-.281-2.373,1.315-2.5a13.1,13.1,0,0,1,2.628.013c1.4.169.957,2,1.2,2.414a5.27,5.27,0,0,0,1.509.648c.2-.016.435-.29.6-.491A1.417,1.417,0,0,1,55.916,98L57.4,99.485a1.345,1.345,0,0,1-.041,1.964c-.253.26-.487.47-.745.775a13.536,13.536,0,0,0,.745,1.671c.757-.005,1.889-.156,2.222.684a7.013,7.013,0,0,1,.112,3.168c-.148,1.376-2.135.759-2.448,1.133a12.744,12.744,0,0,0-.578,1.464c.024.375,2,1.525.744,2.783L55.94,114.6a1.417,1.417,0,0,1-2.206-.222c-.642-.9-2.114.135-2.015.054-.49.4.31,2.533-1.629,2.6m2.726-4.989c.833-.386,1.44.465,1.988.906.324.123,1.092-.6.9-.88-.369-.562-1.267-1.058-.946-1.833l1.092-2.637c.312-.755,1.328-.574,2.055-.577.19-.264.294-1.155-.009-1.3-.71-.211-1.694.129-2-.61l-.783-1.873c-1.017-2.433.714-2.085.661-2.836a2.1,2.1,0,0,0-.805-.784c-.76-.1-.407,1.65-2.806.654L50.3,99.5c-.76-.316-.5-1.269-.632-2-.172-.284-1-.237-1.259-.012.013.736.09,1.716-.642,2.026l-2.455,1.04c-.864.366-1.384-.4-1.991-.882-.268-.215-1.079.591-.889.878.4.6,1.259,1.033.961,1.762l-.791,1.935c-1.047,2.561-2.523.667-2.52,1.744a1.729,1.729,0,0,0,.074.883c.211.344,1.877-.264,2.229.909.247.824.661,1.576.967,2.359.311.8-.472,1.293-.906,1.888-.23.314.577,1.12.894.879.589-.449,1.107-1.213,1.921-.874l2.464,1.026c.816.34.589,1.307.739,2.009.074.345,1.255.332,1.25-.131-.022-2.149.441-1.671,3.1-2.9" transform="translate(-31.166 -77.702)" fill="#fff"/>
          <path id="Trazado_1002459" data-name="Trazado 1002459" d="M175.613,40.957a5.135,5.135,0,0,0,.549,6.495,5.038,5.038,0,1,0,2.275-8.4.943.943,0,0,1-1.1-.475.866.866,0,0,1,.585-1.2,6.784,6.784,0,1,1-3.812,2.745.9.9,0,0,1,1.08-.316.854.854,0,0,1,.424,1.156" transform="translate(-140.611 -30.182)" fill="#fff"/>
          <path id="Trazado_1002460" data-name="Trazado 1002460" d="M197.505,58.073a3.53,3.53,0,1,1-3.53-3.53,3.53,3.53,0,0,1,3.53,3.53m-1.756,0a1.774,1.774,0,1,0-1.774,1.774,1.774,1.774,0,0,0,1.774-1.774" transform="translate(-154.837 -44.345)" fill="#fff"/>
          <path id="Trazado_1002461" data-name="Trazado 1002461" d="M80.2,132.842a4.638,4.638,0,1,1-4.638-4.638,4.638,4.638,0,0,1,4.638,4.638m-1.757,0a2.879,2.879,0,1,0-2.879,2.879,2.879,2.879,0,0,0,2.879-2.879" transform="translate(-57.665 -104.233)" fill="#fff"/>
        </g>
      </g>
    </g>
  </g>
</svg>
