<svg xmlns="http://www.w3.org/2000/svg" xmlns:xlink="http://www.w3.org/1999/xlink" width="80" height="80" viewBox="0 0 80 80">
  <defs>
    <clipPath id="clip-path">
      <rect id="Rectángulo_466249" data-name="Rectángulo 466249" width="57.882" height="57.867" fill="#19538d"/>
    </clipPath>
  </defs>
  <g id="Grupo_1181557" data-name="Grupo 1181557" transform="translate(-705.629 -1685)">
    <g id="Grupo_1178970" data-name="Grupo 1178970" transform="translate(705.629 1685)">
      <path id="Sustracción_110" data-name="Sustracción 110" d="M80,80h0L32.943,80l-1.885-4.512H5.651L3.767,80H0V0H48.35l1.883,4.51H75.644L77.528,0H80V80Z" transform="translate(0)" fill="#ffd470"/>
    </g>
    <path id="Trazado_998456" data-name="Trazado 998456" d="M-3,0H18.647l2.824,6.588H-.176Z" transform="translate(763.217 1685)" fill="#19538d"/>
    <g id="Grupo_1184615" data-name="Grupo 1184615" transform="translate(716.688 1696.067)">
      <g id="Grupo_1184614" data-name="Grupo 1184614" clip-path="url(#clip-path)">
        <path id="Trazado_1002539" data-name="Trazado 1002539" d="M35.907,51.842a7,7,0,1,1,.013-1.887l14.011-.026L49.921,36l-4.705-.039a1.328,1.328,0,0,1-1.342-1.265l-.048-4.821H40.408c-.479,2.416-2.714,1.26-3.16,2.441-.482,1.276,1.052,1.461.868,3.2a5.289,5.289,0,0,1-2.4,2.544c-1.694.384-2.15-1.2-3.238-.871-1.229.377-.427,1.743-1.554,2.768-.731.665-3.186.6-3.865.081-1.165-.887-.483-2.386-1.514-2.8-1.19-.48-2.311,1.694-3.737.652a7.7,7.7,0,0,1-1.831-1.851c-.99-1.488,1.167-2.473.653-3.731-.48-1.175-2.639,0-3.158-2.434H14.052l-.022,4.646a1.426,1.426,0,0,1-1.543,1.454l-10.964,0A1.416,1.416,0,0,1,0,34.511L.023,23.137a1.166,1.166,0,0,1,1.092-1.143l4.955-.1L6.084,7.077c.027-.5.3-.949.84-.95l15.049-.038a7.02,7.02,0,0,1,13.975.75A7.021,7.021,0,0,1,21.98,7.991L7.955,7.976,7.968,21.94l4.747.036a1.255,1.255,0,0,1,1.308,1.33l.039,4.669h3.4c.553-2.39,2.762-1.252,3.175-2.409.47-1.319-1.064-1.456-.852-3.251a5.134,5.134,0,0,1,2.566-2.546c1.671-.214,2.08,1.367,3.13.9,1.156-.516.391-1.856,1.524-2.79a4.723,4.723,0,0,1,3.88,0c1.125.915.393,2.337,1.518,2.789s2.2-1.671,3.626-.706a7.477,7.477,0,0,1,1.884,1.878c.989,1.427-1.09,2.452-.672,3.69s2.692.083,3.163,2.442l3.421.01.038-4.668a1.271,1.271,0,0,1,1.313-1.34h11.4a1.216,1.216,0,0,1,1.28,1.17l.026,11.372a1.406,1.406,0,0,1-1.516,1.459L51.814,36,51.8,50.751c0,.726-.521,1.072-1.226,1.073ZM34.077,7.011a5.139,5.139,0,1,0-5.139,5.139,5.139,5.139,0,0,0,5.139-5.139M29.651,38.377c.537-.658.169-1.693.771-2.219,3.507-2.168,3.23-.366,4.587-.036.383.093,1.135-.637,1.113-1.029-.043-.763-1.093-1.283-1.02-2.107a6.043,6.043,0,0,1,1.01-2.5c.472-.669,1.655-.328,2.24-.794a1.315,1.315,0,0,0-.052-1.529c-.612-.416-1.664-.115-2.14-.715a5.981,5.981,0,0,1-1.066-2.6l1.055-2.1a1.8,1.8,0,0,0-.983-1.015c-1.885.682-1.407,1.628-3.442.64-.5-.244-1.135-.256-1.446-.8-.335-.588-.2-1.479-.6-2.043a1.276,1.276,0,0,0-1.478.026c-.379.579-.261,1.435-.594,2.023-.31.546-.966.549-1.47.8-1.986.991-1.557.01-3.376-.627-.355-.011-.953.658-1,1l1.029,2.088a5.773,5.773,0,0,1-1.061,2.6c-.482.607-1.536.279-2.137.719-.363.265-.364,1.371,0,1.579.664.377,1.735.1,2.182.737a6.2,6.2,0,0,1,1.012,2.5c.091.805-.981,1.393-1.033,2.1.026.353.627,1.06,1,1.03,1.218-.1,1.251-1.731,3.356-.625.489.257,1.151.258,1.474.778.373.6.22,1.587.647,2.13a1.376,1.376,0,0,0,1.415-.017M12.162,23.795H1.871V34.118H12.162Zm43.847,0H45.722V34.118H56.009ZM34.084,50.862A5.138,5.138,0,1,0,28.945,56a5.139,5.139,0,0,0,5.139-5.139" transform="translate(0 -0.001)" fill="#19538d"/>
        <path id="Trazado_1002540" data-name="Trazado 1002540" d="M139.841,135.276a4.529,4.529,0,1,1-4.529-4.529,4.529,4.529,0,0,1,4.529,4.529m-1.869,0a2.66,2.66,0,1,0-2.66,2.66,2.66,2.66,0,0,0,2.66-2.66" transform="translate(-106.368 -106.339)" fill="#19538d"/>
      </g>
    </g>
  </g>
</svg>
