<svg xmlns="http://www.w3.org/2000/svg" xmlns:xlink="http://www.w3.org/1999/xlink" width="98" height="98" viewBox="0 0 98 98">
  <defs>
    <clipPath id="clip-path">
      <rect id="Rectángulo_466223" data-name="Rectángulo 466223" width="58.818" height="58.802" fill="#fff"/>
    </clipPath>
  </defs>
  <g id="Grupo_1183509" data-name="Grupo 1183509" transform="translate(-289.609 -11611.898)">
    <g id="Grupo_1177473" data-name="Grupo 1177473" transform="translate(289.609 11611.898)">
      <ellipse id="Elipse_13609" data-name="Elipse 13609" cx="49" cy="49" rx="49" ry="49" transform="translate(0)" fill="#7a4f1e"/>
      <g id="Grupo_1184594" data-name="Grupo 1184594" transform="translate(19.591 19.599)">
        <g id="Grupo_1184593" data-name="Grupo 1184593" clip-path="url(#clip-path)">
          <path id="Trazado_1002462" data-name="Trazado 1002462" d="M33.368,58.8l-8.018,0a2.161,2.161,0,0,1-2.131-2.033l-.069-3.67a26.306,26.306,0,0,1-6.081-2.539l-2.494,2.436a2.245,2.245,0,0,1-3.2-.034l-5.519-5.52a2.264,2.264,0,0,1-.037-3.2l2.44-2.5a26.151,26.151,0,0,1-2.537-6.079l-3.5-.033A2.289,2.289,0,0,1,0,33.281V25.545a2.33,2.33,0,0,1,2.381-2.351l3.333-.03a26.864,26.864,0,0,1,2.528-6.113L5.817,14.583a2.263,2.263,0,0,1,.035-3.2l5.523-5.524a2.216,2.216,0,0,1,3.1-.109l2.535,2.492a27.766,27.766,0,0,1,6.134-2.533l.055-3.5A2.216,2.216,0,0,1,25.348.033L33.083,0a2.283,2.283,0,0,1,2.5,2.071l.079,3.638A25.006,25.006,0,0,1,41.774,8.25l2.356-2.339a2.311,2.311,0,0,1,3.3-.047l5.519,5.519a2.31,2.31,0,0,1-.047,3.3l-2.324,2.358a25.793,25.793,0,0,1,2.534,6.111l3.48.056A2.27,2.27,0,0,1,58.8,25.545l.017,7.545a2.456,2.456,0,0,1-2.587,2.573c-1.038-.016-2.029-.038-3.129.009a26.176,26.176,0,0,1-2.537,6.1l2.421,2.466a2.265,2.265,0,0,1-.037,3.2l-5.517,5.518a2.282,2.282,0,0,1-3.3-.051l-2.361-2.333A26.969,26.969,0,0,1,35.649,53.1L35.6,56.607A2.228,2.228,0,0,1,33.368,58.8m-.087-2.336V52.374A1.287,1.287,0,0,1,34.3,51.037a21.743,21.743,0,0,0,7.007-2.9,1.2,1.2,0,0,1,1.5.206L45.8,51.319l5.5-5.467L48.256,42.72a1.135,1.135,0,0,1-.129-1.38,22.565,22.565,0,0,0,2.955-7.121c.381-1.677,3.849-.54,5.426-1l-.029-7.667-4.116-.02a1.234,1.234,0,0,1-1.266-.9,22.522,22.522,0,0,0-2.961-7.158,1.175,1.175,0,0,1,.2-1.471l2.976-3L45.8,7.5l-3.093,3.053a1.189,1.189,0,0,1-1.494.054A21.747,21.747,0,0,0,34.2,7.727a1.172,1.172,0,0,1-.9-1.1l-.038-4.276H25.535L25.5,6.623a1.154,1.154,0,0,1-.9,1.1,22.383,22.383,0,0,0-7.006,2.9,1.225,1.225,0,0,1-1.606-.147L13,7.5,7.492,13.009l2.977,3a1.206,1.206,0,0,1,.209,1.5,22.429,22.429,0,0,0-2.946,7.133,1.248,1.248,0,0,1-1.293.9l-4.122.013v7.729l4.293.034a1.2,1.2,0,0,1,1.163.986,22.191,22.191,0,0,0,2.912,7.012,1.172,1.172,0,0,1-.132,1.41L7.505,45.852,13,51.32l2.992-2.977a1.2,1.2,0,0,1,1.513-.216,21.931,21.931,0,0,0,7.007,2.911c1.808.4.626,3.771,1.077,5.492Z" transform="translate(0 0)" fill="#fff"/>
          <path id="Trazado_1002463" data-name="Trazado 1002463" d="M217.543,96.265a1.138,1.138,0,1,1-1.138-1.138,1.138,1.138,0,0,1,1.138,1.138" transform="translate(-175.707 -77.646)" fill="#fff"/>
          <path id="Trazado_1002464" data-name="Trazado 1002464" d="M92.713,72.995a14.487,14.487,0,1,0,5.8,6.119,1.145,1.145,0,0,1,2.064-.994,16.767,16.767,0,1,1-6.792-7.142,1.142,1.142,0,0,1,.471,1.409,1.113,1.113,0,0,1-1.54.608" transform="translate(-56.165 -56.184)" fill="#fff"/>
          <path id="Trazado_1002465" data-name="Trazado 1002465" d="M112.971,130.578l-7.266-7.291a1.156,1.156,0,0,1,.106-1.6l4.149-4.118c1.19-1.181,2.868,1.673,3.9,2.354l5.579-5.559a1.17,1.17,0,0,1,1.677.087l4.028,4.05a1.135,1.135,0,0,1,.018,1.593l-10.447,10.462a1.169,1.169,0,0,1-1.741.019m-4.709-7.947,5.615,5.534,8.815-8.851-2.485-2.463-5.48,5.47a1.17,1.17,0,0,1-1.611.135l-2.439-2.374a20.933,20.933,0,0,0-2.415,2.55" transform="translate(-86.054 -93.092)" fill="#fff"/>
        </g>
      </g>
    </g>
  </g>
</svg>
