<svg xmlns="http://www.w3.org/2000/svg" xmlns:xlink="http://www.w3.org/1999/xlink" width="98" height="98" viewBox="0 0 98 98">
  <defs>
    <clipPath id="clip-path">
      <rect id="Rectángulo_466224" data-name="Rectángulo 466224" width="56.237" height="56.048" fill="#fff"/>
    </clipPath>
  </defs>
  <g id="Grupo_1183511" data-name="Grupo 1183511" transform="translate(-289.609 -11611.898)">
    <g id="Grupo_1177473" data-name="Grupo 1177473" transform="translate(289.609 11611.898)">
      <ellipse id="Elipse_13609" data-name="Elipse 13609" cx="49" cy="49" rx="49" ry="49" transform="translate(0)" fill="#62249e"/>
      <g id="Grupo_1184596" data-name="Grupo 1184596" transform="translate(20.881 20.976)">
        <g id="Grupo_1184595" data-name="Grupo 1184595" clip-path="url(#clip-path)">
          <path id="Trazado_1002466" data-name="Trazado 1002466" d="M182.685,90.312l-16.73-.005-.033,14.653a.885.885,0,0,1-.891.992.875.875,0,0,1-.932-.871l-.013-15.545a1.014,1.014,0,0,1,1.062-1.067h18.358a.965.965,0,0,1,1.022.935l.011,15.529a.926.926,0,0,1-.926,1.018.916.916,0,0,1-.925-1.017Z" transform="translate(-133.903 -72.193)" fill="#fff"/>
          <path id="Trazado_1002467" data-name="Trazado 1002467" d="M189.812,14.016l.022,5.431a.922.922,0,0,1-.929.979l-7.549.009a.967.967,0,0,1-.99-.99l.012-5.35a.885.885,0,0,1,.881-.9.91.91,0,0,1,.943.939l.035,4.438,5.692.022c.407-1.564-.667-5.2.9-5.4a.854.854,0,0,1,.979.823" transform="translate(-147.187 -10.761)" fill="#fff"/>
          <path id="Trazado_1002468" data-name="Trazado 1002468" d="M198.891,114.043l-9.658.016a.959.959,0,0,1-1.014-.864.924.924,0,0,1,1.011-.98H198.8a.919.919,0,0,1,1,.848.907.907,0,0,1-.907.981" transform="translate(-153.593 -91.573)" fill="#fff"/>
          <path id="Trazado_1002469" data-name="Trazado 1002469" d="M198.878,166.857l-9.63.007a.993.993,0,0,1-1-.71c-.095-.333.1-1.1.65-1.1l10.082-.025a.882.882,0,0,1,.83.851.951.951,0,0,1-.93.974" transform="translate(-153.598 -134.674)" fill="#fff"/>
          <path id="Trazado_1002470" data-name="Trazado 1002470" d="M198.784,140.248h-9.557a.924.924,0,0,1-1.025-.893.965.965,0,0,1,1.031-.95l9.543,0a.981.981,0,0,1,1.011.853.922.922,0,0,1-1,.989" transform="translate(-153.581 -112.944)" fill="#fff"/>
          <path id="Trazado_1002471" data-name="Trazado 1002471" d="M20.825,34.622c-5.847.073-14.122-.616-19.008-3.869l.031,7.709c0,.731.822,1.175,1.3,1.619,7.2,4.641,27.255,4.52,33.88-.212,1.629-1.163.665-2.518,2.021-2.508a.907.907,0,0,1,.895.937l-.1,11.215c-.011,1.275-1.31,2.32-2.327,2.947a20.068,20.068,0,0,1-6.772,2.5,54.221,54.221,0,0,1-21.835-.05A19.421,19.421,0,0,1,2.448,52.5C1.48,51.9.014,50.8.013,49.475L0,16.416c0-1.309,1.356-2.368,2.308-2.99,5.226-3.415,16.049-3.979,22.272-3.44l.02-9.2A.865.865,0,0,1,25.528,0L47.449,0l8.773,8.751.016,26.753a.916.916,0,0,1-.939.994l-29.753,0c-.738,0-.954-.516-.954-1.164l0-23.457a47.454,47.454,0,0,0-18.407,1.73c-1.343.481-4.367,1.735-4.365,3.261,0,1.834,4.13,3.253,5.754,3.709a47.391,47.391,0,0,0,14.078,1.5c.635-.016,1.07.276,1.1.85a.931.931,0,0,1-.922.986c-6.065.168-14.765-.442-20.016-3.846.059,2.706-.173,5.258.095,7.859.094.917,1.313,1.386,1.924,1.89,4.78,2.452,11.6,3.034,16.916,2.957a.967.967,0,0,1,1.042.844.91.91,0,0,1-.966,1m33.566-25.1L46.686,1.829l-20.254.017,0,32.8,27.96,0ZM38,49.245c.223-2.707.043-5.165.07-7.781C33.239,44.6,25.561,45.329,20,45.3c-5.711.041-13.423-.752-18.188-3.837l.039,7.676c.01,1.9,5.606,3.568,7.291,3.928a51.949,51.949,0,0,0,21.286.072c1.7-.347,7.411-1.965,7.57-3.9" transform="translate(0)" fill="#fff"/>
          <path id="Trazado_1002472" data-name="Trazado 1002472" d="M35.381,137.292c.765.076,1.1.474,1.054,1.06-.045.56-.5.864-1.152.794a51.668,51.668,0,0,1-10.58-2.275.91.91,0,0,1-.541-1.024.933.933,0,0,1,1.164-.688,52.055,52.055,0,0,0,10.055,2.133" transform="translate(-19.701 -110.263)" fill="#fff"/>
          <path id="Trazado_1002473" data-name="Trazado 1002473" d="M35.471,198.982a.966.966,0,0,1,.976.927.874.874,0,0,1-.972.919,51.248,51.248,0,0,1-10.6-2.209.92.92,0,1,1,.478-1.774,51.74,51.74,0,0,0,10.119,2.137" transform="translate(-19.704 -160.6)" fill="#fff"/>
          <path id="Trazado_1002474" data-name="Trazado 1002474" d="M106.9,210.833c.05,1.36-2.618,1.038-4.217.985A.908.908,0,1,1,102.7,210l3.31-.033a.886.886,0,0,1,.9.864" transform="translate(-83.046 -171.344)" fill="#fff"/>
          <path id="Trazado_1002475" data-name="Trazado 1002475" d="M146.737,205.447c.606,1.678-2.569,1.42-3.825,1.82a1.012,1.012,0,0,1-.9-.8.922.922,0,0,1,.781-1.037l2.847-.512a.931.931,0,0,1,1.1.533" transform="translate(-115.879 -167.203)" fill="#fff"/>
          <path id="Trazado_1002476" data-name="Trazado 1002476" d="M105.364,150.17a13.769,13.769,0,0,1-2.815.037.83.83,0,0,1-.721-.988.9.9,0,0,1,.9-.8l2.389-.007a.9.9,0,0,1,.846.659.852.852,0,0,1-.6,1.1" transform="translate(-83.093 -121.112)" fill="#fff"/>
          <path id="Trazado_1002477" data-name="Trazado 1002477" d="M35.393,255.25c.742.079,1.078.444,1.03,1.058a.935.935,0,0,1-1.138.792,54.686,54.686,0,0,1-10.451-2.225.951.951,0,0,1-.684-1.074.923.923,0,0,1,1.169-.694,54.234,54.234,0,0,0,10.074,2.144" transform="translate(-19.69 -206.512)" fill="#fff"/>
          <path id="Trazado_1002478" data-name="Trazado 1002478" d="M106.921,267.036c.12,1.419-2.226.967-4.034,1.026-.606.02-1.067-.286-1.091-.862a.927.927,0,0,1,.913-.974l3.314-.025a.891.891,0,0,1,.9.834" transform="translate(-83.07 -217.233)" fill="#fff"/>
          <path id="Trazado_1002479" data-name="Trazado 1002479" d="M146.249,262.869a18.153,18.153,0,0,1-3.361.6.9.9,0,0,1-.875-.774.919.919,0,0,1,.829-1.038l2.8-.5a.949.949,0,0,1,1.087.492.894.894,0,0,1-.477,1.216" transform="translate(-115.883 -213.103)" fill="#fff"/>
        </g>
      </g>
    </g>
  </g>
</svg>
