<svg xmlns="http://www.w3.org/2000/svg" xmlns:xlink="http://www.w3.org/1999/xlink" width="98" height="98" viewBox="0 0 98 98">
  <defs>
    <clipPath id="clip-path">
      <rect id="Rectángulo_466225" data-name="Rectángulo 466225" width="58.209" height="58.564" fill="#fff"/>
    </clipPath>
  </defs>
  <g id="Grupo_1183510" data-name="Grupo 1183510" transform="translate(-280.609 -11611.898)">
    <g id="Grupo_1177473" data-name="Grupo 1177473" transform="translate(280.609 11611.898)">
      <path id="Trazado_998826" data-name="Trazado 998826" d="M49,0A49,49,0,1,1,0,49,49,49,0,0,1,49,0Z" transform="translate(0)" fill="#786416"/>
      <g id="Grupo_1184598" data-name="Grupo 1184598" transform="translate(19.895 19.719)">
        <g id="Grupo_1184597" data-name="Grupo 1184597" clip-path="url(#clip-path)">
          <path id="Trazado_1002480" data-name="Trazado 1002480" d="M54.562,262.191c-3.1,2.812-2.106,5.149-3.536,5.152-1.541,0-.493-2.389-3.549-5.108a1.039,1.039,0,0,1,.031-1.6c2.88-2.555,2.062-4.891,3.343-5.037,1.709-.195.523,2.248,3.663,5.066a1.012,1.012,0,0,1,.049,1.529m-3.573,1.469c.549-.8,1-1.469,1.594-2.207A24.569,24.569,0,0,1,51,259.247c-.551.822-1.01,1.473-1.591,2.214a22.855,22.855,0,0,1,1.576,2.2" transform="translate(-38.486 -208.78)" fill="#fff"/>
          <path id="Trazado_1002481" data-name="Trazado 1002481" d="M40.939,67.115c-1.32-1.189-3.743-2.849-2.665-3.831a.97.97,0,0,1,1.328.071c2.168,2,4.176,4.25,7.291,4.764A35.3,35.3,0,0,0,51.346,62.3a12.493,12.493,0,0,1-8.493-3.645.937.937,0,0,1-.1-1.185.951.951,0,0,1,1.4-.129c2.056,1.773,5.8,4.118,8.406,2.536a11.945,11.945,0,0,0,1.8-5.436A7.489,7.489,0,0,1,46.943,53.4a36.093,36.093,0,0,1-5.082-4.791l-7.327-7.988L30.5,44.686l2.936,2.992A1.045,1.045,0,0,1,33.26,48.9a.982.982,0,0,1-1.312-.086l-2.817-2.77L24.966,50.21l5.145,5.22A.91.91,0,0,1,30.05,56.7a.95.95,0,0,1-1.329-.057l-5.1-5.074-3.961,3.946,3.116,3.225a.914.914,0,0,1-1.381,1.194L18.3,56.881l-4.864,4.854,4.152,4.178a.921.921,0,0,1-1.284,1.32L8.769,59.756a5.011,5.011,0,0,1-.031-7.249l4.825-4.84L.86,34.931A2.85,2.85,0,0,1,.84,30.869l2.815-2.828a2.978,2.978,0,0,1,4.306.092l6.288,6.323a.919.919,0,0,1-.119,1.366.942.942,0,0,1-1.271-.146l-6.4-6.369A1.051,1.051,0,0,0,5,29.351L2.238,32.105a1.046,1.046,0,0,0-.073,1.484L14.892,46.326l4.3-4.268-3.2-3.258a.951.951,0,0,1-.144-1.266.931.931,0,0,1,1.354-.126l3.335,3.3,4.97-4.941a4.86,4.86,0,0,1,7.013.078l10.4,10.986c1.616,1.707,3.182,3.254,4.908,4.815,3.753,3.395,6.977-.161,8.1.591a1.111,1.111,0,0,1,.464,1.082,19.1,19.1,0,0,1-2.33,8.057C49.777,69.2,42.789,76.089,33.716,77.617c-3.448.581-6.961-.061-9.4-2.463l-4.434-4.366A.926.926,0,1,1,21.109,69.4l3.937,3.91c3.2,3.176,7.657,3.122,11.806,1.543a39.587,39.587,0,0,1-5.06-4.4.917.917,0,0,1,1.369-1.2c1.814,1.606,3.79,3.772,6.046,4.632a25.758,25.758,0,0,0,6.1-4.149,14.047,14.047,0,0,1-4.364-2.616M12.161,60.344,33.247,39.251c-.683-.817-1.378-1.427-2.056-2.116a3.084,3.084,0,0,0-4.48.037L9.986,53.9A3.056,3.056,0,0,0,10,58.323a14.36,14.36,0,0,0,2.157,2.021" transform="translate(0 -22.19)" fill="#fff"/>
          <path id="Trazado_1002482" data-name="Trazado 1002482" d="M282.77,262.188c-3.047,2.735-2.06,5.125-3.537,5.118s-.465-2.367-3.549-5.136a.988.988,0,0,1-.036-1.463c3.143-2.843,2.1-5.169,3.571-5.161,1.549.008.467,2.348,3.516,5.063a1.022,1.022,0,0,1,.036,1.579m-3.508,1.438c.519-.9,1.052-1.5,1.556-2.241a18.934,18.934,0,0,1-1.577-2.16c-.54.787-1.014,1.463-1.6,2.224.67.714,1.031,1.421,1.624,2.177" transform="translate(-224.917 -208.747)" fill="#fff"/>
          <path id="Trazado_1002483" data-name="Trazado 1002483" d="M103.5,6.685c-3.014,2.679-2.032,5.008-3.479,5.085-1.535.082-.524-2.408-3.523-5.05A1.071,1.071,0,0,1,96.46,5.1c3.029-2.686,2.024-5.139,3.558-5.1,1.4.035.534,2.519,3.438,5.058a1.083,1.083,0,0,1,.041,1.627m-3.522,1.43a20.639,20.639,0,0,1,1.6-2.225,18.783,18.783,0,0,1-1.586-2.209c-.507.713-.957,1.429-1.6,2.2.585.761,1.049,1.39,1.585,2.234" transform="translate(-78.506 0)" fill="#fff"/>
        </g>
      </g>
    </g>
  </g>
</svg>
