<svg xmlns="http://www.w3.org/2000/svg" xmlns:xlink="http://www.w3.org/1999/xlink" width="80" height="80" viewBox="0 0 80 80">
  <defs>
    <clipPath id="clip-path">
      <rect id="Rectángulo_466226" data-name="Rectángulo 466226" width="57.148" height="51.308" fill="#19538d"/>
    </clipPath>
  </defs>
  <g id="Grupo_1181217" data-name="Grupo 1181217" transform="translate(-705.629 -1685)">
    <g id="Grupo_1178970" data-name="Grupo 1178970" transform="translate(705.629 1685)">
      <path id="Sustracción_110" data-name="Sustracción 110" d="M80,80h0L32.943,80l-1.885-4.512H5.651L3.767,80H0V0H48.35l1.883,4.51H75.644L77.528,0H80V80Z" transform="translate(0)" fill="#ffd470"/>
    </g>
    <path id="Trazado_998456" data-name="Trazado 998456" d="M-3,0H18.647l2.824,6.588H-.176Z" transform="translate(763.217 1685)" fill="#19538d"/>
    <g id="Grupo_1184600" data-name="Grupo 1184600" transform="translate(717.055 1700.818)">
      <g id="Grupo_1184599" data-name="Grupo 1184599" clip-path="url(#clip-path)">
        <path id="Trazado_1002484" data-name="Trazado 1002484" d="M55.173,51.308l-53.274,0A1.961,1.961,0,0,1,.032,49.368c.234-.995-.256-2.083.107-3.011l3.706-9.48.021-34A2.856,2.856,0,0,1,6.684,0H50.467a2.854,2.854,0,0,1,2.815,2.88l.022,34,3.706,9.48c.363.928-.131,2.019.109,3a1.965,1.965,0,0,1-1.946,1.948M51.37,1.942H5.779V36.128H51.37ZM36.614,40.885a1.759,1.759,0,0,1,1.6,1.134l1.509,3.607,14.987-.019L51.678,38l-46.237.012L2.453,45.62l15.019-.007,1.391-3.461a1.95,1.95,0,0,1,1.9-1.29Zm.98,4.724a24.912,24.912,0,0,0-1.167-2.853l-15.762.014L19.55,45.617Zm17.578,1.9H1.977v1.9H55.171Z" transform="translate(0)" fill="#19538d"/>
        <path id="Trazado_1002485" data-name="Trazado 1002485" d="M83.06,51.8H44.734a1.912,1.912,0,0,1-1.7-1.977l0-26.512a1.892,1.892,0,0,1,1.71-1.9H83.133a1.894,1.894,0,0,1,1.71,1.9l0,26.511A1.9,1.9,0,0,1,83.06,51.8M82.948,23.3H44.935V49.916H82.948Z" transform="translate(-35.367 -17.596)" fill="#19538d"/>
        <path id="Trazado_1002486" data-name="Trazado 1002486" d="M140.778,135.206l-11.287.015a1,1,0,0,1-1.056-.846.955.955,0,0,1,.907-1.062L140.7,133.3a.973.973,0,0,1,1,.8.937.937,0,0,1-.918,1.107" transform="translate(-105.546 -109.554)" fill="#19538d"/>
        <path id="Trazado_1002487" data-name="Trazado 1002487" d="M182.452,156.589l-10.153.006c-.64,0-1.063-.279-1.1-.85a.9.9,0,0,1,.916-1.022l10.338-.012a.946.946,0,0,1,1.045.865.932.932,0,0,1-1.046,1.014" transform="translate(-140.697 -127.148)" fill="#19538d"/>
        <path id="Trazado_1002488" data-name="Trazado 1002488" d="M89.063,113.94l-7.669.007a.937.937,0,0,1-.9-.923.919.919,0,0,1,.89-.966l7.626-.008a.9.9,0,0,1,.928.81.924.924,0,0,1-.871,1.08" transform="translate(-66.15 -92.088)" fill="#19538d"/>
        <path id="Trazado_1002489" data-name="Trazado 1002489" d="M115.822,92.849l-7.655.007a.9.9,0,0,1-.907-.862c-.024-.392.16-.98.734-.98l7.976,0c.533,0,.758.6.729.969a.917.917,0,0,1-.876.865" transform="translate(-88.149 -74.799)" fill="#19538d"/>
        <path id="Trazado_1002490" data-name="Trazado 1002490" d="M120.005,156.594h-6.413a.942.942,0,1,1,0-1.874l6.417,0a.945.945,0,0,1,1.041.864.933.933,0,0,1-1.043,1.015" transform="translate(-92.499 -127.152)" fill="#19538d"/>
        <path id="Trazado_1002491" data-name="Trazado 1002491" d="M66.772,50.959c.387.677,2.212,1.682,1.082,2.625a.974.974,0,0,1-1.325-.1L64.675,51.61a.958.958,0,0,1,.064-1.38l1.868-1.851a.931.931,0,0,1,1.464,1.107c-.311.584-.948.887-1.3,1.473" transform="translate(-52.935 -39.554)" fill="#19538d"/>
        <path id="Trazado_1002492" data-name="Trazado 1002492" d="M130.069,53.458a.963.963,0,0,1-1.449.029c-.858-1.025.664-1.712,1.2-2.527-.494-.77-2.046-1.513-1.192-2.512a.946.946,0,0,1,1.393-.029l1.861,1.864a.987.987,0,0,1,0,1.351Z" transform="translate(-105.495 -39.553)" fill="#19538d"/>
        <path id="Trazado_1002493" data-name="Trazado 1002493" d="M86.161,135.186l-4.633.016a.976.976,0,0,1-1.048-.974.989.989,0,0,1,1.056-.947l4.6.016a.968.968,0,0,1,.973.923.934.934,0,0,1-.944.965" transform="translate(-66.142 -109.537)" fill="#19538d"/>
        <path id="Trazado_1002494" data-name="Trazado 1002494" d="M98.234,53.212a.961.961,0,0,1-1.308.5.938.938,0,0,1-.435-1.252l1.886-3.773a.96.96,0,0,1,1.243-.475.926.926,0,0,1,.476,1.255Z" transform="translate(-79.221 -39.557)" fill="#19538d"/>
        <path id="Trazado_1002495" data-name="Trazado 1002495" d="M218.527,134.091c.232,1.5-2.042,1.139-3.705,1.116a.96.96,0,0,1-.992-.948.95.95,0,0,1,.991-.958l2.67,0a.984.984,0,0,1,1.037.8" transform="translate(-175.735 -109.549)" fill="#19538d"/>
        <path id="Trazado_1002496" data-name="Trazado 1002496" d="M74.468,91.528c.394,1.58-2.454,1.235-3.878,1.15a.943.943,0,0,1-.831-.981.926.926,0,0,1,.989-.857l2.688-.011a.955.955,0,0,1,1.033.7" transform="translate(-57.328 -74.647)" fill="#19538d"/>
        <path id="Trazado_1002497" data-name="Trazado 1002497" d="M83.763,156.253c-.8.189-3.112.474-3.222-.746-.123-1.365,2.176-1.1,3.164-.933a.771.771,0,0,1,.559.772c.014.287-.044.8-.5.907" transform="translate(-66.188 -126.921)" fill="#19538d"/>
      </g>
    </g>
  </g>
</svg>
