<svg xmlns="http://www.w3.org/2000/svg" xmlns:xlink="http://www.w3.org/1999/xlink" width="130" height="130" viewBox="0 0 130 130">
  <defs>
    <clipPath id="clip-path">
      <rect id="Rectángulo_455533" data-name="Rectángulo 455533" width="130" height="124.675" fill="#19538d"/>
    </clipPath>
    <clipPath id="clip-path-2">
      <rect id="Rectángulo_466235" data-name="Rectángulo 466235" width="55.076" height="51.404" fill="#19538d"/>
    </clipPath>
  </defs>
  <g id="Grupo_1183524" data-name="Grupo 1183524" transform="translate(0.295 -0.228)">
    <ellipse id="Elipse_13674" data-name="Elipse 13674" cx="55.433" cy="55.433" rx="55.433" ry="55.433" transform="translate(9.272 9.794)" fill="#fff"/>
    <g id="Grupo_1179062" data-name="Grupo 1179062" transform="translate(-0.295 0.228)">
      <rect id="Rectángulo_455531" data-name="Rectángulo 455531" width="130" height="130" transform="translate(0 0)" fill="none"/>
      <g id="Grupo_1179061" data-name="Grupo 1179061" transform="translate(0 3.059)">
        <path id="Trazado_998445" data-name="Trazado 998445" d="M121.348,97.577H96.727l3.337-6.223h24.621Z" transform="translate(1.399 1.395)" fill="#62249e"/>
        <path id="Trazado_998446" data-name="Trazado 998446" d="M2.024,86.893,0,91.012H27.145l2.024-4.119Z" transform="translate(0 1.333)" fill="#19538d"/>
        <path id="Trazado_998447" data-name="Trazado 998447" d="M124.8,32.583h-26l2.038-4.616h26Z" transform="translate(1.439 0.429)" fill="#19538d"/>
        <path id="Trazado_998448" data-name="Trazado 998448" d="M37.632,12.837H3.483L5.521,8.221H39.671Z" transform="translate(0.067 0.158)" fill="#19538d"/>
        <g id="Grupo_1179060" data-name="Grupo 1179060" transform="translate(0)">
          <g id="Grupo_1179059" data-name="Grupo 1179059" clip-path="url(#clip-path)">
            <path id="Trazado_998449" data-name="Trazado 998449" d="M64.959,116.745A55.15,55.15,0,0,1,11.184,49.237H3.839a62.343,62.343,0,0,0,109.679,51.42H103.9a55,55,0,0,1-38.942,16.088" transform="translate(0.041 0.762)" fill="#19538d"/>
            <path id="Trazado_998450" data-name="Trazado 998450" d="M110.835,88.975h8.158c.655-1.3,1.25-2.641,1.815-3.995h-7.844c-.659,1.363-1.365,2.7-2.13,3.995" transform="translate(1.732 1.314)" fill="#19538d"/>
            <path id="Trazado_998451" data-name="Trazado 998451" d="M127.263,62.338A62.358,62.358,0,0,0,5.373,43.8h7.568A55.178,55.178,0,1,1,116.109,82.912h7.644a62.054,62.054,0,0,0,3.51-20.574" transform="translate(0.084)" fill="#19538d"/>
            <path id="Trazado_998452" data-name="Trazado 998452" d="M108.562,81.649v3.383H113q.8-1.662,1.5-3.383Z" transform="translate(1.696 1.263)" fill="#19538d"/>
            <path id="Trazado_998453" data-name="Trazado 998453" d="M128.115,81.649h-6.163q-.6,1.715-1.3,3.383h7.46Z" transform="translate(1.885 1.263)" fill="#19538d"/>
          </g>
        </g>
        <path id="Trazado_998444" data-name="Trazado 998444" d="M3.057,37.025,0,43.248H18.482l3.058-6.223Z" transform="translate(0 0.565)" fill="#62249e"/>
      </g>
    </g>
    <g id="Grupo_1184604" data-name="Grupo 1184604" transform="translate(37.416 39.525)">
      <g id="Grupo_1184603" data-name="Grupo 1184603" clip-path="url(#clip-path-2)">
        <path id="Trazado_1002505" data-name="Trazado 1002505" d="M86.7,86.753l-40.149.017a3.687,3.687,0,0,1-3.869-3.709L42.7,46.277a3.621,3.621,0,0,1,3.715-3.558l40.3,0a3.651,3.651,0,0,1,3.7,3.722l0,36.621A3.623,3.623,0,0,1,86.7,86.753m-.023-1.794a1.841,1.841,0,0,0,1.891-1.893l0-36.623a1.853,1.853,0,0,0-1.969-1.908l-40.221.005a1.858,1.858,0,0,0-1.866,1.8l.006,36.681a1.908,1.908,0,0,0,2.037,1.944Z" transform="translate(-35.339 -35.366)" fill="#19538d"/>
        <path id="Trazado_1002506" data-name="Trazado 1002506" d="M1.858,3.592l-.016,36.7a1.842,1.842,0,0,0,1.944,1.934,12.093,12.093,0,0,1,1.7.032,9.876,9.876,0,0,1-.009,1.823,9.673,9.673,0,0,1-2.725-.15A3.65,3.65,0,0,1,0,40.3L0,3.851A3.7,3.7,0,0,1,3.817,0L44.045.007A3.638,3.638,0,0,1,47.657,3,9.626,9.626,0,0,1,47.7,5.491a7.492,7.492,0,0,1-1.734,0c-.136-.67-.006-1.269-.079-1.951A1.857,1.857,0,0,0,44,1.822L3.675,1.83A1.789,1.789,0,0,0,1.858,3.592" transform="translate(0 0)" fill="#19538d"/>
        <rect id="Rectángulo_466228" data-name="Rectángulo 466228" width="1.861" height="1.859" transform="translate(3.655 3.668)" fill="#19538d"/>
        <path id="Trazado_1002507" data-name="Trazado 1002507" d="M65.8,23.031a5.974,5.974,0,0,1-1.775.061,14.776,14.776,0,0,1-.033-1.725,4.28,4.28,0,0,1,1.8-.033,9.525,9.525,0,0,1,.012,1.7" transform="translate(-52.97 -17.597)" fill="#19538d"/>
        <rect id="Rectángulo_466229" data-name="Rectángulo 466229" width="1.839" height="1.854" transform="translate(7.34 3.673)" fill="#19538d"/>
        <rect id="Rectángulo_466230" data-name="Rectángulo 466230" width="40.407" height="1.883" transform="translate(11.02 14.673)" fill="#19538d"/>
        <path id="Trazado_1002508" data-name="Trazado 1002508" d="M71.266,113.9,64,113.9a8.834,8.834,0,0,1,0-1.8l7.219,0a4.843,4.843,0,0,1,.046,1.8" transform="translate(-52.945 -92.805)" fill="#19538d"/>
        <rect id="Rectángulo_466231" data-name="Rectángulo 466231" width="5.503" height="1.842" transform="translate(11.02 22.941)" fill="#19538d"/>
        <rect id="Rectángulo_466232" data-name="Rectángulo 466232" width="5.526" height="1.824" transform="translate(45.903 45.9)" fill="#19538d"/>
        <path id="Trazado_1002509" data-name="Trazado 1002509" d="M65.8,65.657a4.152,4.152,0,0,1-1.8.009A8.81,8.81,0,0,1,64,63.955a5.612,5.612,0,0,1,1.76,0,12.221,12.221,0,0,1,.037,1.7" transform="translate(-52.945 -52.889)" fill="#19538d"/>
        <rect id="Rectángulo_466233" data-name="Rectángulo 466233" width="1.832" height="1.841" transform="translate(14.69 11.011)" fill="#19538d"/>
        <rect id="Rectángulo_466234" data-name="Rectángulo 466234" width="1.839" height="1.841" transform="translate(18.363 11.011)" fill="#19538d"/>
        <path id="Trazado_1002510" data-name="Trazado 1002510" d="M113.4,136.036l-5.36,0a.967.967,0,0,1-1.034-1.03l-.014-2.26-1.727-.723c-.937.585-1.972,2.734-3.1,1.6L98.4,129.861c-1.115-1.118,1.078-2.175,1.6-3.089l-.669-1.689c-1.044-.314-3.348.564-3.347-1.082l0-5.337c0-1.561,2.43-.746,3.366-1.048a15.391,15.391,0,0,0,.64-1.705l-1.645-1.7a.916.916,0,0,1,0-1.277l3.862-3.874a.959.959,0,0,1,1.32-.016l1.719,1.675,1.7-.7c.26-.956-.5-3.324.967-3.326l5.423-.01c1.6,0,.745,2.348,1.055,3.335l1.7.682,1.741-1.679a.948.948,0,0,1,1.308.055l3.715,3.695a1.025,1.025,0,0,1,.146,1.439l-1.674,1.73.678,1.676c.894.319,3.344-.513,3.341,1.069l-.008,5.41c0,1.5-2.279.723-3.315.973a13.7,13.7,0,0,0-.681,1.776l1.632,1.658a.95.95,0,0,1,0,1.317l-3.775,3.791c-1.151,1.155-2.071-.87-3.09-1.574a12.645,12.645,0,0,0-1.757.731l-.027,2.395a.9.9,0,0,1-.937.882m-.917-1.829c.232-1.305-.436-2.731.788-3.1,1.73-.523,2.96-1.551,3.585-.944l1.593,1.547,2.563-2.542c-.668-1.013-2.256-1.628-1.6-2.788a11.254,11.254,0,0,0,1-2.417c.375-1.27,1.958-.518,3.1-.832l-.005-3.552c-1.124-.2-2.72.425-3.079-.778a12.769,12.769,0,0,0-1.056-2.547c-.56-1.019.97-1.73,1.644-2.663l-2.5-2.568c-.979.565-1.638,2.286-2.859,1.591a10.56,10.56,0,0,0-2.343-.969c-1.266-.366-.625-1.889-.816-3.123l-3.586-.018c-.3,1.112.453,2.748-.845,3.119-1.748.5-2.913,1.562-3.564.945l-1.634-1.549-2.535,2.524a10.06,10.06,0,0,0,1.3,1.354c1.047.965-.091,1.662-.707,3.862-.366,1.307-2.13.555-3.1.869l.025,3.514c1.16.3,2.717-.452,3.092.859a11.073,11.073,0,0,0,.967,2.335c.682,1.239-.968,1.872-1.578,2.855L102.9,131.7l1.655-1.573c.569-.541,1.876.5,3.469.953,1.333.383.623,1.835.868,3.1Z" transform="translate(-79.464 -88.316)" fill="#19538d"/>
        <path id="Trazado_1002511" data-name="Trazado 1002511" d="M156.871,161.12a6.421,6.421,0,1,1-6.421-6.421,6.421,6.421,0,0,1,6.421,6.421m-1.848,0a4.572,4.572,0,1,0-4.572,4.572,4.572,4.572,0,0,0,4.572-4.572" transform="translate(-119.238 -128.071)" fill="#19538d"/>
      </g>
    </g>
  </g>
</svg>
