<svg xmlns="http://www.w3.org/2000/svg" xmlns:xlink="http://www.w3.org/1999/xlink" width="130" height="130" viewBox="0 0 130 130">
  <defs>
    <clipPath id="clip-path">
      <rect id="Rectángulo_455533" data-name="Rectángulo 455533" width="130" height="124.675" fill="#19538d"/>
    </clipPath>
    <clipPath id="clip-path-2">
      <rect id="Rectángulo_466227" data-name="Rectángulo 466227" width="56.906" height="49.322" fill="#19538d"/>
    </clipPath>
  </defs>
  <g id="Grupo_1183525" data-name="Grupo 1183525" transform="translate(0.295 -0.228)">
    <ellipse id="Elipse_13674" data-name="Elipse 13674" cx="55.433" cy="55.433" rx="55.433" ry="55.433" transform="translate(9.272 9.794)" fill="#fff"/>
    <g id="Grupo_1179062" data-name="Grupo 1179062" transform="translate(-0.295 0.228)">
      <rect id="Rectángulo_455531" data-name="Rectángulo 455531" width="130" height="130" transform="translate(0 0)" fill="none"/>
      <g id="Grupo_1179061" data-name="Grupo 1179061" transform="translate(0 3.059)">
        <path id="Trazado_998445" data-name="Trazado 998445" d="M121.348,97.577H96.727l3.337-6.223h24.621Z" transform="translate(1.399 1.395)" fill="#62249e"/>
        <path id="Trazado_998446" data-name="Trazado 998446" d="M2.024,86.893,0,91.012H27.145l2.024-4.119Z" transform="translate(0 1.333)" fill="#19538d"/>
        <path id="Trazado_998447" data-name="Trazado 998447" d="M124.8,32.583h-26l2.038-4.616h26Z" transform="translate(1.439 0.429)" fill="#19538d"/>
        <path id="Trazado_998448" data-name="Trazado 998448" d="M37.632,12.837H3.483L5.521,8.221H39.671Z" transform="translate(0.067 0.158)" fill="#19538d"/>
        <g id="Grupo_1179060" data-name="Grupo 1179060" transform="translate(0)">
          <g id="Grupo_1179059" data-name="Grupo 1179059" clip-path="url(#clip-path)">
            <path id="Trazado_998449" data-name="Trazado 998449" d="M64.959,116.745A55.15,55.15,0,0,1,11.184,49.237H3.839a62.343,62.343,0,0,0,109.679,51.42H103.9a55,55,0,0,1-38.942,16.088" transform="translate(0.041 0.762)" fill="#19538d"/>
            <path id="Trazado_998450" data-name="Trazado 998450" d="M110.835,88.975h8.158c.655-1.3,1.25-2.641,1.815-3.995h-7.844c-.659,1.363-1.365,2.7-2.13,3.995" transform="translate(1.732 1.314)" fill="#19538d"/>
            <path id="Trazado_998451" data-name="Trazado 998451" d="M127.263,62.338A62.358,62.358,0,0,0,5.373,43.8h7.568A55.178,55.178,0,1,1,116.109,82.912h7.644a62.054,62.054,0,0,0,3.51-20.574" transform="translate(0.084)" fill="#19538d"/>
            <path id="Trazado_998452" data-name="Trazado 998452" d="M108.562,81.649v3.383H113q.8-1.662,1.5-3.383Z" transform="translate(1.696 1.263)" fill="#19538d"/>
            <path id="Trazado_998453" data-name="Trazado 998453" d="M128.115,81.649h-6.163q-.6,1.715-1.3,3.383h7.46Z" transform="translate(1.885 1.263)" fill="#19538d"/>
          </g>
        </g>
        <path id="Trazado_998444" data-name="Trazado 998444" d="M3.057,37.025,0,43.248H18.482l3.058-6.223Z" transform="translate(0 0.565)" fill="#62249e"/>
      </g>
    </g>
    <g id="Grupo_1184602" data-name="Grupo 1184602" transform="translate(36.252 40.566)">
      <g id="Grupo_1184601" data-name="Grupo 1184601" clip-path="url(#clip-path-2)">
        <path id="Trazado_1002498" data-name="Trazado 1002498" d="M48.058,49.315l-39.125.006A3.817,3.817,0,0,1,5.9,47.767L3.346,44.589A2.911,2.911,0,0,1,.041,41.911c-.058-1.38-.046-2.72,0-4.1.058-1.919,1.831-3,3.743-2.666L3.8,2.832A2.844,2.844,0,0,1,6.631,0L50.456.009a2.761,2.761,0,0,1,2.651,2.807l.019,32.329a2.952,2.952,0,0,1,3.744,2.665c.045,1.38.053,2.722,0,4.1a2.914,2.914,0,0,1-3.3,2.683l-2.719,3.345a3.548,3.548,0,0,1-2.791,1.378M35.13,37.881c-.232-1.357.308-2.71,1.521-2.716L51.2,35.1V3c0-.612-.249-1.079-.915-1.079l-43.657,0a.9.9,0,0,0-.911.905L5.71,35.1l14.556.071c1.337.007,1.708,1.6,1.54,2.766Zm19.845.019a.944.944,0,0,0-.963-.922L36.921,37c.3,1.374-.309,2.807-1.709,2.8l-13.678-.031c-1.317,0-1.824-1.525-1.551-2.766l-16.76-.043c-.707,0-1.3.259-1.3,1.032l.012,3.741a.872.872,0,0,0,.959.911H54.014a.876.876,0,0,0,.962-.908Zm-7.1,9.51c1.477,0,2.323-1.73,3.144-2.824H5.887a16.655,16.655,0,0,0,1.686,2.191,1.8,1.8,0,0,0,1.535.635Z" transform="translate(-0.001 0)" fill="#19538d"/>
        <path id="Trazado_1002499" data-name="Trazado 1002499" d="M23.848,218.785a.886.886,0,0,1,.332,1.236c-.382.692-2.2.766-2.6-.032a.9.9,0,0,1,.444-1.257,2.525,2.525,0,0,1,1.823.053" transform="translate(-17.665 -179.732)" fill="#19538d"/>
        <path id="Trazado_1002500" data-name="Trazado 1002500" d="M50.435,218.747a.9.9,0,0,1,.422,1.273,1.806,1.806,0,0,1-2.609-.034.908.908,0,0,1,.379-1.219,2.54,2.54,0,0,1,1.807-.02" transform="translate(-39.593 -179.735)" fill="#19538d"/>
        <path id="Trazado_1002501" data-name="Trazado 1002501" d="M82.633,50.924H44.393a1.906,1.906,0,0,1-1.7-1.97l0-25.564a1.824,1.824,0,0,1,1.694-1.809l38.339-.015a1.875,1.875,0,0,1,1.7,1.829L84.416,48.95a1.894,1.894,0,0,1-1.782,1.973M44.593,49.04H82.521V23.435H44.593Z" transform="translate(-35.104 -17.731)" fill="#19538d"/>
        <path id="Trazado_1002502" data-name="Trazado 1002502" d="M144.42,66.5a2.792,2.792,0,0,1-3.115,2.4,2.84,2.84,0,0,1-2.49-3.311l1.914-15.145a2.8,2.8,0,0,1,3.13-2.342,2.857,2.857,0,0,1,2.464,3.318Zm-1.833-.459,1.865-15.023A.927.927,0,0,0,143.538,50a.945.945,0,0,0-.97.885l-1.884,15.112a.935.935,0,0,0,.907,1.032c.506.006.91-.288,1-.985" transform="translate(-114.117 -39.532)" fill="#19538d"/>
        <path id="Trazado_1002503" data-name="Trazado 1002503" d="M70.817,78.622l-5.758-4.788a2.813,2.813,0,0,1,0-4.354l5.808-4.822a2.818,2.818,0,0,1,3.883.444,2.865,2.865,0,0,1-.416,4.048L71.37,71.658l2.962,2.5a2.86,2.86,0,0,1,.5,3.943,2.792,2.792,0,0,1-4.015.516m2.206-3.084-3.81-3.192a.9.9,0,0,1,0-1.377l3.952-3.328a.932.932,0,0,0,.089-1.363.922.922,0,0,0-1.239-.122L66.311,70.9a1.014,1.014,0,0,0,.088,1.609l5.634,4.658a.953.953,0,0,0,1.306-.23,1,1,0,0,0-.316-1.4" transform="translate(-52.646 -52.683)" fill="#19538d"/>
        <path id="Trazado_1002504" data-name="Trazado 1002504" d="M196.788,78.576a2.834,2.834,0,0,1-4.125-.443,2.944,2.944,0,0,1,.786-4.206c.927-.691,1.734-1.431,2.679-2.246l-2.969-2.509a2.861,2.861,0,0,1-.421-4.039,2.824,2.824,0,0,1,3.958-.406l5.736,4.772a2.815,2.815,0,0,1,.007,4.358Zm-1.267-1.423,5.667-4.711a.989.989,0,0,0,0-1.523l-5.619-4.682a.952.952,0,0,0-1.34.078.934.934,0,0,0,.1,1.345l3.949,3.332a.9.9,0,0,1,.006,1.377l-3.95,3.329a.926.926,0,0,0-.093,1.362.943.943,0,0,0,1.279.092" transform="translate(-157.942 -52.703)" fill="#19538d"/>
      </g>
    </g>
  </g>
</svg>
