<svg xmlns="http://www.w3.org/2000/svg" xmlns:xlink="http://www.w3.org/1999/xlink" width="80" height="80" viewBox="0 0 80 80">
  <defs>
    <clipPath id="clip-path">
      <rect id="Rectángulo_466250" data-name="Rectángulo 466250" width="48.946" height="48.818" fill="#19538d"/>
    </clipPath>
  </defs>
  <g id="Grupo_1183619" data-name="Grupo 1183619" transform="translate(-705.629 -1685)">
    <g id="Grupo_1178970" data-name="Grupo 1178970" transform="translate(705.629 1685)">
      <path id="Sustracción_110" data-name="Sustracción 110" d="M80,80h0L32.943,80l-1.885-4.512H5.651L3.767,80H0V0H48.35l1.883,4.51H75.644L77.528,0H80V80Z" transform="translate(0)" fill="#ffd470"/>
    </g>
    <path id="Trazado_998456" data-name="Trazado 998456" d="M-3,0H18.647l2.824,6.588H-.176Z" transform="translate(763.217 1685)" fill="#19538d"/>
    <g id="Grupo_1184617" data-name="Grupo 1184617" transform="translate(721.156 1700.591)">
      <g id="Grupo_1184616" data-name="Grupo 1184616" clip-path="url(#clip-path)">
        <path id="Trazado_1002541" data-name="Trazado 1002541" d="M17.066,43.474l.009-2.507-6.889-.061a.673.673,0,0,1-.669-.735.7.7,0,0,1,.743-.684l15.253-.009c.094-.656.018-1.223.054-1.84A1.481,1.481,0,0,1,27.4,36.3a1.559,1.559,0,0,0,.061-1.254l-25.985,0a21.322,21.322,0,0,0-.042,2.722A1.744,1.744,0,0,0,3.2,39.488l2.6,0a.7.7,0,0,1,.728.68.713.713,0,0,1-.781.749l-2.617,0A3.123,3.123,0,0,1,0,37.772l0-34.7A3.032,3.032,0,0,1,2.77,0H46.179a3.029,3.029,0,0,1,2.767,3.07L48.907,37.6a3.251,3.251,0,0,1-2.426,3.245,1.5,1.5,0,0,1-1.5,1.731l-13.109.006a1.01,1.01,0,0,0,0,.833,10.525,10.525,0,0,0,2.085.073,2.621,2.621,0,0,1,2.608,2.4c.044.573,0,1.134.012,1.711a1.165,1.165,0,0,1-1.247,1.22l-21.846,0c-1.433,0-1.17-1.752-1.15-2.772a2.55,2.55,0,0,1,2.512-2.54ZM47.449,8.257l0-5.2a1.671,1.671,0,0,0-1.735-1.671H3.233A1.671,1.671,0,0,0,1.5,3.06l.008,5.2ZM45,25.528a27.2,27.2,0,0,0-.034-3.416l-3.971-.032a.685.685,0,0,1-.68-.739A.722.722,0,0,1,41,20.668l3.984-.011a1.469,1.469,0,0,1,1.491,1.521l0,3.221a1.583,1.583,0,0,1-.514,1.224,2.046,2.046,0,0,1-1.429.367c.011.392-.177,1.063.066,1.409.392.216.977.02,1.34.387a1.675,1.675,0,0,1,.537,1.2l.007,3.609a1.328,1.328,0,0,0,.986-.1l0-23.8-46.038,0-.011,23.92,24.139.012.022-3.917a1.465,1.465,0,0,1,1.843-1.184,2.811,2.811,0,0,0,.053-1.545,1.529,1.529,0,0,1-1.907-1.407l0-3.533a1.377,1.377,0,0,1,1.354-1.364l9.63,0a.742.742,0,0,1,.689.68.7.7,0,0,1-.681.739l-9.574.042.011,3.4ZM28.959,26.974v1.52l14.078,0v-1.52Zm16.063,2.92H26.975v3.461H45.022Zm-16.063,4.88v1.5l14.078,0v-1.5Zm17.6,4.488c1.361-.616.825-2.887.887-4.188a20.334,20.334,0,0,0-2.895.009c-.041.336-.186,1.022.113,1.13.532.145,1.008.094,1.362.457.756.776.282,1.673.533,2.592m-1.532-1.543H26.975v3.438H45.022Zm-14.782,4.9c-1.144-.058-2.153-.062-3.155-.019-1.076.046-1.405-.814-1.635-1.632l-6.909-.021a11.948,11.948,0,0,0,.045,2.552l11.664-.021c.21-.081.211-.848-.01-.859m4.86,3.258a1.161,1.161,0,0,0-1.155-.946L15,44.922a1.2,1.2,0,0,0-1.217,1,4.521,4.521,0,0,0,.014,1.5l21.311-.006a5.043,5.043,0,0,0-.007-1.543" fill="#19538d"/>
        <path id="Trazado_1002542" data-name="Trazado 1002542" d="M153.578,94.088l-15.034.02a.728.728,0,0,1-.8-.69c-.021-.439.312-.733.811-.732l14.973.007a.686.686,0,0,1,.7.594.7.7,0,0,1-.648.8" transform="translate(-116.663 -78.503)" fill="#19538d"/>
        <path id="Trazado_1002543" data-name="Trazado 1002543" d="M81.432,137.244l-8.412,0a.7.7,0,0,1-.723-.689.664.664,0,0,1,.715-.7l8.413-.006a.688.688,0,0,1,.752.7.709.709,0,0,1-.746.706" transform="translate(-61.236 -115.056)" fill="#19538d"/>
        <path id="Trazado_1002544" data-name="Trazado 1002544" d="M60.233,156.852l-5.967.008a.768.768,0,0,1-.842-.7.73.73,0,0,1,.745-.748l6.041,0a.726.726,0,0,1,.743.635.718.718,0,0,1-.72.807" transform="translate(-45.249 -131.631)" fill="#19538d"/>
        <path id="Trazado_1002545" data-name="Trazado 1002545" d="M188.286,114.587l-6.145.014a.731.731,0,0,1-.707-.653.742.742,0,0,1,.717-.789h6.086a.747.747,0,0,1,.71.684.714.714,0,0,1-.662.743" transform="translate(-153.671 -95.845)" fill="#19538d"/>
        <path id="Trazado_1002546" data-name="Trazado 1002546" d="M22.672,81.894c.519.89,2.47,1.861,1.7,2.726a.7.7,0,0,1-1.034.02l-2.2-2.2a.777.777,0,0,1,.024-1.1l2.227-2.2a.709.709,0,0,1,1,.056.753.753,0,0,1-.066,1.009Z" transform="translate(-17.715 -66.882)" fill="#19538d"/>
        <path id="Trazado_1002547" data-name="Trazado 1002547" d="M71.964,84.582a.752.752,0,0,1-1,.153.711.711,0,0,1-.106-1.05l1.7-1.78-1.678-1.719a.741.741,0,0,1-.032-.982.726.726,0,0,1,1.028-.024l2.213,2.214a.748.748,0,0,1-.026,1.081Z" transform="translate(-59.86 -66.895)" fill="#19538d"/>
        <path id="Trazado_1002548" data-name="Trazado 1002548" d="M116.684,176.4l-6.188.016a.725.725,0,1,1,0-1.441l6.1,0a.741.741,0,0,1,.764.581.691.691,0,0,1-.678.842" transform="translate(-92.907 -148.207)" fill="#19538d"/>
        <path id="Trazado_1002549" data-name="Trazado 1002549" d="M109.328,114.517l-4.992.018a.738.738,0,1,1-.008-1.465l4.893,0a.732.732,0,0,1,.8.67.685.685,0,0,1-.687.772" transform="translate(-87.661 -95.77)" fill="#19538d"/>
        <path id="Trazado_1002550" data-name="Trazado 1002550" d="M49.147,84.392a.712.712,0,1,1-1.342-.473l1.727-4.405a.739.739,0,0,1,.892-.489.709.709,0,0,1,.457.95Z" transform="translate(-40.447 -66.911)" fill="#19538d"/>
        <path id="Trazado_1002551" data-name="Trazado 1002551" d="M251.363,152.417l-4.818.027a.713.713,0,0,1-.8-.736.7.7,0,0,1,.794-.674l4.745.007a.677.677,0,0,1,.7.559.651.651,0,0,1-.619.817" transform="translate(-208.144 -127.925)" fill="#19538d"/>
        <path id="Trazado_1002552" data-name="Trazado 1002552" d="M67.75,176.439l-4.832.012a.712.712,0,1,1,.021-1.424h4.717a.7.7,0,0,1,.72.562.667.667,0,0,1-.625.85" transform="translate(-52.677 -148.246)" fill="#19538d"/>
        <path id="Trazado_1002553" data-name="Trazado 1002553" d="M29.121,137.246l-4.673.016a.719.719,0,0,1-.805-.705c-.012-.445.3-.7.805-.7l4.6,0a.7.7,0,0,1,.781.57.681.681,0,0,1-.708.819" transform="translate(-20.025 -115.066)" fill="#19538d"/>
        <path id="Trazado_1002554" data-name="Trazado 1002554" d="M28.053,176.391l-3.6.02a.718.718,0,0,1-.809-.742.73.73,0,0,1,.82-.7l3.5.007a.75.75,0,0,1,.751.57.688.688,0,0,1-.666.844" transform="translate(-20.03 -148.198)" fill="#19538d"/>
        <path id="Trazado_1002555" data-name="Trazado 1002555" d="M188.142,152.461l-3.375,0a.689.689,0,0,1-.749-.707.72.72,0,0,1,.757-.686l3.364,0a.693.693,0,0,1,.73.684.673.673,0,0,1-.727.7" transform="translate(-155.861 -127.957)" fill="#19538d"/>
        <path id="Trazado_1002556" data-name="Trazado 1002556" d="M136.714,156.639l-2.133-.007a.715.715,0,0,1-.8-.665c-.057-1.073,1.475-.783,2.908-.782a.745.745,0,0,1,.789.633.723.723,0,0,1-.769.821" transform="translate(-113.315 -131.41)" fill="#19538d"/>
        <path id="Trazado_1002557" data-name="Trazado 1002557" d="M107.36,93.283c.148,1.135-1.718.829-3.184.823a.708.708,0,0,1-.676-.677c-.008-.483.335-.736.828-.734l2.306.013a.678.678,0,0,1,.726.575" transform="translate(-87.663 -78.512)" fill="#19538d"/>
        <path id="Trazado_1002558" data-name="Trazado 1002558" d="M156.229,113.524c.093,1.048-1.714.815-2.8.765a.7.7,0,0,1-.695-.628c-.1-1.078,1.626-.859,2.782-.795a.73.73,0,0,1,.709.657" transform="translate(-129.365 -95.545)" fill="#19538d"/>
        <path id="Trazado_1002559" data-name="Trazado 1002559" d="M27.06,155.8c.09,1.1-1.346.827-2.612.823a.726.726,0,0,1-.807-.681.7.7,0,0,1,.716-.759c1.03-.038,2.632-.247,2.7.617" transform="translate(-20.023 -131.395)" fill="#19538d"/>
        <path id="Trazado_1002560" data-name="Trazado 1002560" d="M113.335,156.069c-.053.83-1.1.743-1.951.662a.677.677,0,0,1-.668-.648.689.689,0,0,1,.7-.773,6.021,6.021,0,0,1,1.261.01.693.693,0,0,1,.655.748" transform="translate(-93.774 -131.523)" fill="#19538d"/>
        <path id="Trazado_1002561" data-name="Trazado 1002561" d="M224.575,152.245c-.536.164-2.125.336-2.112-.631a.7.7,0,0,1,.682-.67c.654-.042,1.586-.13,1.777.409a.654.654,0,0,1-.347.891" transform="translate(-188.425 -127.822)" fill="#19538d"/>
        <path id="Trazado_1002562" data-name="Trazado 1002562" d="M94.981,19.768a2.092,2.092,0,1,1-2.092-2.092,2.092,2.092,0,0,1,2.092,2.092m-1.441-.005a.647.647,0,1,0-.647.647.647.647,0,0,0,.647-.647" transform="translate(-76.904 -14.971)" fill="#19538d"/>
        <path id="Trazado_1002563" data-name="Trazado 1002563" d="M25,19.766a2.092,2.092,0,1,1-2.092-2.092A2.092,2.092,0,0,1,25,19.766m-1.441,0a.647.647,0,1,0-.647.647.647.647,0,0,0,.647-.647" transform="translate(-17.631 -14.97)" fill="#19538d"/>
        <path id="Trazado_1002564" data-name="Trazado 1002564" d="M59.992,19.764A2.092,2.092,0,1,1,57.9,17.673a2.092,2.092,0,0,1,2.092,2.091m-1.441,0a.647.647,0,1,0-.647.647.647.647,0,0,0,.647-.647" transform="translate(-47.27 -14.969)" fill="#19538d"/>
        <path id="Trazado_1002565" data-name="Trazado 1002565" d="M251.3,203.42l-4.752.016a.732.732,0,0,1-.793-.76.717.717,0,0,1,.8-.679L251.3,202a.713.713,0,0,1,.7.685.693.693,0,0,1-.7.731" transform="translate(-208.154 -171.089)" fill="#19538d"/>
        <path id="Trazado_1002566" data-name="Trazado 1002566" d="M188.154,203.44l-3.377,0a.719.719,0,0,1-.754-.731.732.732,0,0,1,.761-.7l3.355,0a.711.711,0,0,1,.733.692.694.694,0,0,1-.718.73" transform="translate(-155.866 -171.104)" fill="#19538d"/>
        <path id="Trazado_1002567" data-name="Trazado 1002567" d="M224.438,203.242a4.344,4.344,0,0,1-1.292.03.713.713,0,0,1-.682-.734c0-.825,1.239-.744,1.893-.663a.709.709,0,0,1,.608.55.672.672,0,0,1-.527.817" transform="translate(-188.425 -170.945)" fill="#19538d"/>
        <path id="Trazado_1002568" data-name="Trazado 1002568" d="M251.388,254.428l-4.822.028a.722.722,0,0,1-.793-.754.712.712,0,0,1,.788-.68l4.743.008a.71.71,0,0,1,.7.564.664.664,0,0,1-.614.833" transform="translate(-208.167 -214.308)" fill="#19538d"/>
        <path id="Trazado_1002569" data-name="Trazado 1002569" d="M188.862,253.638c.288,1.252-2.453.863-4.082.86a.711.711,0,1,1,0-1.42h3.362a.73.73,0,0,1,.72.56" transform="translate(-155.867 -214.355)" fill="#19538d"/>
        <path id="Trazado_1002570" data-name="Trazado 1002570" d="M224.686,254.076a3.2,3.2,0,0,1-1.831.021.672.672,0,0,1-.389-.746c.2-.881,2.2-.764,2.454-.135a.76.76,0,0,1-.234.86" transform="translate(-188.417 -214.05)" fill="#19538d"/>
      </g>
    </g>
  </g>
</svg>
