<svg xmlns="http://www.w3.org/2000/svg" xmlns:xlink="http://www.w3.org/1999/xlink" width="128" height="128" viewBox="0 0 128 128">
  <defs>
    <clipPath id="clip-path">
      <rect id="Rectángulo_455533" data-name="Rectángulo 455533" width="128" height="122.776" fill="#19538d"/>
    </clipPath>
    <clipPath id="clip-path-2">
      <rect id="Rectángulo_466255" data-name="Rectángulo 466255" width="52.924" height="50.329" fill="#19538d"/>
    </clipPath>
  </defs>
  <g id="Grupo_1183635" data-name="Grupo 1183635" transform="translate(-383.746 -8399)">
    <circle id="Elipse_13674" data-name="Elipse 13674" cx="54.5" cy="54.5" r="54.5" transform="translate(392.746 8409)" fill="#fff"/>
    <g id="Grupo_1179062" data-name="Grupo 1179062" transform="translate(272)">
      <rect id="Rectángulo_455531" data-name="Rectángulo 455531" width="128" height="128" transform="translate(111.746 8399)" fill="none"/>
      <g id="Grupo_1179061" data-name="Grupo 1179061" transform="translate(111.746 8402)">
        <path id="Trazado_998445" data-name="Trazado 998445" d="M120.883,97.46H96.727L100,91.354h24.156Z" fill="#62249e"/>
        <path id="Trazado_998446" data-name="Trazado 998446" d="M1.985,86.893,0,90.934H26.632l1.986-4.041Z" fill="#19538d"/>
        <path id="Trazado_998447" data-name="Trazado 998447" d="M124.314,32.5H98.809l2-4.529h25.505Z" fill="#19538d"/>
        <path id="Trazado_998448" data-name="Trazado 998448" d="M36.988,12.75H3.483l2-4.529h33.5Z" fill="#19538d"/>
        <g id="Grupo_1179060" data-name="Grupo 1179060">
          <g id="Grupo_1179059" data-name="Grupo 1179059" clip-path="url(#clip-path)">
            <path id="Trazado_998449" data-name="Trazado 998449" d="M64,115.717a54.31,54.31,0,0,1-52.948-66.48H3.82A61.384,61.384,0,0,0,111.812,99.874h-9.469A54.154,54.154,0,0,1,64,115.717" fill="#19538d"/>
            <path id="Trazado_998450" data-name="Trazado 998450" d="M110.835,88.914h8.033c.645-1.284,1.231-2.6,1.787-3.934h-7.723c-.649,1.342-1.344,2.656-2.1,3.934" fill="#19538d"/>
            <path id="Trazado_998451" data-name="Trazado 998451" d="M125.388,61.388A61.4,61.4,0,0,0,5.373,43.131h7.452A54.33,54.33,0,1,1,114.406,81.649h7.526a61.118,61.118,0,0,0,3.456-20.261" fill="#19538d"/>
            <path id="Trazado_998452" data-name="Trazado 998452" d="M108.562,81.649V84.98h4.37q.792-1.637,1.475-3.331Z" fill="#19538d"/>
            <path id="Trazado_998453" data-name="Trazado 998453" d="M128,81.649h-6.068q-.592,1.689-1.277,3.331H128Z" fill="#19538d"/>
          </g>
        </g>
        <path id="Trazado_998444" data-name="Trazado 998444" d="M3,37.025,0,43.131H18.134l3-6.106Z" fill="#62249e"/>
      </g>
    </g>
    <g id="Grupo_1184632" data-name="Grupo 1184632" transform="translate(418.243 8419.041)">
      <g id="Grupo_1184631" data-name="Grupo 1184631" transform="translate(3.295 17)" clip-path="url(#clip-path-2)">
        <path id="Trazado_1002592" data-name="Trazado 1002592" d="M9.175,50.317a.837.837,0,0,1-.952-.773l-.089-2.367L5.361,49.822a1.792,1.792,0,0,1-2.526-.028L.557,47.468a1.892,1.892,0,0,1,.074-2.745l6.113-5.945a18.988,18.988,0,0,0-2.492-.121A4.788,4.788,0,0,1,0,33.844V6.9A4.747,4.747,0,0,1,4.714,2.035L10.4,2.018c.616-.648,1.213-.349,1.931-.124A2.068,2.068,0,0,0,14,1.266c.292-.328.238-1.067.75-1.16a11.146,11.146,0,0,1,2.8-.036c.562.045.526.761.8,1.143a1.982,1.982,0,0,0,1.733.674c.752-.264,1.28-.45,1.941.129l26.155.026a4.75,4.75,0,0,1,4.73,4.849l.016,26.78A4.749,4.749,0,0,1,48.3,38.658L35.4,38.7l-.011,4.513,5.727.083a3.683,3.683,0,0,1,3.539,3.027,19.425,19.425,0,0,1,.04,3.2.85.85,0,0,1-.851.788Zm8.377-35.593c2.687-.786,1.06-1.091,3.18-.568.386.1.871-.485.746-.852-.624-1.838.027-.8.547-3,.257-1.088,1.436-.363,1.343-1.618-.056-.749-1.119-.343-1.343-1.3-.509-2.163-1.165-1.167-.547-3,.125-.369-.359-.941-.743-.848-.475.116-.883.444-1.375.183a7.288,7.288,0,0,0-1.675-.705c-1.133-.28-.414-1.384-1.556-1.351-.938.028-.345,1.088-1.505,1.385-2.157.551-1.037,1.081-2.928.489-.356-.111-.841.376-.821.729.022.384.451.761.284,1.143-1.368,3.113-.538,2.026-1.94,2.872a.8.8,0,0,0,0,1.122c.37.217.89.223,1.038.667.945,2.85,1.159,1.538.631,3.24-.121.39.407.947.8.824,1.969-.606.911.048,2.911.5,1.319.3.4,1.529,1.857,1.338.579-.076.294-1.023,1.09-1.255M3.963,32.025c-.47,0-.676-.542-.676-.922l0-24.363A1.306,1.306,0,0,1,4.436,5.381l4.9-.092L8.831,3.763c-1.358-.05-2.664-.041-4.06-.017A3.079,3.079,0,0,0,1.707,6.9l0,26.945a2.992,2.992,0,0,0,2.723,3.079c1.963.1,3.847.066,5.795,0,.469-.015.816-.687,1.076-.99a14.446,14.446,0,0,1-1.539-3.849Zm29.584.056a12.875,12.875,0,0,1-2.172,4.881l16.406.009a3.089,3.089,0,0,0,3.42-3.132V6.9a3.063,3.063,0,0,0-3.084-3.153L23.592,3.736a8.163,8.163,0,0,0-.546,1.6l25.41.032c.767,0,1.188.849,1.188,1.535V31.1a.942.942,0,0,1-.9.971ZM25.07,9.337c.116,1.073-.382,1.343-1.2,1.676a2.013,2.013,0,0,0-.748,1.71c.105.737,1.348.922-1.665,3.3-.433.342-.917-.16-1.344-.226a2.137,2.137,0,0,0-1.77.691c-.248.309-.2.973-.656,1.081a7.266,7.266,0,0,1-2.935.022c-.553-.109-.464-.942-.8-1.228-1.672-1.414-2.29.153-2.967-.318a9.353,9.353,0,0,1-1.952-1.918c-.511-.662,1.05-1.539-.376-3.057-.3-.316-1.04-.235-1.185-.719A6.852,6.852,0,0,1,7.49,7.074,22.917,22.917,0,0,0,5,7.084V30.318l4.563.039A12.155,12.155,0,0,1,29.108,20.083l.022-9.961a1.417,1.417,0,0,1,1.435-1.474l10.057-.013a1.664,1.664,0,0,1,1.219.463l3.144,3.137a1.567,1.567,0,0,1,.493,1.142l-.011,13.985a1.394,1.394,0,0,1-1.429,1.379l-10.221,0a4.561,4.561,0,0,0,.022,1.629l14.072-.013L47.917,7.05l-23.1.017a5.517,5.517,0,0,1,.257,2.27m8.551,17.71,10.137-.023.013-13.018c-1.2-.313-3.459.576-3.587-1.17l-.066-2.494-9.282.028,0,11.352a18.186,18.186,0,0,1,1.5,2.2,1.854,1.854,0,0,1,.976-.417l8.1.014a.84.84,0,0,1,.052,1.679l-8.483.037a7.155,7.155,0,0,0,.633,1.811m-1.547,2.626a10.4,10.4,0,1,0-10.4,10.4,10.4,10.4,0,0,0,10.4-10.4M11.019,40.241c.818-.683,1.39-1.314,2.053-1.974a1.888,1.888,0,0,0-.769-.791A20.573,20.573,0,0,0,10.29,39.52c-.154.217.513.9.73.72m22.63,2.99-.008-4.524-3.9,0a12.149,12.149,0,0,1-10.424,2.861,4.017,4.017,0,0,0,0,1.674Zm-16.143,0a11.945,11.945,0,0,0-.011-2.187A12.916,12.916,0,0,1,14.453,39.4l-2.328,2.174.006,1.661ZM8.052,39.886,1.628,46.13,4.11,48.683l6.423-6.245ZM42.971,48.6a6.036,6.036,0,0,0-.079-2.262,2.244,2.244,0,0,0-1.963-1.367l-28.787-.011a2.328,2.328,0,0,0-2.075,1.271,4.189,4.189,0,0,0-.061,2.379Z" transform="translate(0 0)" fill="#19538d"/>
        <path id="Trazado_1002593" data-name="Trazado 1002593" d="M198.5,95.075l-8.044,0a.858.858,0,0,1-.915-.806.879.879,0,0,1,.925-.907l8.03,0a.9.9,0,0,1,.942.79.863.863,0,0,1-.938.922" transform="translate(-157.187 -77.427)" fill="#19538d"/>
        <path id="Trazado_1002594" data-name="Trazado 1002594" d="M198.566,117.282l-8.109.01a.89.89,0,0,1-.931-.8.881.881,0,0,1,.936-.907l8.162.013a.841.841,0,0,1-.059,1.681" transform="translate(-157.176 -95.858)" fill="#19538d"/>
        <path id="Trazado_1002595" data-name="Trazado 1002595" d="M195.514,73.025l-5.049,0a.883.883,0,0,1-.921-.784.853.853,0,0,1,.918-.919l4.967,0a.863.863,0,0,1,.951.8.853.853,0,0,1-.866.9" transform="translate(-157.188 -59.149)" fill="#19538d"/>
        <path id="Trazado_1002596" data-name="Trazado 1002596" d="M92.5,130.421a8.937,8.937,0,1,1-8.937-8.937,8.937,8.937,0,0,1,8.937,8.937m-1.708,0a7.229,7.229,0,1,0-7.229,7.229,7.228,7.228,0,0,0,7.229-7.229" transform="translate(-61.886 -100.748)" fill="#19538d"/>
        <path id="Trazado_1002597" data-name="Trazado 1002597" d="M76.993,29.365a4.628,4.628,0,1,1-4.628-4.628,4.628,4.628,0,0,1,4.628,4.628m-1.709,0a2.92,2.92,0,1,0-2.92,2.92,2.92,2.92,0,0,0,2.92-2.92" transform="translate(-56.175 -20.515)" fill="#19538d"/>
        <path id="Trazado_1002598" data-name="Trazado 1002598" d="M93.958,153.494a2.088,2.088,0,0,1-.224-2.862,2.039,2.039,0,0,1,2.829-.315c.522.4.844.935,1.437,1.309l3.258-3.267a2.053,2.053,0,0,1,2.886-.079,2.023,2.023,0,0,1,.078,2.9l-4.9,4.943a1.888,1.888,0,0,1-2.65.039Zm4.023,1.531,5.092-5.15c.123-.124-.192-.435-.294-.417a.672.672,0,0,0-.4.19l-3.733,3.773a.884.884,0,0,1-1.335.035l-1.706-1.707a.38.38,0,0,0-.493-.064c-.574.426,2.318,2.719,2.869,3.34" transform="translate(-77.348 -122.509)" fill="#19538d"/>
      </g>
    </g>
  </g>
</svg>
