<svg xmlns="http://www.w3.org/2000/svg" xmlns:xlink="http://www.w3.org/1999/xlink" width="128" height="128" viewBox="0 0 128 128">
  <defs>
    <clipPath id="clip-path">
      <rect id="Rectángulo_455533" data-name="Rectángulo 455533" width="128" height="122.776" fill="#19538d"/>
    </clipPath>
    <clipPath id="clip-path-2">
      <rect id="Rectángulo_466256" data-name="Rectángulo 466256" width="62.666" height="46.102" fill="#19538d"/>
    </clipPath>
  </defs>
  <g id="Grupo_1183634" data-name="Grupo 1183634" transform="translate(-383.746 -8399)">
    <circle id="Elipse_13674" data-name="Elipse 13674" cx="54.5" cy="54.5" r="54.5" transform="translate(392.746 8409)" fill="#fff"/>
    <g id="Grupo_1179062" data-name="Grupo 1179062" transform="translate(272)">
      <rect id="Rectángulo_455531" data-name="Rectángulo 455531" width="128" height="128" transform="translate(111.746 8399)" fill="none"/>
      <g id="Grupo_1179061" data-name="Grupo 1179061" transform="translate(111.746 8402)">
        <path id="Trazado_998445" data-name="Trazado 998445" d="M120.883,97.46H96.727L100,91.354h24.156Z" fill="#62249e"/>
        <path id="Trazado_998446" data-name="Trazado 998446" d="M1.985,86.893,0,90.934H26.632l1.986-4.041Z" fill="#19538d"/>
        <path id="Trazado_998447" data-name="Trazado 998447" d="M124.314,32.5H98.809l2-4.529h25.505Z" fill="#19538d"/>
        <path id="Trazado_998448" data-name="Trazado 998448" d="M36.988,12.75H3.483l2-4.529h33.5Z" fill="#19538d"/>
        <g id="Grupo_1179060" data-name="Grupo 1179060">
          <g id="Grupo_1179059" data-name="Grupo 1179059" clip-path="url(#clip-path)">
            <path id="Trazado_998449" data-name="Trazado 998449" d="M64,115.717a54.31,54.31,0,0,1-52.948-66.48H3.82A61.384,61.384,0,0,0,111.812,99.874h-9.469A54.154,54.154,0,0,1,64,115.717" fill="#19538d"/>
            <path id="Trazado_998450" data-name="Trazado 998450" d="M110.835,88.914h8.033c.645-1.284,1.231-2.6,1.787-3.934h-7.723c-.649,1.342-1.344,2.656-2.1,3.934" fill="#19538d"/>
            <path id="Trazado_998451" data-name="Trazado 998451" d="M125.388,61.388A61.4,61.4,0,0,0,5.373,43.131h7.452A54.33,54.33,0,1,1,114.406,81.649h7.526a61.118,61.118,0,0,0,3.456-20.261" fill="#19538d"/>
            <path id="Trazado_998452" data-name="Trazado 998452" d="M108.562,81.649V84.98h4.37q.792-1.637,1.475-3.331Z" fill="#19538d"/>
            <path id="Trazado_998453" data-name="Trazado 998453" d="M128,81.649h-6.068q-.592,1.689-1.277,3.331H128Z" fill="#19538d"/>
          </g>
        </g>
        <path id="Trazado_998444" data-name="Trazado 998444" d="M3,37.025,0,43.131H18.134l3-6.106Z" fill="#62249e"/>
      </g>
    </g>
    <g id="Grupo_1184634" data-name="Grupo 1184634" transform="translate(416 8439.949)">
      <g id="Grupo_1184633" data-name="Grupo 1184633" clip-path="url(#clip-path-2)">
        <path id="Trazado_1002599" data-name="Trazado 1002599" d="M55.457,46.071,7.53,46.1A7.6,7.6,0,0,1,0,38.755a1.038,1.038,0,0,1,1.19-1.142c.19,0,.84.077.84-.274L2.049,4.672A4.54,4.54,0,0,1,6.583.014L55.986,0c2.919,0,4.729,2.213,4.727,5.028L60.7,37.574c.632.118,1.863-.175,1.941.678a7.357,7.357,0,0,1-7.183,7.819M53.907,37.6l.035-4.763a.917.917,0,0,1,.859-.981.9.9,0,0,1,.94.978l.031,4.72a15.408,15.408,0,0,0,3.092-.013L58.854,4.636a2.7,2.7,0,0,0-2.811-2.781L6.5,1.868A2.666,2.666,0,0,0,3.88,4.631L3.871,37.544a14.653,14.653,0,0,0,3.1,0l.006-15.1c0-.649.322-1.131.952-1.112a.93.93,0,0,1,.859.935l.015,15.344ZM39.893,39.517a3.882,3.882,0,0,1-3.613,2.95l-10.024-.009A3.953,3.953,0,0,1,22.825,39.5L1.937,39.488a5.714,5.714,0,0,0,5.749,4.757H55.05a5.716,5.716,0,0,0,5.75-4.764Zm-3.749,1.1a1.667,1.667,0,0,0,1.7-1.131l-12.973.04a1.813,1.813,0,0,0,1.807,1.1Z" transform="translate(-0.001 0)" fill="#19538d"/>
        <path id="Trazado_1002600" data-name="Trazado 1002600" d="M82.582,27.821l-45.119-.006L37.441,39.4a.9.9,0,1,1-1.8.025l.008-12.564a.909.909,0,0,1,.947-.884H83.443a.913.913,0,0,1,.951.9L84.4,49.783c0,.615-.284.987-.758,1.05a.913.913,0,0,1-1.06-.888Z" transform="translate(-28.65 -20.881)" fill="#19538d"/>
        <path id="Trazado_1002601" data-name="Trazado 1002601" d="M96.282,50.678a11.635,11.635,0,1,0,2.652-2.21.993.993,0,0,1-1.211-.2c-.209-.262-.329-.982.114-1.261a13.447,13.447,0,1,1-2.86,2.4.913.913,0,0,1,1.305,1.272" transform="translate(-73.579 -36.137)" fill="#19538d"/>
        <path id="Trazado_1002602" data-name="Trazado 1002602" d="M120.749,91.333a2.473,2.473,0,0,1,.191-3.653,2.551,2.551,0,0,1,3.576.37,19.99,19.99,0,0,0,1.605,1.57l5.414-5.371a2.45,2.45,0,0,1,3.429-.067,2.475,2.475,0,0,1,.078,3.585l-7.134,7.142a2.518,2.518,0,0,1-3.6,0Zm1.376-1.2,3.4,3.4a.742.742,0,0,0,1.1.067l7.128-7.138a.648.648,0,0,0-.121-.978.716.716,0,0,0-.9.147L126.847,91.5a.94.94,0,0,1-1.379.079l-2.566-2.5c-.258-.252-.74-.07-.918.169a.7.7,0,0,0,.141.88" transform="translate(-96.501 -67.144)" fill="#19538d"/>
      </g>
    </g>
  </g>
</svg>
