<svg xmlns="http://www.w3.org/2000/svg" xmlns:xlink="http://www.w3.org/1999/xlink" width="150.007" height="150.007" viewBox="0 0 150.007 150.007">
  <defs>
    <clipPath id="clip-path">
      <rect id="Rectángulo_455533" data-name="Rectángulo 455533" width="150.007" height="143.885" fill="#19538d"/>
    </clipPath>
    <clipPath id="clip-path-2">
      <rect id="Rectángulo_466253" data-name="Rectángulo 466253" width="66.161" height="61.719" fill="#19538d"/>
    </clipPath>
  </defs>
  <g id="Grupo_1183623" data-name="Grupo 1183623" transform="translate(0.295 -0.228)">
    <ellipse id="Elipse_13674" data-name="Elipse 13674" cx="64.003" cy="64.003" rx="64.003" ry="64.003" transform="translate(10.705 11.228)" fill="#fff"/>
    <g id="Grupo_1179062" data-name="Grupo 1179062" transform="translate(-0.295 0.228)">
      <rect id="Rectángulo_455531" data-name="Rectángulo 455531" width="150.007" height="150.007" transform="translate(0 0)" fill="none"/>
      <g id="Grupo_1179061" data-name="Grupo 1179061" transform="translate(0 3.517)">
        <path id="Trazado_998445" data-name="Trazado 998445" d="M125.037,98.51H96.727l3.837-7.156h28.309Z" transform="translate(16.631 15.706)" fill="#62249e"/>
        <path id="Trazado_998446" data-name="Trazado 998446" d="M2.327,86.893,0,91.629H31.211l2.327-4.736Z" transform="translate(0 14.939)" fill="#19538d"/>
        <path id="Trazado_998447" data-name="Trazado 998447" d="M128.7,33.274H98.809l2.344-5.308h29.89Z" transform="translate(16.989 4.808)" fill="#19538d"/>
        <path id="Trazado_998448" data-name="Trazado 998448" d="M42.749,13.528H3.483L5.827,8.221H45.092Z" transform="translate(0.599 1.413)" fill="#19538d"/>
        <g id="Grupo_1179060" data-name="Grupo 1179060" transform="translate(0)">
          <g id="Grupo_1179059" data-name="Grupo 1179059" clip-path="url(#clip-path)">
            <path id="Trazado_998449" data-name="Trazado 998449" d="M74.554,127.147A63.648,63.648,0,0,1,12.5,49.237H4.028A71.937,71.937,0,0,0,130.587,108.58h-11.1a63.465,63.465,0,0,1-44.935,18.567" transform="translate(0.449 8.465)" fill="#19538d"/>
            <path id="Trazado_998450" data-name="Trazado 998450" d="M110.835,89.59h9.414c.756-1.5,1.443-3.048,2.094-4.61h-9.051c-.761,1.573-1.575,3.113-2.458,4.61" transform="translate(19.056 14.611)" fill="#19538d"/>
            <path id="Trazado_998451" data-name="Trazado 998451" d="M146.022,71.942A71.954,71.954,0,0,0,5.373,50.547h8.733a63.671,63.671,0,1,1,119.046,45.14h8.82a71.625,71.625,0,0,0,4.05-23.744" transform="translate(0.924)" fill="#19538d"/>
            <path id="Trazado_998452" data-name="Trazado 998452" d="M108.562,81.649v3.9h5.121q.928-1.918,1.729-3.9Z" transform="translate(18.665 14.038)" fill="#19538d"/>
            <path id="Trazado_998453" data-name="Trazado 998453" d="M129.263,81.649h-7.111q-.694,1.979-1.5,3.9h8.608Z" transform="translate(20.744 14.038)" fill="#19538d"/>
          </g>
        </g>
        <path id="Trazado_998444" data-name="Trazado 998444" d="M3.515,37.025,0,44.181H21.251l3.516-7.156Z" transform="translate(0 6.366)" fill="#62249e"/>
      </g>
    </g>
    <g id="Grupo_1184625" data-name="Grupo 1184625" transform="translate(41.629 44.371)">
      <g id="Grupo_1184624" data-name="Grupo 1184624" clip-path="url(#clip-path-2)">
        <path id="Trazado_1002584" data-name="Trazado 1002584" d="M3.993,45.39A4.248,4.248,0,0,0,7.97,49.515l28.862,0a1.97,1.97,0,0,1,1.907,1.9,2.027,2.027,0,0,1-1.934,2.1L7.522,53.407C3.393,53.39,0,49.557,0,45.514L0,7.958A8.1,8.1,0,0,1,7.968,0L53.931.02A8.029,8.029,0,0,1,61.74,7.949L61.779,33.5a2,2,0,0,1-3.994-.011l-.033-15.43-53.772,0ZM57.734,14.032l.024-6.314a4.283,4.283,0,0,0-4.271-3.749l-45.276,0A4.2,4.2,0,0,0,4,7.949c-.1,2.04-.016,3.963-.008,6.091Z" transform="translate(0 0)" fill="#19538d"/>
        <path id="Trazado_1002585" data-name="Trazado 1002585" d="M191.974,171.946l-2.726,8.025a3.99,3.99,0,0,1-3.733,2.812,3.891,3.891,0,0,1-3.855-2.7l-5.922-19.519a3.965,3.965,0,0,1,4.788-4.782l19.358,5.848a4,4,0,0,1,.053,7.655Zm-1.266-3.751,7.816-2.765-18.861-5.764,5.736,18.9c1.15-2.682,1.786-5.2,2.712-7.751a4,4,0,0,1,2.6-2.617" transform="translate(-136.589 -121.065)" fill="#19538d"/>
        <path id="Trazado_1002586" data-name="Trazado 1002586" d="M44.318,34.3a1.768,1.768,0,1,1-1.768-1.768A1.768,1.768,0,0,1,44.318,34.3" transform="translate(-31.723 -25.309)" fill="#19538d"/>
        <path id="Trazado_1002587" data-name="Trazado 1002587" d="M72.624,34.317a1.771,1.771,0,1,1-1.77-1.77,1.77,1.77,0,0,1,1.77,1.77" transform="translate(-53.737 -25.317)" fill="#19538d"/>
        <path id="Trazado_1002588" data-name="Trazado 1002588" d="M100.952,34.293a1.771,1.771,0,1,1-1.771-1.771,1.771,1.771,0,0,1,1.771,1.771" transform="translate(-75.772 -25.298)" fill="#19538d"/>
      </g>
    </g>
  </g>
</svg>
