<svg xmlns="http://www.w3.org/2000/svg" xmlns:xlink="http://www.w3.org/1999/xlink" width="150.007" height="150.007" viewBox="0 0 150.007 150.007">
  <defs>
    <clipPath id="clip-path">
      <rect id="Rectángulo_455533" data-name="Rectángulo 455533" width="150.007" height="143.885" fill="#19538d"/>
    </clipPath>
    <clipPath id="clip-path-2">
      <rect id="Rectángulo_466252" data-name="Rectángulo 466252" width="65.545" height="63.14" fill="#19538d"/>
    </clipPath>
  </defs>
  <g id="Grupo_1183624" data-name="Grupo 1183624" transform="translate(0.295 -0.228)">
    <ellipse id="Elipse_13674" data-name="Elipse 13674" cx="64.003" cy="64.003" rx="64.003" ry="64.003" transform="translate(10.705 11.228)" fill="#fff"/>
    <g id="Grupo_1179062" data-name="Grupo 1179062" transform="translate(-0.295 0.228)">
      <rect id="Rectángulo_455531" data-name="Rectángulo 455531" width="150.007" height="150.007" transform="translate(0 0)" fill="none"/>
      <g id="Grupo_1179061" data-name="Grupo 1179061" transform="translate(0 3.517)">
        <path id="Trazado_998445" data-name="Trazado 998445" d="M125.037,98.51H96.727l3.837-7.156h28.309Z" transform="translate(16.631 15.706)" fill="#62249e"/>
        <path id="Trazado_998446" data-name="Trazado 998446" d="M2.327,86.893,0,91.629H31.211l2.327-4.736Z" transform="translate(0 14.939)" fill="#19538d"/>
        <path id="Trazado_998447" data-name="Trazado 998447" d="M128.7,33.274H98.809l2.344-5.308h29.89Z" transform="translate(16.989 4.808)" fill="#19538d"/>
        <path id="Trazado_998448" data-name="Trazado 998448" d="M42.749,13.528H3.483L5.827,8.221H45.092Z" transform="translate(0.599 1.413)" fill="#19538d"/>
        <g id="Grupo_1179060" data-name="Grupo 1179060" transform="translate(0)">
          <g id="Grupo_1179059" data-name="Grupo 1179059" clip-path="url(#clip-path)">
            <path id="Trazado_998449" data-name="Trazado 998449" d="M74.554,127.147A63.648,63.648,0,0,1,12.5,49.237H4.028A71.937,71.937,0,0,0,130.587,108.58h-11.1a63.465,63.465,0,0,1-44.935,18.567" transform="translate(0.449 8.465)" fill="#19538d"/>
            <path id="Trazado_998450" data-name="Trazado 998450" d="M110.835,89.59h9.414c.756-1.5,1.443-3.048,2.094-4.61h-9.051c-.761,1.573-1.575,3.113-2.458,4.61" transform="translate(19.056 14.611)" fill="#19538d"/>
            <path id="Trazado_998451" data-name="Trazado 998451" d="M146.022,71.942A71.954,71.954,0,0,0,5.373,50.547h8.733a63.671,63.671,0,1,1,119.046,45.14h8.82a71.625,71.625,0,0,0,4.05-23.744" transform="translate(0.924)" fill="#19538d"/>
            <path id="Trazado_998452" data-name="Trazado 998452" d="M108.562,81.649v3.9h5.121q.928-1.918,1.729-3.9Z" transform="translate(18.665 14.038)" fill="#19538d"/>
            <path id="Trazado_998453" data-name="Trazado 998453" d="M129.263,81.649h-7.111q-.694,1.979-1.5,3.9h8.608Z" transform="translate(20.744 14.038)" fill="#19538d"/>
          </g>
        </g>
        <path id="Trazado_998444" data-name="Trazado 998444" d="M3.515,37.025,0,44.181H21.251l3.516-7.156Z" transform="translate(0 6.366)" fill="#62249e"/>
      </g>
    </g>
    <g id="Grupo_1177669" data-name="Grupo 1177669" transform="translate(34.705 34.228)">
      <g id="Grupo_1099618" data-name="Grupo 1099618" transform="translate(0 0)">
        <rect id="Rectángulo_401104" data-name="Rectángulo 401104" width="79.902" height="80.865" transform="translate(0)" fill="none"/>
      </g>
      <g id="Grupo_1184623" data-name="Grupo 1184623" transform="translate(7.179 8.863)">
        <g id="Grupo_1184622" data-name="Grupo 1184622" clip-path="url(#clip-path-2)">
          <path id="Trazado_1002572" data-name="Trazado 1002572" d="M245.446,170.592l3.408-3.425a1.288,1.288,0,0,1,1.843-.1,1.319,1.319,0,0,1-.039,1.927,4.646,4.646,0,0,0-1.044,1.166,7.463,7.463,0,0,0,8.22-7.174c.062-1.681.047-3.242,0-4.926a7.347,7.347,0,0,0-7.074-7.267l-4.267-.033a1.276,1.276,0,0,1-1.429-1.2,1.29,1.29,0,0,1,1.435-1.335l4.722.044c5.2.049,9.154,4.786,9.189,9.988.011,1.714.068,3.241-.019,4.94a10.17,10.17,0,0,1-10.816,9.606c.413.817,2.4,1.87,1.154,3.125a1.274,1.274,0,0,1-1.8-.007l-3.4-3.382a1.352,1.352,0,0,1-.082-1.954" transform="translate(-194.894 -117.886)" fill="#19538d"/>
          <path id="Trazado_1002573" data-name="Trazado 1002573" d="M11.383,60.267l3.561,3.506a1.369,1.369,0,0,1-.015,1.987l-3.49,3.458a1.3,1.3,0,0,1-1.755-.055c-1.191-1.328.809-2.283,1.159-3.1a10.179,10.179,0,0,1-10.8-9.663C-.035,54.7.013,53.168.03,51.451a10.034,10.034,0,0,1,9.39-9.93c1.692-.1,3.247-.007,4.911-.006a1.193,1.193,0,0,1,1.048,1.254,1.245,1.245,0,0,1-1.267,1.251l-4.287.021a7.4,7.4,0,0,0-7.218,7.216c-.056,1.688-.051,3.248,0,4.931a7.512,7.512,0,0,0,8.239,7.241c-.488-.957-2.165-1.631-1.269-2.931a1.229,1.229,0,0,1,1.81-.231" transform="translate(0 -32.983)" fill="#19538d"/>
          <path id="Trazado_1002574" data-name="Trazado 1002574" d="M112.161,2.69l-3.386-.049a1.252,1.252,0,0,1-1.259-1.252c-.02-1.705,2.377-1.4,4.533-1.3a5.69,5.69,0,0,1,5.485,5.286c.113,2.8.089,5.414.011,8.245A5.641,5.641,0,0,1,112,19l-17.972.005a5.765,5.765,0,0,1-5.71-5.821l.009-7.4a5.742,5.742,0,0,1,5.467-5.7C95.045.016,96.239.069,97.476.085a1.267,1.267,0,0,1,1.274,1.3,1.262,1.262,0,0,1-1.3,1.26l-3.267.008a3.128,3.128,0,0,0-3.244,2.927l.006,8.025a3.017,3.017,0,0,0,2.831,2.81l18.417-.006a3.086,3.086,0,0,0,2.839-3.029l.01-7.591a3.072,3.072,0,0,0-2.881-3.1" transform="translate(-70.238 0.001)" fill="#19538d"/>
          <path id="Trazado_1002575" data-name="Trazado 1002575" d="M249.454,26.119c.358.686.928.928,1.286,1.464a1.272,1.272,0,0,1-1.982,1.589l-3.468-3.48a1.3,1.3,0,0,1,.012-1.8l3.582-3.563a1.267,1.267,0,0,1,1.663,0,1.311,1.311,0,0,1,.131,1.773c-.389.506-.915.8-1.2,1.4l6.966.031a1.27,1.27,0,1,1,0,2.537Z" transform="translate(-194.79 -15.917)" fill="#19538d"/>
          <path id="Trazado_1002576" data-name="Trazado 1002576" d="M134.871,42.917l-14.148,0a1.3,1.3,0,1,1-.012-2.589l14.108.014a1.281,1.281,0,0,1,1.235,1.121,1.329,1.329,0,0,1-1.183,1.458" transform="translate(-94.896 -32.07)" fill="#19538d"/>
          <path id="Trazado_1002577" data-name="Trazado 1002577" d="M157.387,1.7A1.266,1.266,0,1,1,156.121.431,1.266,1.266,0,0,1,157.387,1.7" transform="translate(-123.153 -0.343)" fill="#19538d"/>
          <path id="Trazado_1002578" data-name="Trazado 1002578" d="M111.5,234.817l-16.9.02c-3.494,0-6.317-2.389-6.314-5.967l0-7.189a5.7,5.7,0,0,1,5.54-5.786l18.315.009a5.562,5.562,0,0,1,5.373,5.352c.071,2.838.115,5.458-.013,8.237a5.757,5.757,0,0,1-6,5.324m.193-2.595a3.185,3.185,0,0,0,3.314-3.143l-.007-7.548a3.226,3.226,0,0,0-3.422-3.128l-17.408.01a3.114,3.114,0,0,0-3.253,2.885l-.006,7.995a3.107,3.107,0,0,0,3.265,2.933Z" transform="translate(-70.212 -171.698)" fill="#19538d"/>
          <path id="Trazado_1002579" data-name="Trazado 1002579" d="M17.086,244.686c.025.67,2.36,1.657,1.146,3.04a1.279,1.279,0,0,1-1.814.078l-3.581-3.585a1.209,1.209,0,0,1-.049-1.648l3.555-3.592a1.278,1.278,0,0,1,1.893,1.716c-.367.474-.873.732-1.178,1.342l6.979.045a1.283,1.283,0,0,1,.032,2.566Z" transform="translate(-9.93 -189.735)" fill="#19538d"/>
          <path id="Trazado_1002580" data-name="Trazado 1002580" d="M134.918,258.588l-14.41.013a1.253,1.253,0,1,1,.2-2.5l13.91-.009a1.268,1.268,0,0,1,1.41.99,1.218,1.218,0,0,1-1.116,1.5" transform="translate(-94.894 -203.667)" fill="#19538d"/>
          <path id="Trazado_1002581" data-name="Trazado 1002581" d="M111.75,127.142,93.6,127.073c-3.015-.011-5.262-2.829-5.26-5.685l0-7.439A5.58,5.58,0,0,1,93.61,108.3l18.834-.071a5.728,5.728,0,0,1,5.11,5.328c.1,2.78.1,5.43,0,8.218a5.678,5.678,0,0,1-5.808,5.366m.177-2.518a3.289,3.289,0,0,0,3.138-3.276l0-7.378a3.226,3.226,0,0,0-3.255-3.2l-17.759.013a3.223,3.223,0,0,0-3.118,2.758l-.007,8.223a3.281,3.281,0,0,0,3.308,2.85Z" transform="translate(-70.254 -86.073)" fill="#19538d"/>
          <path id="Trazado_1002582" data-name="Trazado 1002582" d="M129.105,150.77l-8.4.007a1.271,1.271,0,1,1,.008-2.533l8.386,0a1.265,1.265,0,1,1,.007,2.524" transform="translate(-94.898 -117.896)" fill="#19538d"/>
          <path id="Trazado_1002583" data-name="Trazado 1002583" d="M191.286,149.471a1.262,1.262,0,1,1-1.262-1.262,1.262,1.262,0,0,1,1.262,1.262" transform="translate(-150.119 -117.868)" fill="#19538d"/>
        </g>
      </g>
    </g>
  </g>
</svg>
