<svg xmlns="http://www.w3.org/2000/svg" xmlns:xlink="http://www.w3.org/1999/xlink" width="150.007" height="150.007" viewBox="0 0 150.007 150.007">
  <defs>
    <clipPath id="clip-path">
      <rect id="Rectángulo_455533" data-name="Rectángulo 455533" width="150.007" height="143.885" fill="#19538d"/>
    </clipPath>
    <clipPath id="clip-path-2">
      <rect id="Rectángulo_466251" data-name="Rectángulo 466251" width="79.705" height="60.467" fill="#19538d"/>
    </clipPath>
  </defs>
  <g id="Grupo_1183625" data-name="Grupo 1183625" transform="translate(0.295 -0.228)">
    <ellipse id="Elipse_13674" data-name="Elipse 13674" cx="64.003" cy="64.003" rx="64.003" ry="64.003" transform="translate(10.705 11.228)" fill="#fff"/>
    <g id="Grupo_1179062" data-name="Grupo 1179062" transform="translate(-0.295 0.228)">
      <rect id="Rectángulo_455531" data-name="Rectángulo 455531" width="150.007" height="150.007" transform="translate(0 0)" fill="none"/>
      <g id="Grupo_1179061" data-name="Grupo 1179061" transform="translate(0 3.517)">
        <path id="Trazado_998445" data-name="Trazado 998445" d="M125.037,98.51H96.727l3.837-7.156h28.309Z" transform="translate(16.631 15.706)" fill="#62249e"/>
        <path id="Trazado_998446" data-name="Trazado 998446" d="M2.327,86.893,0,91.629H31.211l2.327-4.736Z" transform="translate(0 14.939)" fill="#19538d"/>
        <path id="Trazado_998447" data-name="Trazado 998447" d="M128.7,33.274H98.809l2.344-5.308h29.89Z" transform="translate(16.989 4.808)" fill="#19538d"/>
        <path id="Trazado_998448" data-name="Trazado 998448" d="M42.749,13.528H3.483L5.827,8.221H45.092Z" transform="translate(0.599 1.413)" fill="#19538d"/>
        <g id="Grupo_1179060" data-name="Grupo 1179060" transform="translate(0)">
          <g id="Grupo_1179059" data-name="Grupo 1179059" clip-path="url(#clip-path)">
            <path id="Trazado_998449" data-name="Trazado 998449" d="M74.554,127.147A63.648,63.648,0,0,1,12.5,49.237H4.028A71.937,71.937,0,0,0,130.587,108.58h-11.1a63.465,63.465,0,0,1-44.935,18.567" transform="translate(0.449 8.465)" fill="#19538d"/>
            <path id="Trazado_998450" data-name="Trazado 998450" d="M110.835,89.59h9.414c.756-1.5,1.443-3.048,2.094-4.61h-9.051c-.761,1.573-1.575,3.113-2.458,4.61" transform="translate(19.056 14.611)" fill="#19538d"/>
            <path id="Trazado_998451" data-name="Trazado 998451" d="M146.022,71.942A71.954,71.954,0,0,0,5.373,50.547h8.733a63.671,63.671,0,1,1,119.046,45.14h8.82a71.625,71.625,0,0,0,4.05-23.744" transform="translate(0.924)" fill="#19538d"/>
            <path id="Trazado_998452" data-name="Trazado 998452" d="M108.562,81.649v3.9h5.121q.928-1.918,1.729-3.9Z" transform="translate(18.665 14.038)" fill="#19538d"/>
            <path id="Trazado_998453" data-name="Trazado 998453" d="M129.263,81.649h-7.111q-.694,1.979-1.5,3.9h8.608Z" transform="translate(20.744 14.038)" fill="#19538d"/>
          </g>
        </g>
        <path id="Trazado_998444" data-name="Trazado 998444" d="M3.515,37.025,0,44.181H21.251l3.516-7.156Z" transform="translate(0 6.366)" fill="#62249e"/>
      </g>
    </g>
    <g id="Grupo_1184621" data-name="Grupo 1184621" transform="translate(34.856 43.308)">
      <g id="Grupo_1184619" data-name="Grupo 1184619" clip-path="url(#clip-path-2)">
        <path id="Trazado_1002571" data-name="Trazado 1002571" d="M50.9,57.276a3.053,3.053,0,0,1-3.09,3.156l-15.677.029a3.193,3.193,0,0,1-3.359-3.336l.02-15.673a3.083,3.083,0,0,1,3.18-3.121l6.333-.078-.033-6.54h-25.6l-.03,6.554,6.444.078a3.083,3.083,0,0,1,3.057,3.112l-.008,15.905a3.2,3.2,0,0,1-3.459,3.107l-15.46-.02A3.1,3.1,0,0,1,.006,57.372L0,41.449a3.063,3.063,0,0,1,3.062-3.106l6.427-.087.066-8.179a1.4,1.4,0,0,1,1.4-1.427l27.308-.028.039-6.384-6.334-.063a3.143,3.143,0,0,1-3.181-3.163L28.8,3.067A3.046,3.046,0,0,1,31.866.024L47.563,0a3.115,3.115,0,0,1,3.325,3.075l.018,15.688a3.187,3.187,0,0,1-3.313,3.249l-6.2.044.027,6.57,27.059.006a1.468,1.468,0,0,1,1.654,1.451l.065,8.179,6.217.06a3.266,3.266,0,0,1,3.292,3.366l-.027,15.684a3.1,3.1,0,0,1-3.2,3.074H60.749A3.063,3.063,0,0,1,57.584,57.6l-.041-16.139A3.089,3.089,0,0,1,60.6,38.342l6.447-.08-.033-6.552h-25.6l-.036,6.545,6.337.073a3.087,3.087,0,0,1,3.18,3.12ZM47.868,3.07H31.818v16h16.05Zm-28.8,38.321H3.071v16H19.066Zm28.8,0H31.818V57.4h16.05Zm28.747-.006H60.622V57.24H76.615Z" transform="translate(0 0)" fill="#19538d"/>
      </g>
    </g>
  </g>
</svg>
