<svg xmlns="http://www.w3.org/2000/svg" xmlns:xlink="http://www.w3.org/1999/xlink" width="149.854" height="56.454" viewBox="0 0 149.854 56.454">
  <defs>
    <clipPath id="clip-path">
      <rect id="Rectángulo_466221" data-name="Rectángulo 466221" width="51.731" height="51.725" fill="#fff"/>
    </clipPath>
  </defs>
  <g id="Grupo_1178807" data-name="Grupo 1178807" transform="translate(-1174.479 -504.046)">
    <path id="Trazado_998133" data-name="Trazado 998133" d="M49.7-29.171h105.16L110.165,18.695H5Z" transform="translate(1169.474 541.806)" fill="#19538d"/>
    <g id="Grupo_1184589" data-name="Grupo 1184589" transform="translate(1223.54 504.046)">
      <g id="Grupo_1184588" data-name="Grupo 1184588" clip-path="url(#clip-path)">
        <path id="Trazado_1002453" data-name="Trazado 1002453" d="M46,12.113.066,12.119.06,3.68A3.649,3.649,0,0,1,3.94.007H42.058a3.714,3.714,0,0,1,3.971,3.863ZM9.525,5.192a4.681,4.681,0,0,0-1.841.033A1.809,1.809,0,0,0,6.43,7.512a2.137,2.137,0,0,0,2.281,1.35,2.064,2.064,0,0,0,2.252-1.436A1.793,1.793,0,0,0,9.525,5.192m8.112,0a5.136,5.136,0,0,0-1.708-.008,1.814,1.814,0,0,0-1.437,2.223,2.12,2.12,0,0,0,2.332,1.455A2.061,2.061,0,0,0,19.051,7.43a1.806,1.806,0,0,0-1.414-2.237m8.029-.014a5.153,5.153,0,0,0-1.752.027,1.809,1.809,0,0,0-1.281,2.342c.3.994,1.263,1.309,2.307,1.307a2.025,2.025,0,0,0,2.245-1.594A1.808,1.808,0,0,0,25.666,5.18" transform="translate(-0.049 0)" fill="#fff"/>
        <path id="Trazado_1002454" data-name="Trazado 1002454" d="M36.855,103.078c-1.077,2.969-3.655,3.724-6.259,4.606a3.965,3.965,0,0,0-.244,7.471c.54.225,1.166.246,1.589.7l-28.047.019A3.7,3.7,0,0,1,0,112.093L.005,85.7H45.968l-.018,16.155c-.545-.634-.475-1.45-.94-2.1a3.918,3.918,0,0,0-3.782-2.012,3.974,3.974,0,0,0-3.39,2.629ZM32.145,98.4A1.823,1.823,0,0,0,33.9,96.374a1.893,1.893,0,0,0-2.021-1.649H14.018a1.851,1.851,0,0,0-1.947,1.806,1.82,1.82,0,0,0,1.8,1.877Zm-5.122,6.555A1.783,1.783,0,0,0,28.737,103a1.849,1.849,0,0,0-1.86-1.7l-7.688-.009a1.85,1.85,0,1,0-.018,3.7Z" transform="translate(0 -69.896)" fill="#fff"/>
        <path id="Trazado_1002455" data-name="Trazado 1002455" d="M181.818,187.246a16.591,16.591,0,0,1-1.394,3.345,18.79,18.79,0,0,1-1.2-3,10.216,10.216,0,0,0-5.505-5.754,21.253,21.253,0,0,1-3.439-1.424,17.1,17.1,0,0,1,2.9-1.163,10.254,10.254,0,0,0,5.989-5.837,21.437,21.437,0,0,1,1.259-3.156,20.051,20.051,0,0,1,1.422,3.439,10.264,10.264,0,0,0,5.233,5.289,21.238,21.238,0,0,1,3.533,1.469,15.618,15.618,0,0,1-2.892,1.163,10.255,10.255,0,0,0-5.909,5.629" transform="translate(-138.887 -138.866)" fill="#fff"/>
      </g>
    </g>
  </g>
</svg>
